<svg xmlns="http://www.w3.org/2000/svg" width="278.938" height="45.464" viewBox="0 0 278.938 45.464">
  <g id="daily-mail" transform="translate(-8.504 -82.057)">
    <path id="Path_608" data-name="Path 608" d="M149.907,107.312l.621.465a11.547,11.547,0,0,1,.04-1.863,1.529,1.529,0,0,0-.582.892l-.66.078.582.429Zm25.437,5.046a.422.422,0,0,0-.39-.27.473.473,0,0,0,0,.93.441.441,0,0,0,.429-.465c0-.076-.038-.117-.038-.2Zm-.016-1.822a.433.433,0,0,1,.016.114.478.478,0,0,1-.313.44v.573a.779.779,0,0,1,.546.306.97.97,0,0,1,.192.582.865.865,0,0,1-.586.862c.959-.075,1.559-.162,1.559-.162-.933-.2-.39-.738-.39-.738a4.89,4.89,0,0,1,1.243-.624,2.361,2.361,0,0,1-1.749-1.357h-.517Zm-.489,2.9a.924.924,0,0,1-.04-1.759v-.57a.509.509,0,0,1-.425-.422l0,0a2.918,2.918,0,0,1-.738.114.2.2,0,0,0,.078.273c.816.582.273,1.125.273,1.125-.387.351-.582.351-.582.351a6.639,6.639,0,0,0-1.321.933c1.038.032,1.989,0,2.758-.049Zm-10.642-3.6a.337.337,0,0,0,.2-.062l.775.335a.4.4,0,0,0,.351.429.341.341,0,0,0,.289-.189l.657.1a.369.369,0,0,0,.335.325.423.423,0,0,0,.384-.4l.549-.26a.331.331,0,0,0,.273.159.427.427,0,0,0,.387-.429l.351-.579a10.173,10.173,0,0,0,1.981-.04,17.4,17.4,0,0,1,1.9-.855,5,5,0,0,0-.819.66,5.908,5.908,0,0,0-.543.621,1.04,1.04,0,0,0-.429.9,1.5,1.5,0,0,0,.232.621,1.446,1.446,0,0,0,.468.351l.429.387a3.917,3.917,0,0,1-1.128.465,1.56,1.56,0,0,1-1.008-.114c-1.36-.309-1.825.309-1.825.309a1.312,1.312,0,0,1-.778.351l.232.351a.905.905,0,0,1-.775-.04,2.887,2.887,0,0,1,.309-1.321c-.156-1.048-2.332-.855-2.332-.855l-.541-.508-.117-.117-1.243-1.165a3.587,3.587,0,0,1-.348,1.284,6.2,6.2,0,0,1-.351.66l-.465-.235a1.338,1.338,0,0,0,.192-.425,15.117,15.117,0,0,0,.66-2.254,2.385,2.385,0,0,1,.582.078,2.229,2.229,0,0,0,.2.117c.09.043.189.084.3.127l.429.608a.476.476,0,0,0-.062.235C163.887,109.68,164,109.836,164.2,109.836Zm4.336-.6-.227.322a.37.37,0,0,0-.3-.183c-.2,0-.351.192-.351.465a.4.4,0,0,0,.013.108l-.5.232a.446.446,0,0,0-.371-.341c-.192,0-.348.232-.348.465l-.592-.1a.439.439,0,0,0,.01-.09c0-.232-.159-.468-.351-.468a.374.374,0,0,0-.319.292l-.686-.309a.421.421,0,0,0,.033-.173.382.382,0,0,0-.351-.387.218.218,0,0,0-.09.016l-.183-.329h0a20.134,20.134,0,0,0,2.216.546h.855l.273-.429a3.531,3.531,0,0,0,1.27.365Zm-4.6-6.631c.032.04.062.076.094.11l-.049.087a.173.173,0,0,0-.087-.029.3.3,0,0,0-.273.311l-.037-.038-.313-.351-.114-.116-.7-.738c-.816-1.087-2.059,0-2.059,0l-.192-.156a.516.516,0,0,0,.078-.894l1.281-3.3-.351-.427c.624-1.282-.7-1.321-.7-1.321-.39-1.165-1.089-.621-1.089-.621-.232-1.127-1.089-.544-1.089-.544a.681.681,0,0,0-1.048-.311l.037-1.825-.852.038-.933-.038.078,1.863a.68.68,0,0,0-1.089.467c-1.086-.622-1.086.582-1.086.582-.9-.273-.855.582-.855.582a1.028,1.028,0,0,0-1.048,1.165l.93,3.184a49.125,49.125,0,0,1-2.989,3.962l-1.167-.349-.078-.194a.568.568,0,0,0,.467.078,3.335,3.335,0,0,1,.038-1.165c.351-1.514-.271-2.059-.271-2.059a2.939,2.939,0,0,0-.389-1.359c.582-.738-.271-1.476-.271-1.476l-.117-.2-.038-1.592c-.156,0-.233-.2-.233-.2-.233-.66-.66-.232-.66-.232a.457.457,0,0,0-.816-.156.5.5,0,0,0-.855,0l-.349-1.127-1.165.465.389,1.243c-.855-.2-.582.66-.582.66-.738.038-.389.7-.389.7-.7.078-.427.855-.427.855l.776,1.281c-.622.7-.038,1.165-.038,1.165.2.351.429.351.429.351a3.359,3.359,0,0,0,.116,2.136,6.683,6.683,0,0,1-1.9,1.4,11.984,11.984,0,0,1-1.825.7c-1.516.351-4.5,1.321-4.5,1.321-1.049.27-2.719.775-2.719.775-2.1.624-2.641-.037-2.641-.037-.5-.313-.116-1.128-.116-1.128a2.492,2.492,0,0,1,1.554-1.243,6.59,6.59,0,0,1,1.009.738,1.9,1.9,0,0,0,1.282.429l.038-.156a1.114,1.114,0,0,0,.582-.078.774.774,0,0,1-.233-.5c0-.194-.271-.5-.271-.5l5.4-.233c.2-.036.349-.036.5-.078a4.937,4.937,0,0,0,2.292-.776,2.56,2.56,0,0,0,.738-2.681,2.6,2.6,0,0,0-2.059-1.709,4.472,4.472,0,0,0-1.825-.116,8.124,8.124,0,0,1-1.786-.271c-.04.232.465.97.465.97a1.311,1.311,0,0,1-.97-.309,1.909,1.909,0,0,0-1.632-.311,7.022,7.022,0,0,0,1.089,1.089,7.624,7.624,0,0,1-2.019-.582,3.461,3.461,0,0,0,5.009,2.136,8.946,8.946,0,0,1,1.476-.738.844.844,0,0,1,1.165.544c-.078,1.321-1.049,1.359-1.049,1.359a25.593,25.593,0,0,1-6.525.194,2.93,2.93,0,0,0,.311-1.243l-.311.078c-1.63-.156-2.059.2-2.059.2a2.374,2.374,0,0,0-.854,1.087,6.165,6.165,0,0,0-1.749,1.087,3.928,3.928,0,0,0-1.2,2.214c-.078,1.4.7,1.594.7,1.594-.7,1.357.349,1.863.349,1.863a2.324,2.324,0,0,0,.66-.738,13.7,13.7,0,0,1,3.65-1.281,3.937,3.937,0,0,0-.855,1.708,2.469,2.469,0,0,1-1.243-.117c-.427-.037-.427.313-.427.313l-.2.465-.271.855c-1.67-.078-1.436.892-1.436.892l-.233,2.6c.389.97,1.009.816,1.009.816v-.97h.427a2.369,2.369,0,0,0,1.282,1.281h.233c.271-.078.389.313.389.313l.271.037.038-.66.309-.036c.2.078.311.387.311.387h.232a2.48,2.48,0,0,0,.117-.582c.311-.2.232-.892.232-.892a2.824,2.824,0,0,1,1.282.117l-.038.579a1.794,1.794,0,0,0,1.049.9,8,8,0,0,0,1.67.232c1.2.078,2.719.037,4.117,0q2.276-.115,4.544-.351c.156.232.232.2.232.2.66.232,1.4-.468,1.4-.468l-.232.468a2.72,2.72,0,0,0,1.049-.39,1.071,1.071,0,0,0,.543.39l.117-.117.156.232a1.471,1.471,0,0,0,.5-.7,1.155,1.155,0,0,0,.855.232l.156.232.114-.2a5.469,5.469,0,0,0,.66.351,1.875,1.875,0,0,0,.273-1.435l.117.192.114-.465a.991.991,0,0,0,.624.232c-.738.309-.313.855-.313.855a.867.867,0,0,0,.39.348.492.492,0,0,1,.543.39.743.743,0,0,0,.933-.351l.078-.465a2.171,2.171,0,0,1-.117-.7l.117.5.192.117,1.321,1.048,1.128-.933a2.956,2.956,0,0,0,1.476.429c.309,0,.078-.387.078-.387a3.745,3.745,0,0,0,2.524.621c.232-.192.078-.309.078-.309.273-.117.738.273.738.273a1.172,1.172,0,0,0,.97.037.308.308,0,0,0-.232-.232c.273,0,.117-.387.117-.387a.955.955,0,0,1,.5.348.715.715,0,0,0,.66.235l.037-.2a2.226,2.226,0,0,0,.892.232.35.35,0,0,0,.04-.387,25.855,25.855,0,0,0,6.95.7c5.4-.036,6.138-1.086,6.138-1.086a.51.51,0,0,0,.078-.5v-.309a1.074,1.074,0,0,1,.7-.04l-.39.816-.114.273c.93,1.048,2.328-.117,2.328-.117v-.351a1.492,1.492,0,0,0,.5-.425l.624.156a1.176,1.176,0,0,1-.156.738,1.1,1.1,0,0,0,1.317-.738l-.5-2.6a2.767,2.767,0,0,0-2.176-.738l-.04-.66a.743.743,0,0,0-.582-.425l-.3-.108-.283.108c-.429.037-1.051.037-1.051.037v-.037l.078-.9v-1.008l-.078-.351.819.117a7.3,7.3,0,0,0,2.059.27.751.751,0,0,1,.465.66l-.156.546c1.321-.117,1.165-1.594,1.165-1.594.93-.778.7-2.874.7-2.874a2.049,2.049,0,0,0-.429-.933l-.037-.037a2.261,2.261,0,0,0-1.321-1.9.86.86,0,0,0-.5-.2,2.141,2.141,0,0,1-.738-.582,1.684,1.684,0,0,0-.078,1.63,28.342,28.342,0,0,0-4.663.622,5.858,5.858,0,0,1-2.482-.271c-.973-.544-.816-1.243-.816-1.243.192-1.127,1.125-.971,1.125-.971h.273a2.279,2.279,0,0,1,1.4.156c1.63.776,4.541,0,4.541,0a3.521,3.521,0,0,0,1.789-2.37,2.312,2.312,0,0,1-1.825.7,4.832,4.832,0,0,0-.582.156,1.644,1.644,0,0,1,.93-.971,2.467,2.467,0,0,0-2.1.311,3.655,3.655,0,0,1-1.749.776,2.925,2.925,0,0,0,1.36-1.321,3.413,3.413,0,0,1-1.63.271c-1.594-.311-3.341,1.125-3.341,1.125a2.717,2.717,0,0,0-.816,3.108,2.017,2.017,0,0,0,1.165,1.009,5.186,5.186,0,0,0,1.513.429,31.624,31.624,0,0,0,5.09-.2,3.143,3.143,0,0,1,.66-.078,2.485,2.485,0,0,0-.738,1.516,3.429,3.429,0,0,1,1.086-.232l-.036.156a4.388,4.388,0,0,1,1.357,0,.418.418,0,0,0,.468-.309c.465.7-.468,1.476-.468,1.476-.543.543-1.746.114-1.746.114a9.883,9.883,0,0,0-2.371-.429c-.309-.387-3.844-1.086-3.844-1.086a.42.42,0,0,0-.543-.2l-.313-.04a.666.666,0,0,0-1.008-.309,6.718,6.718,0,0,1-1.789-.816,1.434,1.434,0,0,1-.348-.232,6.4,6.4,0,0,0,1.746-4.271,3.811,3.811,0,0,0-2.833-3.69,2,2,0,0,0-1.63-1.009l-.078.2.114.271c-.036.2.2.544.2.544l-.5.116-3.146-1.825c-.775-.194-.465.465-.465.465l.156.233,2.719,2.136a5.188,5.188,0,0,1-1.2,1.243l-.351.078-.429.465.04.622a1.258,1.258,0,0,1-.624.156l-.036.389c.27.389,1.048.389,1.048.389l.621.621a.29.29,0,0,0,.351-.038l.543-.621.738-.349a1.711,1.711,0,0,0,.546.156,3.243,3.243,0,0,0-1.048.932,3,3,0,0,0-1.128.038l-.078.427-.022.1-.17-.1a.651.651,0,0,0-1.128-.427.881.881,0,0,0-.07,1.113Zm.017.813a.367.367,0,0,0,.17-.335.312.312,0,0,0-.029-.13l.052-.13a.676.676,0,0,0,.43.151c.4-.013.556-.59.556-.59h.1l-.1.465a2.789,2.789,0,0,0-.738,1.009l-.441-.44Zm.243-1.109a.451.451,0,0,1,.238-.624c.543-.078.429.621.429.621-.146.183-.263.251-.36.259C164.287,102.576,164.195,102.306,164.192,102.3Zm-21.2,8.193a2.642,2.642,0,0,1-1.554.7l-.311.5.738.2.156.078.66.2a.42.42,0,0,1,.544-.351s.349-.933,1.747-.621a.758.758,0,0,1,.543.078,2.177,2.177,0,0,1,.349.27l-.156-.5a.513.513,0,0,1,.543-.156,1.643,1.643,0,0,1-.271-.387,1.439,1.439,0,0,1-.271-.778,1.936,1.936,0,0,1,.932-.114v-.429h.271l-.5-.309a3.6,3.6,0,0,1-3.69.738,5.728,5.728,0,0,1-1.359-.582,1.989,1.989,0,0,0,1.943,1.125,3.187,3.187,0,0,1-.309.351Zm-6.252,0a14.026,14.026,0,0,0,2.136.351,2.762,2.762,0,0,1-.349.309,2.081,2.081,0,0,1-.776.429,1.969,1.969,0,0,0-.116,1.089,2.054,2.054,0,0,0,.776.387c.389.156.776.273.776.273a3.6,3.6,0,0,1-1.436,0,2.447,2.447,0,0,1-.7-.159l.194-.387c-.156-1.011-1.67-1.125-1.67-1.125l.078-.465a3.16,3.16,0,0,0,.467-.7,1.026,1.026,0,0,0,.116-.232,1.659,1.659,0,0,0,.467.232h.036v0Zm27.653,3.224a.345.345,0,0,0-.2.309s.078.232.582.387a2.344,2.344,0,0,0-.04-.892,1.669,1.669,0,0,0-.348.2Zm-17.711-.7.271-.078a1.171,1.171,0,0,1-.309-.387.809.809,0,0,0-.349-.582l.038.273v.387l.116.117v.309l.233-.04Zm1.243,1.362.04.582.5-.546a.214.214,0,0,1-.2-.114,1.322,1.322,0,0,1-.31-.387l-.04.465Zm1.755-3.87a.742.742,0,0,1,.682.156.516.516,0,0,1,.475-.559,11.231,11.231,0,0,1-1.554-.429,2.37,2.37,0,0,1-1.087-.582l-.349.117-.273.114v.117a2.878,2.878,0,0,1,1.127.429v-.159a1.429,1.429,0,0,1,.979.8Zm2.049,1.538c0-.078.04-.156.04-.273l.582.624a.688.688,0,0,1-.117.621,1.163,1.163,0,0,0-.27-.192.726.726,0,0,0-.313-.078l-.036-.5a.557.557,0,0,0,.114-.2Zm-47.223-21.2s5.787,2.952,6.485,3.535c.738.582.349.971.349.971a1.614,1.614,0,0,1-.932.543c-.662.116-.465.66-.465.66l-.078,13.788c2.719,2.679,5.282,1.243,5.282,1.243a1.105,1.105,0,0,0,.855-1.165s.2-12.97.116-13.4a.5.5,0,0,0-.465-.465s-2.408-1.516-2.8-1.786c-.429-.271.038-.7.038-.7s4.077-2.835,4.661-3.379a.871.871,0,0,1,1.049-.2s6.718,3.768,7.495,4.35.389.776.389.776l-1.9,1.9a.627.627,0,0,0-.2.738L124.314,111c-.5,3.262-5.631,3.73-5.631,3.73-6.176.078-9.048-2.563-9.048-2.563a6.6,6.6,0,0,0-5.282-.468c-3.611,1.243-3.884,3.574-3.884,3.574-.117,1.671,1.747,2.486,1.747,2.486,2.292,1.476,5.631.543,5.631.543,2.835-.97,7.223-2.446,7.223-2.446A13.051,13.051,0,0,1,120,115.74a6.4,6.4,0,0,1,3.457,1.711,5.369,5.369,0,0,1,1.476,3.727c.116,4.585-5.515,6.138-5.515,6.138-2.524.5-3.222-.078-3.222-.078-1.787-.39.116-.582.116-.582s-3.263.192.271.037c3.535-.114,3.923-1.822,3.923-1.822,1.282-2.293-.7-2.681-.7-2.681-2.719-.387-5.669,1.825-5.669,1.825-6.6,2.951-11.612.5-11.612.5-5.127-1.981-4.466-5.787-4.466-5.787.116-4.931,3.224-6.872,3.224-6.872L101.093,96.6a.919.919,0,0,0-.544-.5,10.534,10.534,0,0,1-2.485-1.321.414.414,0,0,1,.194-.66l4.933-3.263c.579-.817,1.317,0,1.317,0ZM8.813,88.514c-.738-.5.078-.776.078-.776L16.309,82.3H35.92c4.233.387,3.884,5.825,3.884,5.825l-.078,20.038a16.011,16.011,0,0,0-10.175,7.149c-6.409-1.825-17.4-.2-17.4-.2-.971.078-.311-.66-.311-.66a13.127,13.127,0,0,1,11.107-6.485c.471-.01.933,0,1.382.032l.038-19.286-15.556-.2ZM18.6,89.6c1.436-.66,1.165.311,1.165.311v11.145a9.7,9.7,0,0,1-3.806,7.264c-1.087,1.476-5.242,3.184-5.242,3.184-1.436.543-.582-.855-.582-.855a6.882,6.882,0,0,0,1.359-3.457V93.8a.788.788,0,0,1,.156-.544L18.6,89.6Zm6.388,18.457a19.347,19.347,0,0,1,5.885,1.544l-.051-8.617-.052.04c-.008-.01-2.725-3.6-5.769.132Zm5.828-7.945L30.8,96.5c-1.04.973-3.463,2.609-5.787-.421L25,100.17C27.559,97.573,29.861,99.191,30.816,100.113Zm-.027-4.557-.035-6.033c.271-1.009-1.125-.738-1.125-.738l-4.6-.06-.011,6.188c2.6,4.317,5.509.968,5.776.643Zm53.6-9.45s8.544-2.757,9.631-3.028c1.125-.271,1.049.271,1.049.271s-.232,24.311-.038,25.166.582.624.582.624,1.981,1.4,2.408,1.59a.466.466,0,0,1,.233.66l-4.815,3.73s-7.845-3.457-8.466-3.844c-.776-.546-.271-.855-.271-.855l1.4-1.4s.232-19.884-.156-20.933a2.885,2.885,0,0,0-1.632-1.476c-.273-.429.076-.506.076-.506ZM74.8,90.223a.906.906,0,0,0,.97.544,8.532,8.532,0,0,0,4.35-4.195c.776-2.912-1.049-3.689-1.049-3.689a2.747,2.747,0,0,0-2.835-.2,5.144,5.144,0,0,0-2.37,2.952,6.645,6.645,0,0,0,.933,4.582Zm-1.4,1.321s-5.049,3.108-5.438,3.69-.076.855-.076.855,2.174,1.359,2.757,1.592c.621.194.387.5.387.5l.156,10.1a3.867,3.867,0,0,1,0,.97s-.855.7-1.321,1.089a.627.627,0,0,0-.117.933l7.807,3.922s5.28-3.806,5.747-4,0-.582,0-.582-2.292-1.321-2.679-1.516a.457.457,0,0,1-.232-.582s-.311-9.983-.078-10.837c.194-.816.465-.544.465-.544a5.715,5.715,0,0,0,1.321-.582c.582-.389.04-.738.04-.738s-7.263-3.8-7.806-4.271a.624.624,0,0,0-.933,0ZM41.222,108.36c-.019-.078.6,5.865,8.214,6.836l5.049-4.076a.394.394,0,0,1,.66-.081l8.544,4.157,5.2-4.076a.884.884,0,0,0-.156-.933l-3.612-2.409v-9.9s-.038-.465.271-.543l1.4-1.125s.233-.389-.232-.894c-.429-.543-8.933-4.738-8.933-4.738s-.311-.465-1.089.078c0,0-9.282,3.728-12.932,8.5,0,0-2.911,1.863-2.387,9.2Zm7.282-3.184a8.64,8.64,0,0,1-.7-5.749,5.26,5.26,0,0,1,3.417-4.271l4.466,2.912-.078,11.494s-.582.973-2.019.313c0,0-3.69-1.825-5.088-4.7ZM262.531,91.853s-5.047,3.068-5.438,3.69c-.387.582-.078.854-.078.854a28.287,28.287,0,0,0,2.758,1.554c.621.2.387.543.387.543l.156,10.1a3.868,3.868,0,0,1,0,.97s-.855.66-1.321,1.051a.622.622,0,0,0-.114.93l7.806,3.962s5.282-3.806,5.747-4.039c.465-.192,0-.582,0-.582s-2.254-1.321-2.679-1.513a.456.456,0,0,1-.235-.582s-.31-9.982-.078-10.836c.2-.776.468-.543.468-.543a5.828,5.828,0,0,0,1.321-.582c.582-.389.036-.7.036-.7s-7.263-3.806-7.806-4.273a.635.635,0,0,0-.932,0Zm-77.208-3.3c-1.2-.66-.348-.971-.348-.971l6.057-3.884c.309-.271.582.117.582.117l5.515,3.224s7.455-3.962,7.961-4.271a.483.483,0,0,1,.582.078l6.293,3.495,6.33-3.962c.7-.582.892-.2.892-.2l7.418,4.35c.621.389.348.5.348.5v20.119a4.5,4.5,0,0,0,2.371,3.457c.583.465.31.816.31.816l-5.711,4.076c-4.931-1.671-5.4-5.669-5.4-5.669V90.611a1,1,0,0,0-.582-.816l-3.812-1.943.029,8.544h4.095l-4.076,5.876.025,7.072,2.849,1.928c.387.465-.232.543-.232.543l-5.906,3.689-8.775-4.66c-.816-.546-.2-.855-.2-.855l1.9-1.2v-6.176h-4.179l.016,7.928,1.408.89a.473.473,0,0,1-.078.775l-5.865,3.3-7.65-4.039c-.66-.429.036-.775.036-.775l2.176-1.243V91.66l-4.195-3.028-.2-.079Zm28.283-.94c-1.159-.36-.979.359-.979.359l.078,7.806V96.4h.933l-.032-8.787Zm.051,15H212.7v5.711c.036.156.5.348.5.348l.468.319-.021-6.377Zm-13.988-1.1,3.441-5.109h.738V90.61a1.8,1.8,0,0,0-.543-.621l-3.658-1.9.022,13.419Zm-.548-13.545c-1.073.024-1.135.748-1.135.748l-.081,20.739c0,.114.351.192.351.192l.9.57-.036-22.249Zm31.24,20.4c-.019-.078.6,5.865,8.215,6.836l5.047-4.076a.394.394,0,0,1,.66-.081l8.544,4.157,5.2-4.076a.888.888,0,0,0-.156-.933l-3.611-2.409v-9.9s-.036-.465.273-.543l1.4-1.125s.232-.389-.232-.894c-.429-.543-8.934-4.738-8.934-4.738s-.31-.465-1.089.078c0,0-9.282,3.728-12.932,8.5,0,0-2.912,1.863-2.389,9.2Zm7.282-3.184a8.622,8.622,0,0,1-.7-5.749,5.252,5.252,0,0,1,3.416-4.271l4.466,2.912-.078,11.494s-.582.973-2.02.313C242.731,109.875,239.042,108.05,237.644,105.176Zm35.878-19.07s8.5-2.757,9.631-3.028c1.086-.271,1.048.271,1.048.271s-.232,24.584-.04,25.439.583.66.583.66,1.981,1.4,2.409,1.59a.467.467,0,0,1,.232.66l-4.814,3.73s-7.845-3.457-8.466-3.884c-.778-.5-.273-.852-.273-.852l1.4-1.36s.232-20.233-.156-21.282a2.745,2.745,0,0,0-1.63-1.436C273.173,86.144,273.522,86.106,273.522,86.106Zm-9.593,4.428a.9.9,0,0,0,.97.543,8.689,8.689,0,0,0,4.352-4.233c.775-2.874-1.051-3.65-1.051-3.65a2.647,2.647,0,0,0-2.833-.2A5.129,5.129,0,0,0,263,85.951a6.639,6.639,0,0,0,.93,4.584Z" transform="translate(0 0)" fill="#3d5065" fill-rule="evenodd"/>
    <path id="Path_609" data-name="Path 609" d="M93.865,90.214l.544-.271v.389l.194-.194.232.543-.31.04.2.194c.427.311.156.582.156.582l-.2.156c-.622.232-.427-.738-.427-.738l-.2.194-.232-.582h.311l-.273-.311Z" transform="translate(50.098 4.631)" fill="#3d5065" fill-rule="evenodd"/>
    <path id="Path_610" data-name="Path 610" d="M98.572,92.258a.488.488,0,0,1,.5.389c.038-.66.543-.078.543-.078a.968.968,0,0,0-.427.271c0,.389.582.389.582.389.5-.273.427-.582.427-.582.078-.429-.427-.2-.427-.2l-.2-.427.311-.038v-.156l-.271-.156.855-.427-.117.349.078.078.194-.233.156.622c-.389-.078-.233.271-.233.271.221.238.4.26.525.21a.54.54,0,0,0,.251-.249c.233-.271-.038-.389-.038-.389-.31.116-.349.233-.349.233-.156-.816.271-.662.271-.662a.769.769,0,0,1,0-.582.648.648,0,0,1,.349.465c.465-.5.543.038.543.038-.621.117-.349.467-.349.467.146.23.26.267.351.21.2-.129.27-.719.27-.719a1.6,1.6,0,0,0-1.243-.544l-.038.316-.467.078-.078-.233-.116-.038v-.2a2.263,2.263,0,0,1,2.136.5l.038,1.554A11.393,11.393,0,0,0,98.88,94.39l-.816-1.4a3.124,3.124,0,0,1,1.321-1.747l.156.156-.2.233.078.271-.465.389-.389-.2a1.368,1.368,0,0,0-.271.894l.271.582c.544.233.351-.427.351-.427-.156-.2-.351.232-.351.232-.349-.66.117-.622.117-.622a.568.568,0,0,1-.114-.5ZM85.951,106.473a6.89,6.89,0,0,0-.233,3.028h-.311v-2.136c-.894-.2-.5-.543-.5-.543a1.173,1.173,0,0,1,1.049-.349Zm1.708,3.922a1.347,1.347,0,0,1,.156.738.359.359,0,0,0-.389-.273C87.272,110.395,87.659,110.395,87.659,110.395Zm.738,0a.483.483,0,0,0,.2-.387c.429.192.156.816.156.816A.821.821,0,0,0,88.4,110.395Zm-.5-1.513a.655.655,0,0,1,.778.465c.271.273.271-.117.271-.117-.351-1.089-1.049-.348-1.049-.348Zm.854.738a.2.2,0,0,0,.271-.078.652.652,0,0,1-.04.621c-.038-.31-.232-.31-.232-.31v-.233Z" transform="translate(44.808 5.033)" fill="#3d5065" fill-rule="evenodd"/>
    <path id="Path_611" data-name="Path 611" d="M88.14,104.483c-.389-1.435-1.4-.465-1.4-.465a2.2,2.2,0,0,1,.117-1.594,7.111,7.111,0,0,0,1.359,0c.194,0,.116.117.116.117.156.7-.271.7-.271.7.311.273.389.156.389.156.622.078,1.165-1.162,1.165-1.162a2.455,2.455,0,0,1,1.282.465c.389.351,0,.465,0,.465a5.055,5.055,0,0,0-1.516.078c-.116.078-.078.313-.078.313a6.6,6.6,0,0,1,.117,1.008A5.91,5.91,0,0,0,88.14,104.483Zm2.563-4.273c.156-.582,1.321-1.2,1.321-1.2a12.185,12.185,0,0,1,1.436-.429A2.52,2.52,0,0,1,95.169,99.7l-.389.309.156.117a.522.522,0,0,1,.738.04,12.81,12.81,0,0,0,1.2.5c-.389.579-1.592.348-1.592.348.038.624-.66,1.048-.66,1.048a8.107,8.107,0,0,0,2.252.741c.66-.933,1.359-.273,1.359-.273a3.836,3.836,0,0,1,.351.309c-.389.2-.273.7-.273.7a24.439,24.439,0,0,1-2.951.156,11.649,11.649,0,0,1-3.224-.855.18.18,0,0,1-.076-.273l-.04-.232c-.038-.273.2-.232.2-.232a2.768,2.768,0,0,0,1.436-.97c.2-.465-.233-.387-.233-.387A12.187,12.187,0,0,1,90.7,100.211Z" transform="translate(45.881 9.701)" fill="#3d5065" fill-rule="evenodd"/>
    <path id="Path_612" data-name="Path 612" d="M93.558,104.989a.867.867,0,0,1,1.2-.232,1.507,1.507,0,0,1,.311.465.4.4,0,0,0-.389.273c-.271-.548-1.125-.506-1.125-.506Zm.932,1.357a.357.357,0,0,1,.2-.425,1.514,1.514,0,0,1,.309.387,3.078,3.078,0,0,1-.5.038Zm.271-.657a.75.75,0,0,1,.389.579l.271-.036a1.085,1.085,0,0,0-.233-.892A.491.491,0,0,0,94.761,105.689Zm.389-1.051c.2.117.156.5.156.5a1.059,1.059,0,0,1,.349.582.93.93,0,0,1,.5-.078c-.156-1.087-1.009-1.009-1.009-1.009Zm.583,1.243.038.309.427-.037a.54.54,0,0,0-.078-.387.464.464,0,0,0-.387.114Zm2.719-8.388a2.923,2.923,0,0,1,0,.855c-.117.232-.427.7-.427.7l.543.546,1.322.036a4.979,4.979,0,0,1,.93-1.243,5.776,5.776,0,0,1,1.786-3.3V94.89a.478.478,0,0,1-.348-.389.746.746,0,0,1,.309-.621c.156.156.156-.117.156-.117a.305.305,0,0,0-.2-.078l-.078.156-.348.543a14.691,14.691,0,0,1-1.128,1.981c-.309.311-1.321,1.436-1.321,1.436l-.156-.078a3.14,3.14,0,0,1-1.046-.23Zm2.254,6.563.27-.465.2.04a1.942,1.942,0,0,0,.429.93l-.04.778a.44.44,0,0,0-.387-.273.872.872,0,0,0-.467-1.009Zm-1.751,3.611h-.271l-.66.738c-.04.429-.582.624-.582.624,1.049-.078,1.2-.465,1.2-.465a2.571,2.571,0,0,1-.233.579c.659-.348.5-.5.5-.5.117-.39.078-.429.078-.429a.547.547,0,0,1,.076-.232c.081-.314-.116-.314-.116-.314Zm.467.313a2.068,2.068,0,0,0,.66.037c.546.5-.037,1.243-.037,1.243-.156-.351-.078-.5-.078-.5a.543.543,0,0,0-.078-.429,1.147,1.147,0,0,0-.081.855,1.045,1.045,0,0,1-.579-.66.94.94,0,0,1,.192-.541Zm4.349-4.506.351-.27a.9.9,0,0,1-.114.775A1.535,1.535,0,0,0,103.77,103.473Zm-.543.5a2.766,2.766,0,0,0,.273-.348,1.144,1.144,0,0,1,.114.816c-.192-.117-.114-.04-.114-.04Z" transform="translate(49.94 6.828)" fill="#3d5065" fill-rule="evenodd"/>
    <path id="Path_613" data-name="Path 613" d="M99.9,98.562v1.321c1.128-.117,1.011.738,1.011.738.465.156.156.97.156.97a1.471,1.471,0,0,1-.037,1.011,3.965,3.965,0,0,0,2.328,1.863l-.078-5.942Zm-.232-2.332.04.778a5.829,5.829,0,0,0-.273,3.106.416.416,0,0,0-.31.232c-.429-2.795.543-4.116.543-4.116Zm2.486,7.847-.04,2.914L103.36,108l1.051-.93v-2.641l-.429.037v2.254l-.622.7-.7-.5v-2.482Z" transform="translate(53.147 8.322)" fill="#3d5065" fill-rule="evenodd"/>
    <path id="Path_614" data-name="Path 614" d="M103.827,109.83c.114,0,.2-.078.2-.232s-.081-.27-.2-.27c-.078,0-.156.114-.156.27S103.751,109.83,103.827,109.83Zm.351.624c.078,0,.156-.117.156-.232,0-.156-.078-.273-.156-.273-.117,0-.2.117-.2.273A.218.218,0,0,0,104.178,110.454Zm-.313.465c.078,0,.159-.114.159-.232s-.081-.232-.159-.232a.236.236,0,0,0,0,.463Zm-.309-.506c.117,0,.2-.114.2-.27a.2.2,0,1,0-.387,0C103.364,110.3,103.44,110.413,103.556,110.413Zm-3.339-3.143c-.04-.313.114-.351.114-.351a1.6,1.6,0,0,0,.468.621V107.5a1.774,1.774,0,0,0,.465.543.226.226,0,0,1-.232.273,3.764,3.764,0,0,1-.816-1.049Zm.775.232a.548.548,0,0,0,.156-.429c.117.2.2.2.2.2l.117-.078.232.348a.678.678,0,0,0-.429.351.564.564,0,0,1-.271-.387Zm-1.435.348.27.39a.543.543,0,0,1,.078-.273l.313-.309-.156-.273-.313.351A1.823,1.823,0,0,0,99.556,107.849Zm-.427-.7.232.309c.04-.156.117-.192.117-.192l.387-.351-.232-.156Zm-.971-4.312v.429l.114-.038.584-.04-.7.814.465.311h.66v-.311h-.7l.7-.775v-.351l-.117.038h-.894l-.114-.078Zm.078-.97-.04.387.076-.078.894.117.117.156.078-.465h-.156l-.814-.117-.156-.116Zm.7-2.1.273.194-.2.078c-.309.271-.114.427-.114.427.192.117.232-.116.232-.116.309-.427.543-.2.543-.2a.512.512,0,0,1,.117.7l-.117.156-.036.116-.309-.116.156-.116a.322.322,0,0,0,.114-.309c-.078-.351-.27,0-.27,0-.468.465-.7-.04-.7-.04-.2-.352.308-.778.308-.778Zm1.128-1.282V98.8a.315.315,0,0,0-.429.349c.114.543.5.465.5.465v.233a.691.691,0,0,1-.738-.429.7.7,0,0,1,.662-.93Zm.348,4.271h3.379V97.793l-3.533-.04Zm-.27-9.9a6.872,6.872,0,0,1,3.143-1.554v.776A7.723,7.723,0,0,0,100.139,92.86Zm4.195-1.514v.7a5.1,5.1,0,0,1,3.535.971A4.7,4.7,0,0,0,104.334,91.346Zm-.855-.04v.778h.66v-.778Zm-4.312,2.059c-.232-1.087.582-.66.582-.66Zm.855-.854c-.078-1.125.66-.5.66-.5Zm1.048-.738c-.037-1.125.7-.465.7-.465Zm1.011-.543c.156-1.476.778-.311.778-.311Zm1.2-.74h1.051c.156.233-.156.582-.156.582a1.072,1.072,0,0,1-.7-.038c-.543-.116-.2-.544-.2-.544Zm.04-1.747h1.011l-.309.467.192.2.232-.313.04.971-.5-.387.233.582-.894-.04.387-.467-.114-.116-.39.349-.038-.932.389.351.117-.117-.351-.544Zm4.349,3.457.582.544C108.451,91.54,107.671,92.2,107.671,92.2Zm-.309-.233-.7-.389C107.476,90.763,107.362,91.967,107.362,91.967ZM105.654,91l.7.311C106.351,90.1,105.654,91,105.654,91Zm-.273-.04c-.078-.544-.387-.544-.387-.544-.351-.078-.39.5-.39.5l.778.04ZM100.217,96.9a19.222,19.222,0,0,1,7.068,0c.465.078.273.427.273.427a.717.717,0,0,1-.5.038,21.517,21.517,0,0,0-6.72.117c-.582.038-.465-.233-.465-.233.117-.427.349-.349.349-.349Zm3.766.894V102.8h3.224l.116-5.011Zm3.224,5.165h-3.224l.04,5.942a3,3,0,0,0,2.29-1.4c.078-.546.892-2.8.892-2.8v-1.747h0Zm-2.02,5.788v.582a6.108,6.108,0,0,0,1.554.7.3.3,0,0,0,.2-.429.986.986,0,0,0-.387-.192,2.717,2.717,0,0,1-1.362-.659Zm1.206-1.128.192.2-.7,1.011-.117-.273Zm.346.313-.657.93c1.008.66,1.59-.892,1.59-.892A1.338,1.338,0,0,1,106.738,107.93Zm.663-7.614v.933a5.992,5.992,0,0,1,.425,1.941l.313-.543a4.577,4.577,0,0,0-.738-2.332Zm-2.254,10.756v.429a3.5,3.5,0,0,0,1.125.465c.2-.078,0-.348,0-.348a2.459,2.459,0,0,1-1.125-.546Z" transform="translate(52.641 3.926)" fill="#3d5065" fill-rule="evenodd"/>
    <path id="Path_615" data-name="Path 615" d="M103.369,104.021l.2-.7c.66-.04.429-.778.429-.778.543-.156,1.162-1.165,1.162-1.165l.159.39.232.465c.114.232.192.351.156.351l-.351.309v-.2l-.66.582.232-1.281-.621,1.435a2.467,2.467,0,0,1-.932.582Zm.117.351c.543.816,2.332.816,2.332.816a1.365,1.365,0,0,0-.7-.66,1.506,1.506,0,0,1,1.476.387,1.446,1.446,0,0,0,.892.39,2.247,2.247,0,0,0-.387-.429.669.669,0,0,0,.465.036,3.292,3.292,0,0,0-1.048-.892c.816-.429,1.516.546,1.516.546a1.663,1.663,0,0,0,.66.621l-.235-.778c.235.7,1.165.9,1.165.9.117-.117,0-.351,0-.351-.27,0-.5-.387-.5-.387l-.037-.778c-.855-.117-.855-.582-.855-.582a.9.9,0,0,1,.738-.775l-.078-.9c.5-.465,1.476-.192,1.476-.192-.078-.546-.5-.39-.5-.39,0-.425-.5-.465-.5-.465v.117l-1.4,1.089c.2,1.086-.309,1.435-.309,1.435a1.252,1.252,0,0,1-1.668-.232l-.546.351a1.343,1.343,0,0,1,.855.5l-.078.078a2.206,2.206,0,0,0-.855-.429l-.465.192-.232.2-1.17.581Z" transform="translate(55.701 10.823)" fill="#3d5065" fill-rule="evenodd"/>
    <path id="Path_616" data-name="Path 616" d="M109.012,106.591a5.158,5.158,0,0,0,.621-1.633l.159.2-.232.738.156.156.27-.621.2.232-.309.5.232.192.309-.425.2.156-.429.429.192.27.351-.543.273.2-.465.465.192.156.468-.387.156.114-1.128.933A2.217,2.217,0,0,0,109.012,106.591Zm4,.93c.973-.232.159-.738.159-.738-.855-.309-.973-.156-.973-.156.313.117.273.309.273.309C112.9,106.979,113.012,107.521,113.012,107.521Zm.04.933.351-.855a1.459,1.459,0,0,1-.892.078,1.282,1.282,0,0,0-.819.078c-.348.2-.075.235-.075.235a2.649,2.649,0,0,0,1.435.465Zm1.125-.119.2.236.933-.313-.546.39,1.011.078-.465-.7-1.128.309Zm-2.795-17.164a1.544,1.544,0,0,0-.465-1.009c-.429-.271-.465-.038-.465-.038a.5.5,0,0,0,.27.465l.66.582Zm.892.543a1.579,1.579,0,0,0-.114-.465,4.443,4.443,0,0,0-.273-.427l-.5-.349a2.339,2.339,0,0,1,.2.7l.7.543Zm.04-.621a1.211,1.211,0,0,1,.2.7l.621.622a1.722,1.722,0,0,0-.31-1.009l-.5-.389v.078Zm-1.2,4.311a.572.572,0,0,1-.468.078c0,.389.7.389.7.389a.792.792,0,0,0,.5-.271v-.156a1.377,1.377,0,0,1-.5.2l-.232-.235Zm.852,2.679.078-.271c.738-.2.2-.738.2-.738.273-.116.351-.038.351-.038.348-.2.465.232.465.232.273-.232.465-.078.465-.078-.582.544.117.738.117.738a.45.45,0,0,0,.429-.349.831.831,0,0,1-.2-.271.947.947,0,0,1,.309.194.191.191,0,0,1,.2-.233.511.511,0,0,1,.078.349c.117-.116.351,0,.351,0-.351.389.114.738.114.738.546.309.468-.582.468-.582a.313.313,0,0,1,.348.349l.235-.194a1.361,1.361,0,0,1,.078.389.291.291,0,0,1,.387-.038c-.624.387-.2.738-.2.738a.285.285,0,0,0,.351.038l-.037-.271.5.078-.5.582A8.729,8.729,0,0,0,111.964,98.084Zm1.206-6.485.5.311a1.381,1.381,0,0,1-.309.621A2.115,2.115,0,0,0,113.171,91.6Zm2.4.311c1.051-.271,1.749,1.125,1.749,1.125l-.775-.309A7.415,7.415,0,0,0,115.575,91.91Zm1.051,1.048a2.6,2.6,0,0,1,.348.816,6.168,6.168,0,0,0,1.051.778,2,2,0,0,0-1.4-1.594Zm.5,1.282a1.571,1.571,0,0,1,.933,1.941,1.191,1.191,0,0,0-.543-.66A2.181,2.181,0,0,1,117.129,94.24Zm.235,1.514a3.536,3.536,0,0,1-.078.854,4.307,4.307,0,0,1,.348.932,4.287,4.287,0,0,0,.351-1.087A1.387,1.387,0,0,0,117.364,95.754ZM117.208,97a5.36,5.36,0,0,1-.546,1.2l.2.233.232.156A1.325,1.325,0,0,0,117.208,97Zm8,12.623-.348-1.321a.5.5,0,0,0-.7-.156.877.877,0,0,1-.778.114c-.465-.078-.078-.387-.078-.387a6.168,6.168,0,0,1,1.243-.582,3.946,3.946,0,0,0,1.321.156c.738-.114.582.5.582.5a8.267,8.267,0,0,1-.156,1.594,10.726,10.726,0,0,0-1.087.078Zm1.243.273.2.192-.582,1.048-.273-.156a2.961,2.961,0,0,0,.66-1.084Zm.349.27-.465,1.011a1.839,1.839,0,0,0,1.476-.429l-.117-.621a1.373,1.373,0,0,1-.894.038Zm1.749-.429a5.074,5.074,0,0,1,.582.2,3.094,3.094,0,0,0-.2-1.554c.66.232.66-.04.66-.04.2-.543-.465-.7-.465-.7a3.723,3.723,0,0,0-1.516-.273,1.271,1.271,0,0,1,.04.5,1.7,1.7,0,0,1,.037.387,1.29,1.29,0,0,1,.857,1.476ZM106.8,97.7v.31l.387-.271-.387.894-.038.544.621-1.322-.2-.349-.387.2Zm.117,1.67h.156l.814-.622.078-.156.192.429h-.114l-.738.582.114.311.2.194-.273.116-.425-.854Zm.7,1.709.117.465.192-.117.313-.114.27.192h.387l-.465-.311.351-.387-.156-.465-.078.192L108.2,101l-.465.116Zm.622,2.757c-.2.04-.117.156-.117.156.387.5.621.078.621.078a.6.6,0,0,0,.078-.387l-.114-.037c0,.465-.232.348-.232.348A.3.3,0,0,1,108.238,103.833Zm-.427.736-.078.506.154.273.078-.468.387.2-.2.387-.114.04.273.156.27-.624.117-.154h-.117l-.775-.387Zm-7.652,4.273a.326.326,0,0,1-.351.273l-.429-.5c-.273-.429-.036-.543-.036-.543l.543-.778a.714.714,0,0,1,.273.31l-.39.5c-.114.273.078.351.078.351Z" transform="translate(53.281 4.682)" fill="#3d5065" fill-rule="evenodd"/>
    <path id="Path_617" data-name="Path 617" d="M107.076,106.874c.156.66-.5.5-.5.5-.232.465.117.465.117.465a.766.766,0,0,0,.738-.5.524.524,0,0,0-.351-.465ZM118.57,96.118l-.465-.427a.819.819,0,0,0,.309-.7s.273-.038-.27-.038l-.2.116s-.2-.078-.232-.2l-.078-.465.351-.427.309.038a10.531,10.531,0,0,1,1.317-1.267l.159.179c-.2.427.037.543.037.543.309.2.429-.194.429-.194.309.156.2-.038.2-.038a1.718,1.718,0,0,1-.725-.567c.4-.34.725-.6.725-.6a1.5,1.5,0,0,1,.5-.622,2.921,2.921,0,0,1-.351-.854,1.178,1.178,0,0,1,1.125,1.009c2.992,2.37,1.128,6.1,1.128,6.1a9.141,9.141,0,0,0-2.914-1.2,2.484,2.484,0,0,1,.93-.894c1.284.04,1.089-1.514,1.089-1.514-.27-.544-.192.271-.192.271-.546,1.786-1.944.2-1.944.2-.156-.117,0,.271,0,.271.078.194.156.156.156.156l.117.116-.97.389c-.156.233-.429.622-.429.622h-.117v0ZM100.513,93.05A9.31,9.31,0,0,0,96.9,94.642c-.233.156-.271.116-.271.116-.389.7.427,1.009.427,1.009a2.846,2.846,0,0,0,.311,1.863,3.585,3.585,0,0,1,.427,1.516,1.113,1.113,0,0,0,.349-.622,2.072,2.072,0,0,0,1.321,1.592.941.941,0,0,1,.622.465,2.271,2.271,0,0,0,.078-.775,1.338,1.338,0,0,0,.582.775,5.713,5.713,0,0,1,.233-.892,2.079,2.079,0,0,0,.078-1.474.853.853,0,0,0,.5.349,2.019,2.019,0,0,1,0-1.282,1.85,1.85,0,0,0-.156-1.165l-.075-.281a3.555,3.555,0,0,0-.083,1.252,2.542,2.542,0,0,1-.389-.116,3.294,3.294,0,0,1-.349,1.63,2.008,2.008,0,0,0-.311.738,3.49,3.49,0,0,0-1.436-.776,4.831,4.831,0,0,1-.465-.7c-.156.271-.311.2-.311.2a3.433,3.433,0,0,0-.465-.855,2.047,2.047,0,0,1-.271-.932,8.137,8.137,0,0,0,.467.816c.271.157.271.7.271.7a.55.55,0,0,0,.271-.387,2.216,2.216,0,0,0,1.282,1.049,2.611,2.611,0,0,1,.582.427,1.57,1.57,0,0,1,.271-.892,1.988,1.988,0,0,0,.194-1.554.751.751,0,0,0,.544.427,2.142,2.142,0,0,1-.038-.66,4.916,4.916,0,0,0,.1-.876l-.1-.406a3.05,3.05,0,0,1-.271-.854.689.689,0,0,0-.314-1.011Zm-1.592,3.455a1.755,1.755,0,0,0,.738.582,1.588,1.588,0,0,0,.156-.892.747.747,0,0,1-.5-.078c-.117.427-.389.387-.389.387ZM97.405,94.8c.544.156.738-.078.738-.078a.455.455,0,0,1,.66.389.976.976,0,0,0,.117.465.867.867,0,0,0,.582-.156c.156-.2-.078-.389-.078-.389a2.727,2.727,0,0,0-.156-.427c0-.622.429-.582.429-.582a.554.554,0,0,0,.465-.233.7.7,0,0,1-.427.738.4.4,0,0,0-.2.429c.271.465.038.5.038.5a.436.436,0,0,1-.3.257A.409.409,0,0,0,99.7,96a.842.842,0,0,0,.427-.7c.194.543,0,.7,0,.7a.342.342,0,0,1-.117.5,1.328,1.328,0,0,1-.349.971c-1.321-.776-1.359-1.67-1.359-1.67.427.738.854.389.854.389.084-.086.067-.333.051-.463a1.1,1.1,0,0,1-.362,0,.771.771,0,0,1-.194-.543c-.2-.429-.311-.078-.311-.078a.585.585,0,0,1-.932-.314Zm-8.971,13.358c1.087.66,5.088.66,5.088.66a25.21,25.21,0,0,0,5.942-.5,4.13,4.13,0,0,0,1.243-.351c.156-.04.076.273.076.273a4.344,4.344,0,0,0-.038,1.786c0,.621-.66.582-.66.582a50.768,50.768,0,0,1-10.136.387c-1.321-.232-1.36-.933-1.36-.933a2.1,2.1,0,0,0-.116-1.708C88.317,108.236,88.435,108.155,88.435,108.155Zm1.243,2.293.117-.117v-1.125l-.078-.2c.854-.036,1.125.31,1.125.31a.729.729,0,0,1-.429,1.206,1.267,1.267,0,0,1-.736-.078Zm1.941-1.282.582.04c-.156.078-.116.31-.116.31l-.038,1.048.156.232-.622-.037c.156-.117.156-.2.156-.2v-1.125a.43.43,0,0,0-.117-.271Zm-1.436.04-.038,1.089a.44.44,0,0,0,.5-.313.653.653,0,0,0-.078-.465.481.481,0,0,0-.389-.311Zm2.641.078h1.125l.038.273a.866.866,0,0,0-.349-.081H93.4v.429h.117l.271-.078-.038.351-.194-.04h-.156v.468h.271a.425.425,0,0,0,.271-.117v.309l-.854-.037h-.233c-.038-.04,0-.04,0-.04a.271.271,0,0,0,.156-.078v-1.2c-.038-.079-.194-.157-.194-.157Zm1.747-.04.582.04a.645.645,0,0,0-.078.192v.778c.038.309.271.273.271.273.271-.04.233-.39.233-.39v-.775l-.078-.078h.427a.185.185,0,0,0-.038.114v.816a.626.626,0,0,1-.582.546.59.59,0,0,1-.582-.582V109.4a.533.533,0,0,0-.156-.156Zm2.835-.156.932-.078.116.273a1,1,0,0,0-.271-.04H97.95v.39h.232a.507.507,0,0,1,.117-.078l.038.348a.241.241,0,0,0-.156-.078H97.95v.429h.271c.078,0,.2-.117.2-.117v.273l-.894.117.078-.078-.038-1.243c0-.079-.157-.119-.157-.119Zm1.671-.156.038.309c.078-.156.349-.156.349-.156l.038,1.125-.078.081.465-.081-.078-.037-.038-1.125a.343.343,0,0,1,.349.037l-.038-.31-.04.037-.892.081h-.078v.038h0Zm2.251-1.243a.919.919,0,0,1-.078-.852.861.861,0,0,1,.894-.624c.387.232.351-.078.351-.078a.608.608,0,0,1,.852-.232.883.883,0,0,0,.5.309c.273.351.117.543.117.543a.476.476,0,0,0,.078.351.428.428,0,0,1,.309.468,2.737,2.737,0,0,1-.2,1.125.453.453,0,0,1-.5.037c-.2.04-.117.117-.117.117.2.309,0,.465,0,.465a.945.945,0,0,1-.738.313c-.621,0-.66-.313-.66-.313-.078-.27-.427-.27-.427-.27a.787.787,0,0,1-.544-.66.389.389,0,0,1,.156-.39c.2-.114,0-.309,0-.309Zm1.049.351a.718.718,0,0,1-.192.816c-.313.04-.351-.2-.351-.2a.259.259,0,0,0-.2-.27c-.116-.468.117-.468.117-.468a.633.633,0,0,1,.621.117Zm.738-.233c.078.387.624.7.624.7.27,0,.156-.387.156-.387-.156-.2-.078-.309-.078-.309.387-.078.114-.429.114-.429-.738-.194-.816.429-.816.429Zm-.543-.622c0-.738-.468-.7-.468-.7a.275.275,0,0,0-.232.27c.078.39-.078.39-.078.39-.349.078-.116.465-.116.465.116.156.194.117.194.117a1.183,1.183,0,0,0,.622-.2C102.686,107.5,102.571,107.185,102.571,107.185Zm.506-.816a.3.3,0,0,0,.31.2c.429,0,.156.429.156.429a.876.876,0,0,1-.543.348c-.429-.5-.39-.775-.39-.775C102.61,105.942,103.078,106.369,103.078,106.369Zm-.273,1.867a.648.648,0,0,1,.543.7c-.156.273-.309.156-.309.156-.2-.192-.309-.037-.309-.037,0,.348-.273.114-.273.114-.157-.816.349-.93.349-.93Z" transform="translate(46.907 5.019)" fill="#3d5065" fill-rule="evenodd"/>
    <path id="Path_618" data-name="Path 618" d="M99.438,109.559a.752.752,0,0,0,.582-.7.571.571,0,0,0,.133-.062,1.216,1.216,0,0,1,.527.608,1.723,1.723,0,0,1,.39.465c-.04-.5-.273-.624-.273-.624a1.7,1.7,0,0,0-.416-.648,1.716,1.716,0,0,0,.3-.943c.429-.156.816.387.816.387a.492.492,0,0,1-.309.04c.624.27.5,1.243.5,1.243a.551.551,0,0,1-.387-.117c.465.543,0,1.594,0,1.594a1,1,0,0,1-.546-.738c.078.387-.078.5-.078.5-.387-.078-.543-.582-.543-.582-.04.468-.273.273-.273.273-.114-.078-.114-.351-.114-.351-.194-.035-.313-.346-.313-.346Zm4.855-.427a2.693,2.693,0,0,1-.468-.152,4.4,4.4,0,0,1-.657,1.24,12.28,12.28,0,0,0,.546-1.289,3.857,3.857,0,0,1-.933-.614c-.04.583-.66.27-.66.27a.471.471,0,0,0,.27.741,1.069,1.069,0,0,0,.7-.313c.543-.114.156.313.156.313a1.45,1.45,0,0,1-.621.27.417.417,0,0,0-.273.66c.31.429.621.273.621.273.273.037.273.232.273.232.2.465.5.2.5.2a.712.712,0,0,0,.156-.778c-.2-.5-.078-.7-.078-.7-.117-.7.2-.2.2-.2a2,2,0,0,1,.156.429c.114.27.156.078.156.078Zm-6.057-3.343.232-.425a1.06,1.06,0,0,0-.5-.738.478.478,0,0,0,0,.348,2.229,2.229,0,0,0-.932-.582,1.379,1.379,0,0,0,0,.582,1.391,1.391,0,0,0-1.089-.7.864.864,0,0,0,.156.5,1.759,1.759,0,0,0-1.049-.2,2.118,2.118,0,0,0,.7,1.165l-.078.2c-.427-.313-.543-.078-.543-.078-.038.036,0,.114,0,.114a2.9,2.9,0,0,0,1.087.738.522.522,0,0,0-.311.273c.311.621,1.243.582,1.243.582a2.2,2.2,0,0,1,.024-1.292,6.594,6.594,0,0,1-.8-.573,4.36,4.36,0,0,0-.465-.465l-.544-.429a3.27,3.27,0,0,1,.738.39,8.4,8.4,0,0,0,1.2.852,1.157,1.157,0,0,1,.936-.271Zm15.846,2.022a7.644,7.644,0,0,1,.075,2.254c4.352,1.668,11.807.657,11.807.657,1.243-.156,1.284-.348,1.284-.348.465-.04.387-.738.387-.738a5.816,5.816,0,0,1-.429-1.749c-1.011.582-6.717.738-6.717.738C115.868,108.745,114.082,107.812,114.082,107.812Zm.543.582.429.078.232.855.465-.66.387.036-.036.117v1.243l.078.156-.543-.078.078-.117v-.66l-.5.66-.351-.816v.738l-.309-.156.037-.078.04-1.128Zm2.059.582a.925.925,0,0,0,0,1.321.761.761,0,0,0,.892,0,.926.926,0,0,0-.04-1.321C116.953,108.667,116.684,108.977,116.684,108.977Zm.427.038c-.66.313-.2,1.011-.2,1.011.156.351.387.078.387.078.313-.309.078-.816.078-.816C117.3,108.937,117.111,109.015,117.111,109.015Zm1.008-.078h.313l.5.7-.04-.546-.04-.114.5.037-.078.117v1.321l.04.114h-.273l-.543-.816v.546l.036.156-.387-.04.037-.192.04-1.128Zm2.449.078h.543c.582,0,.7.778.7.778a.772.772,0,0,1-.819.816l-.425-.04.156-.114-.04-1.321-.114-.119Zm.465.2v1.243a.692.692,0,0,0,.387-.778C121.305,109.21,121.032,109.21,121.032,109.21Zm1.048-.2.232-.037a1.083,1.083,0,0,1,.7-.04.566.566,0,0,1-.04.816l.351.546a.257.257,0,0,1,.156.114.344.344,0,0,1-.309,0,1.019,1.019,0,0,1-.429-.543h-.192v.582l.037.114H122.2l.036-.114-.036-1.36-.117-.079Zm.468.7v-.624a.163.163,0,0,1,.27.04.4.4,0,0,1,0,.5c-.078.116-.27.079-.27.079Zm1.708-.97c.738-.04.738.93.738.93a.8.8,0,0,1-.778.778c-.66-.078-.7-.892-.7-.892.114-.894.736-.816.736-.816Zm0,.232c.387.036.351.621.351.621a.586.586,0,0,1-.351.66c-.2.04-.273-.232-.273-.232-.232-.738.078-.97.078-.97.041-.079.2-.079.2-.079Zm.97-.273.543-.036-.078.156.04,1.357.078.078-.465.04.037-.078-.037-1.4-.117-.117Zm.933-.117.037.39.117-.117.2-.037v1.243l-.04.114.387-.078-.036-.117V108.7h.27l-.036-.309-.078.037-.7.156h-.116Zm-15.883-1.744a2.094,2.094,0,0,0,.046.279.521.521,0,0,1,.052-.029c.124-.344.056-.484.056-.484l.114-.081a.976.976,0,0,1-.04.511.808.808,0,0,1,.325-.033,1.778,1.778,0,0,0,.065-.556l-.559-.068A.666.666,0,0,0,110.276,106.842Zm.1.456a1.814,1.814,0,0,0,.416.7c.179-.136.14-.66.117-.855a.736.736,0,0,0-.533.152Zm.5.79a2.072,2.072,0,0,0,.527.351,1.333,1.333,0,0,0,.087-.632,1.935,1.935,0,0,0-.549.1A1.254,1.254,0,0,1,110.875,108.088Zm.654.4a1.424,1.424,0,0,0,.183.059,1.131,1.131,0,0,0,.344,0l-.029-.354a1.1,1.1,0,0,0-.446.162l-.052.133Zm.651.027a.582.582,0,0,0,.375-.456.687.687,0,0,0-.368-.032Zm.387-.611a1.739,1.739,0,0,0-.413-1.154,1.6,1.6,0,0,1,.065.7l.192-.071.037.117-.27.033a1.3,1.3,0,0,1-.01.381.566.566,0,0,1,.4-.006Zm-.511-1.255a1.8,1.8,0,0,0-.494-.319.815.815,0,0,1,.114.478A.8.8,0,0,1,112.055,106.651Zm-.719-.4a2.222,2.222,0,0,0-.555-.1.626.626,0,0,0-.368.152l.57.04Zm-.335.222a.342.342,0,1,0,.559.394.914.914,0,0,0-.114-.481Zm.706.53a.825.825,0,0,1-.022.533.6.6,0,0,1,.419-.068,1.085,1.085,0,0,0-.081-.6.463.463,0,0,0-.316.13Zm-.075.7a1.059,1.059,0,0,1-.013.533.589.589,0,0,1,.43-.224.9.9,0,0,0,.056-.394A1.444,1.444,0,0,0,111.633,107.694Zm-.059-.627a.851.851,0,0,0-.589.04,2.066,2.066,0,0,1-.01.644.967.967,0,0,1,.559-.1,1.059,1.059,0,0,0,.04-.579ZM101.964,95.3l-.66-2.1.348-.932.39,1.514-.351-.156a.771.771,0,0,0,1.243.582c.429-.465.037-.621.037-.621-.5-.273-.582.038-.582.038-.348-1.321.546-.816.546-.816-.04-.855.309-.932.309-.932.465.156.465.894.465.894.5-.816.819.038.819.038a.793.793,0,0,1-.04.349.49.49,0,0,0-.7.429c-.081.427.7.543.7.543a1.366,1.366,0,0,0,.933-1.282,2.182,2.182,0,0,0-.738.465V91.575a1.813,1.813,0,0,0,.816.66,2.279,2.279,0,0,0-.546-1.2l1.633-.038a1.707,1.707,0,0,0-.5,1.243,1.064,1.064,0,0,0,.7-.543l.04,1.514c-.351-.543-.7-.309-.7-.309a.941.941,0,0,0,.855,1.2.666.666,0,0,0,.738-.582c-.156-.7-.624-.311-.624-.311-.192-1.165.66-.66.66-.66-.309-.776.232-1.049.232-1.049a.807.807,0,0,1,.351,1.049c.9-.465.738.66.738.66-.852-.389-.738.5-.738.5.39.932,1.165.232,1.165.232a1.331,1.331,0,0,0,.2-.465l-.351.078.351-1.2.309.622.232-.66.2.232L109.3,95.383a21.449,21.449,0,0,0-7.334-.078Zm5.785-.543c-.192-.038-.387-.117-.348-.2,0-.116.156-.156.387-.116.192.038.387.116.351.194C108.14,94.762,107.981,94.8,107.749,94.762Zm-4.195.038c.2-.038.351-.116.351-.232,0-.078-.2-.116-.387-.078-.232,0-.387.116-.387.194S103.323,94.84,103.555,94.8Zm2.136-.776.546.467-.546.349-.5-.349Zm7.3,6.1a3.671,3.671,0,0,1,.348-1.163l-.452-.486-.156.279a.437.437,0,0,1-.108.719l-.037.165.4.486Zm-.229-1.781-1.132-1.208c-.775-1.127-1.321-.582-1.321-.582l-.543.2a2.073,2.073,0,0,1,.66.738c.465-.078.5.156.5.156l1.2,1.455v-.019a.4.4,0,0,1,.351-.427.311.311,0,0,1,.13.029l.146-.336Z" transform="translate(50.816 5.248)" fill="#3d5065" fill-rule="evenodd"/>
    <path id="Path_619" data-name="Path 619" d="M105.42,95.69c-.273-.31-.465-.543-.582-.427a10.676,10.676,0,0,1,.621,1.474,5.078,5.078,0,0,1,.313,1.863l.579.04.152.019-.052-.3a.411.411,0,0,1-.292-.419c0-.273.156-.468.351-.468a.108.108,0,0,1,.032,0l.071-.335c-.1-.114-.2-.238-.3-.365-.156-.2-.351-.39-.5-.584-.116-.192-.275-.348-.389-.5Zm1.24,2.989.624.081a1.293,1.293,0,0,1-.078-.9l-.413-.5-.046.211a.5.5,0,0,1,.149.365.44.44,0,0,1-.267.4l.03.333Z" transform="translate(56.564 7.737)" fill="#3d5065" fill-rule="evenodd"/>
    <path id="Path_620" data-name="Path 620" d="M103.467,103.588c.273.387,1.089.273,1.089.273.117-.078.078-.543.078-.543a.884.884,0,0,1-.037-.429c.192.036.232.27.232.27a4.052,4.052,0,0,1-.117.468c.855-.546.117-1.594.117-1.594a2.806,2.806,0,0,1,.465-1.357c.892-.778,1.36-.5,1.36-.5a8.688,8.688,0,0,1,2.059.429c.5.156,2.29.465,2.29.465a.617.617,0,0,1,.156-.309c.5-.351.852-2.02.852-2.02,0-.27.117-.156.117-.156a.9.9,0,0,1,.04.429,4.209,4.209,0,0,1-.39,1.63,5.354,5.354,0,0,0,2.527.429,4.084,4.084,0,0,0,2.017-.582,5.559,5.559,0,0,1,2.368-.351l-.036-.232c-.97-.429-.309-.933-.309-.933l-.39-.543a21.532,21.532,0,0,1-4.309-1.786c-2.8-1.554-4.271-1.282-4.271-1.282a4.942,4.942,0,0,0-1.011,3.419l.7.078a2.993,2.993,0,0,1,.855-2.254c.273-.116.078.2.078.2a2.824,2.824,0,0,0-.582,2.446,19.872,19.872,0,0,0-2.992-.309,1.555,1.555,0,0,0-1.24.192,2.409,2.409,0,0,0-.66,1.011l-.5,1.749a5.339,5.339,0,0,0-.546,1.7ZM114.3,99.044a6.737,6.737,0,0,1-.66,1.711c.078.27.387-.156.387-.156a4.843,4.843,0,0,0,.465-1.479C114.418,98.465,114.3,99.044,114.3,99.044ZM113.02,98.5a4.86,4.86,0,0,1-.775,1.981c-.117.309.232.078.232.078a5.207,5.207,0,0,0,.66-1.981c-.04-.351-.117-.078-.117-.078Zm.624.351a3.7,3.7,0,0,1-.738,1.708c-.156.273.192.117.192.117a3.354,3.354,0,0,0,.738-1.867C113.758,98.384,113.644,98.852,113.644,98.852Zm4.271,1.59a1.746,1.746,0,0,1,.855-.071l.084.416a.519.519,0,0,0-.279.475.474.474,0,0,0,.429.5h.036v.6a7.7,7.7,0,0,1-1.281.292c-.66.156-.2.543-.2.543a1.392,1.392,0,0,1,.429.582c.309.351-.2.621-.2.621a5.794,5.794,0,0,0-2.214,1.243,13.343,13.343,0,0,1-2.017-.037,2.3,2.3,0,0,1-.546-.778.558.558,0,0,1,.816.078,2.116,2.116,0,0,0,1.011.117c.582-.31,1.438-.7,1.438-.7a.587.587,0,0,1,.387-.078c.232-.078-.04-.273-.04-.273a5.317,5.317,0,0,1-1.048-.97c-.31-.5,0-.738,0-.738a19.908,19.908,0,0,1,2.33-1.828Zm1.1,0a1.3,1.3,0,0,1,.614.5c.232.5.156.624.156.624a.885.885,0,0,0,0,.465,3.131,3.131,0,0,1-.543.263v-.621a.54.54,0,0,0,.192-.419.484.484,0,0,0-.4-.5Z" transform="translate(55.759 7.8)" fill="#3d5065" fill-rule="evenodd"/>
    <path id="Path_621" data-name="Path 621" d="M138.727,100.684a4.847,4.847,0,0,0,.04-1.708c-.273-.582-.546-.7-.546-.7,0-1.668-1.008-1.9-1.008-1.9a2.275,2.275,0,0,0,.192.738c.078.156-.192-.04-.192-.04a1.1,1.1,0,0,0-.546-.816,2.072,2.072,0,0,1-.582-.5c-.429.7.7,1.438.7,1.438a26.068,26.068,0,0,0-4.777.543,4.654,4.654,0,0,1-3.341-.232,1.318,1.318,0,0,1-.775-1.709,1.969,1.969,0,0,1,1.863-1.049,6.931,6.931,0,0,1,1.867.311,8.032,8.032,0,0,0,3.844-.078,2.638,2.638,0,0,0,1.281-1.436,2.281,2.281,0,0,1-1.4.349,4.8,4.8,0,0,1-2.136.544c1.089-.427,1.051-.855,1.051-.855a1.847,1.847,0,0,1,.5-.622,4.046,4.046,0,0,0-1.435.738,3.765,3.765,0,0,1-1.671.351,1.032,1.032,0,0,1-.543-.038c.775-.233.816-.544.816-.544a4.427,4.427,0,0,0-3.419.622,2.4,2.4,0,0,0-1.086,2.563c.27,1.243,2.482,1.63,2.482,1.63a26.973,26.973,0,0,0,4.508-.232,4.747,4.747,0,0,1,2.368.04c.232.156,0,.192,0,.192-1.128-.156-1.476,1.165-1.476,1.165a2.015,2.015,0,0,1,1.825-.621c.192.036,0,.078,0,.078a1.232,1.232,0,0,0-.933.273,1.558,1.558,0,0,0,1.281.27.8.8,0,0,0,.468-.387,1.55,1.55,0,0,1,.232,1.63,1.722,1.722,0,0,1-.778.66,5.8,5.8,0,0,1-2.719-.309,3.265,3.265,0,0,0-1.281-.2c-.117-.037-.31-.114-.465-.156a30.394,30.394,0,0,0-3.341-.66l.2.273c.31.078.465.232.5.387a.518.518,0,0,1-.04.309.965.965,0,0,1-.2.309l.159.313a1.286,1.286,0,0,1,1.008,1.476,1.917,1.917,0,0,0,.7,1.357,3.584,3.584,0,0,0,2.679.97c.468,0,.546.117.546.117.465.273.387,1.516.387,1.516a3.128,3.128,0,0,1-.232,1.048c.156.387.93.2.93.2a.3.3,0,0,0,.159-.2.55.55,0,0,0-.117-.465c-.078-.117,0-.078,0-.078a.867.867,0,0,1,.465.816,1.065,1.065,0,0,0-.309-1.633c-.156-.037-.273-.078-.273-.078a11.587,11.587,0,0,1-.156-1.513v-.273l-.387-.429a2.884,2.884,0,0,1-1.863-.114,3.818,3.818,0,0,0,.037-.5,15.125,15.125,0,0,0-.156-2.409,17.906,17.906,0,0,0,2.1.465,3.692,3.692,0,0,0,1.281.159c1.011.232.7.93.7.93.816-.66.114-1.125.114-1.125a1.449,1.449,0,0,0,.9-1.165Zm-54.252.387a2.547,2.547,0,0,1,.194-1.863,4.646,4.646,0,0,1,2.408-1.981A2.4,2.4,0,0,1,88.941,96.1a2.593,2.593,0,0,1-.429.582,3.341,3.341,0,0,0,1.321-.738,1.409,1.409,0,0,1-.816,1.243,35.619,35.619,0,0,0,7.068-.078,1.785,1.785,0,0,0,1.592-1.825c-.349-1.4-2.1-.582-2.1-.582-3.69,2.136-5.476-.7-5.476-.7a9.667,9.667,0,0,0,2.641.349,5.744,5.744,0,0,1-1.514-1.243,1.685,1.685,0,0,1,.816.311,3.772,3.772,0,0,0,1.981.389c-.311-.349-.816-.932-.816-.932a3.48,3.48,0,0,0,1.243.271c.389.038.7.078.7.078a2.261,2.261,0,0,0,1.009,0,2.41,2.41,0,0,1,2.214,2.019c.194,2.33-2.485,2.524-2.485,2.524A60.138,60.138,0,0,1,88.783,98a1.415,1.415,0,0,1,.778.854,2.23,2.23,0,0,0,.271.468c-.622.037-1.243-.778-1.243-.778a6.487,6.487,0,0,0,.7.97c-.349.156-1.087-.738-1.087-.738a1.587,1.587,0,0,0-2.174.04c-1.089.852-.894,1.59-.894,1.59a.873.873,0,0,0,.271.66,1.344,1.344,0,0,0,1.087.39,7.138,7.138,0,0,0,2.1-.39,6.3,6.3,0,0,0,1.2-.465,1.57,1.57,0,0,1,.349.04,1.54,1.54,0,0,1,.855-.2,45.832,45.832,0,0,0,6.6-1.944,10.112,10.112,0,0,0,1.865-1.552c.427.271.7,1.282.7,1.282a.724.724,0,0,0,.271-.351c.233.854,1.4,1.321,1.4,1.321a1.08,1.08,0,0,1,.622.387l.116-.351a16.858,16.858,0,0,0,2.525,1.825q1.227.84,2.486,1.633c1.048-1.165,1.786-.468,1.786-.468a.416.416,0,0,1-.351.117,1.286,1.286,0,0,0-.892.27c1.284-.192,1.516.235,1.516.235.27.621-.624.93-.624.93a.77.77,0,0,0-.816-.816,1.073,1.073,0,0,1,.583.892c-.273.738-.933.159-.933.159a3.8,3.8,0,0,1-.582-.429,8.321,8.321,0,0,1-3.727-1.438l-.971.429a4.173,4.173,0,0,1-1.243-1.516c-.116-.192-.194-.348-.194-.348v.348a2.97,2.97,0,0,0,.465,1.011c-1.67,1.9-4.66.2-4.66.2-.349-.117-1.438-.7-1.438-.7a5.34,5.34,0,0,0-4.544,2.758l-.233.387c-.232,1.749-.776,1.749-.776,1.749a.751.751,0,0,0-.387-.97,11.454,11.454,0,0,1-1.554.036,2.111,2.111,0,0,0-.117,2.136c1.359-.036.776,1.048.776,1.048a.475.475,0,0,1-.427.351.929.929,0,0,0-1.009-1.048c.892.351.7.892.7.892-.232-.04-.465.351-.465.351a2.547,2.547,0,0,1-1.125-2.368c.156-2.681.738-3.187.738-3.187.2-.078.271.04.271.04a2.2,2.2,0,0,0,1.359.037c.311-.078.389-.7.389-.7a4.611,4.611,0,0,1,.932-1.944c-.5.235-3.339.973-3.339.973a2.309,2.309,0,0,0-1.67,1.435c-.854-1.048.5-1.63.5-1.63a1.339,1.339,0,0,1-1.046-.851Zm15.184-.892a7.065,7.065,0,0,0,1.4,1.594,2.024,2.024,0,0,0,.311.232.477.477,0,0,1-.271.078,4.569,4.569,0,0,1-1.476-1.554c-.2-.387.038-.349.038-.349Zm-1.282.814a6.613,6.613,0,0,0,.738.816,2.852,2.852,0,0,0,.894.7,2.189,2.189,0,0,1-1.632-1.125c-.156-.313-.116-.429-.116-.429l.116.038Zm.66-.5a4.3,4.3,0,0,0,1.436,1.555c.271.078.2.27.2.27-.233.04-.311-.078-.311-.078a2.454,2.454,0,0,1-1.4-1.513c-.2-.427.076-.235.076-.235Z" transform="translate(44.538 6.355)" fill="#3d5065" fill-rule="evenodd"/>
  </g>
</svg>
