<svg xmlns="http://www.w3.org/2000/svg" width="93.841" height="62.71" viewBox="0 0 93.841 62.71">
  <g id="Group_641" data-name="Group 641" transform="translate(-242.457 -192.134)">
    <path id="Path_793" data-name="Path 793" d="M248.65,212.263c0,1.01.337,1.346,1.346,1.346h.707a1.046,1.046,0,0,1,0,2.087h-7.271a1.046,1.046,0,0,1,0-2.087h.37c1.01,0,1.346-.337,1.346-1.346v-16.83c0-.875-.336-1.212-1.346-1.212h-.37a1.046,1.046,0,0,1,0-2.087h9.021c4.746,0,7.978,2.828,7.978,7s-3.232,7.237-7.978,7.237h-1.548c-.606,0-.976-.3-.976-1.043a.908.908,0,0,1,.976-1.043h.909c3.7,0,4.982-2.625,4.982-5.15s-1.279-4.914-5.318-4.914H250c-1.01,0-1.346.337-1.346,1.347Z" transform="translate(0)" fill="#3d5065"/>
    <path id="Path_794" data-name="Path 794" d="M333.318,232.205a6.461,6.461,0,0,1-5.621,3.164c-3.366,0-6.093-1.885-6.093-5.891v-8.112a1.054,1.054,0,0,0-1.178-1.145h-.034a1.046,1.046,0,0,1,0-2.087h3.77a.673.673,0,0,1,.74.741v10.266c0,2.356.841,4.005,3.265,4.005,2.693,0,4.914-2.659,4.914-6.53v-5.251a1.054,1.054,0,0,0-1.178-1.145h-.033a1.046,1.046,0,0,1,0-2.087h3.77a.674.674,0,0,1,.741.741V231.6c0,.74.27,1.279.875,1.313h.337c.606-.034.976.3.976,1.009a.908.908,0,0,1-.976,1.044h-3.3a.727.727,0,0,1-.774-.707Z" transform="translate(-57.033 -19.269)" fill="#3d5065"/>
    <path id="Path_795" data-name="Path 795" d="M411.479,221.033c-.942-.841-1.414-1.347-2.592-1.347-2.087,0-3.164,1.582-3.164,4.511v6.766a1.1,1.1,0,0,0,1.144,1.144c.539,0,.841.337.841,1.043s-.37,1.044-.976,1.044h-5.352a.908.908,0,0,1-.976-1.044c0-.707.3-1.043.875-1.043a1.1,1.1,0,0,0,1.144-1.144V220.6a1.1,1.1,0,0,0-1.144-1.145c-.539,0-.875-.336-.875-1.043a.908.908,0,0,1,.976-1.044h3.3a.727.727,0,0,1,.774.707l.1,1.111a4.651,4.651,0,0,1,4.107-2.087,4.874,4.874,0,0,1,3.7,1.448C414.542,219.788,412.758,222.178,411.479,221.033Z" transform="translate(-117.053 -18.498)" fill="#3d5065"/>
    <path id="Path_796" data-name="Path 796" d="M474.474,214.619c0,.741-.37,1.077-.976,1.077h-3.433a.69.69,0,0,1-.774-.707l-.134-1.818a6.932,6.932,0,0,1-5.992,2.929c-3.669,0-7.641-2.625-7.641-8.718,0-5.52,3.972-8.785,7.776-8.785a7.184,7.184,0,0,1,5.688,2.558v-5.79a1.054,1.054,0,0,0-1.178-1.145h-.034a1.046,1.046,0,0,1,0-2.087h3.77a.674.674,0,0,1,.741.74V212.2a1.244,1.244,0,0,0,1.212,1.414C474.171,213.609,474.474,213.912,474.474,214.619Zm-5.419-7.237c0-3.77-2.087-6.563-5.116-6.563-3.467,0-4.982,2.794-4.982,6.563,0,3.7,1.515,6.5,4.982,6.5C466.968,213.878,469.054,211.085,469.054,207.382Z" transform="translate(-157.9)" fill="#3d5065"/>
    <path id="Path_797" data-name="Path 797" d="M545.969,218.135c.606,0,.976.337.976,1.044s-.3,1.043-.841,1.043a1.274,1.274,0,0,0-1.245.875l-7.372,16.493c-1.077,2.424-3.1,4.645-6.059,4.645a6.2,6.2,0,0,1-4.376-1.616c-1.144-1.313.74-3.534,2.087-2.255.707.64,1.414,1.548,2.659,1.548,2.188,0,3.231-1.952,4.813-5.419l-6.564-13.6a1.137,1.137,0,0,0-1.01-.673c-.572,0-.909-.336-.909-1.043s.37-1.044.976-1.044h5.352a.908.908,0,0,1,.976,1.044c0,.707-.269,1.043-.808,1.043s-.774.269-.774.673a1.756,1.756,0,0,0,.2.74l4.275,8.92,3.9-8.92a2.319,2.319,0,0,0,.236-.808c0-.37-.236-.606-.808-.606-.606,0-.942-.336-.942-1.043a.908.908,0,0,1,.976-1.044Z" transform="translate(-210.647 -19.269)" fill="#3d5065"/>
    <path id="Path_798" data-name="Path 798" d="M265,333.093a4.005,4.005,0,0,1-3.467,1.851,3.415,3.415,0,0,1-3.635-3.7,7.481,7.481,0,0,1-6.833,3.7c-4.106,0-7.3-2.524-7.3-6.53a6.921,6.921,0,0,1,5.015-6.9,4.969,4.969,0,0,1-4.006-4.847c0-3.77,3.4-6.092,6.968-6.092,2.255,0,4.174.572,5.15,1.616,1.077,1.246-.707,3.366-2.053,2.188-.942-.841-1.75-1.649-3.232-1.649a3.368,3.368,0,0,0-3.534,3.7c0,2.491,1.75,3.736,4.578,3.736h.606c.606,0,.942.337.942,1.077s-.337,1.077-.942,1.077a5.784,5.784,0,0,0-6.025,5.689c0,2.929,1.649,4.78,4.443,4.78,3.164,0,6.092-2.76,6.092-9.122v-1.38h-1.346c-.606,0-.942-.37-.942-1.077,0-.673.337-1.01.942-1.01h1.515l.841-3.2a.656.656,0,0,1,.673-.539h1.01a.566.566,0,0,1,.606.606V320.2h2.39c.606,0,.942.3.942,1.01,0,.74-.337,1.077-.942,1.077h-2.39v9.256c0,.808.37,1.279,1.043,1.279a1.833,1.833,0,0,0,1.414-.875c.37-.471.707-.64,1.178-.4C265.367,331.881,265.3,332.487,265,333.093Z" transform="translate(-0.963 -87.774)" fill="#3d5065"/>
    <path id="Path_799" data-name="Path 799" d="M362.008,332.264c0,1.01.337,1.346,1.346,1.346h.37a1.046,1.046,0,0,1,0,2.087h-6.934a1.046,1.046,0,0,1,0-2.087h.37c1.01,0,1.346-.337,1.346-1.346v-16.7c0-1.01-.337-1.347-1.346-1.347h-.37a1.046,1.046,0,0,1,0-2.087H371.4a.664.664,0,0,1,.741.707l.269,4.241c.034.4-.269.64-.774.64s-.808-.269-1.01-.841a3.615,3.615,0,0,0-3.433-2.659h-3.837c-1.01,0-1.346.337-1.346,1.347Zm2.221-6.968c-.606,0-.942-.337-.942-1.043s.337-1.043.942-1.043h2.861a.853.853,0,0,0,.976-.909.9.9,0,0,1,1.01-.976.908.908,0,0,1,1.043.976v3.9a.908.908,0,0,1-1.043.976.9.9,0,0,1-1.01-.976c0-.64-.3-.909-.976-.909Z" transform="translate(-84.008 -88.931)" fill="#3d5065"/>
    <path id="Path_800" data-name="Path 800" d="M431.5,317.71a.674.674,0,0,1,.741.74v12.858a1.1,1.1,0,0,0,1.144,1.144c.539,0,.841.337.841,1.043a.908.908,0,0,1-.976,1.044H427.9a.908.908,0,0,1-.976-1.044c0-.707.3-1.043.875-1.043a1.1,1.1,0,0,0,1.144-1.144V320.941A1.1,1.1,0,0,0,427.8,319.8c-.539,0-.875-.336-.875-1.043a.908.908,0,0,1,.976-1.043Zm-3.063-4.982a2.171,2.171,0,1,1,2.188,2.188A2.177,2.177,0,0,1,428.439,312.728Z" transform="translate(-136.706 -87.774)" fill="#3d5065"/>
    <path id="Path_801" data-name="Path 801" d="M479.809,339.216h-2.154a6,6,0,0,1,1.616,4.174c0,3.467-2.693,6.294-7.1,6.294a8.791,8.791,0,0,1-3.736-.741,1.422,1.422,0,0,0-1.01,1.346c0,.875.673,1.145,2.188,1.145h3.8c4.073,0,7.069,1.649,7.069,5.352,0,3.635-3.366,5.487-7.91,5.487-4.914,0-8.045-2.053-8.045-4.746,0-1.178.471-2.221,1.683-2.221,1.077,0,1.279.707,1.414,1.717.236,2.019,1.582,3.13,4.948,3.13,2.693,0,4.612-.808,4.612-2.861,0-1.952-1.448-2.693-4.275-2.693H468.8c-3,0-4.309-1.245-4.309-3.3a3.994,3.994,0,0,1,2.255-3.534,6.186,6.186,0,0,1-1.683-4.376c0-3.5,2.356-6.294,7.1-6.294h7.641a.916.916,0,0,1,1.009,1.043A.942.942,0,0,1,479.809,339.216Zm-7.641,0c-1.75,0-3.871.943-3.871,4.174s2.121,4.174,3.871,4.174c1.717,0,3.871-.942,3.871-4.174S473.884,339.216,472.167,339.216Z" transform="translate(-164.548 -107.429)" fill="#3d5065"/>
    <path id="Path_802" data-name="Path 802" d="M550.4,339.216h-2.154a6,6,0,0,1,1.616,4.174c0,3.467-2.693,6.294-7.1,6.294a8.79,8.79,0,0,1-3.736-.741,1.422,1.422,0,0,0-1.01,1.346c0,.875.673,1.145,2.188,1.145H544c4.073,0,7.069,1.649,7.069,5.352,0,3.635-3.366,5.487-7.91,5.487-4.914,0-8.045-2.053-8.045-4.746,0-1.178.471-2.221,1.683-2.221,1.077,0,1.279.707,1.414,1.717.236,2.019,1.582,3.13,4.948,3.13,2.693,0,4.612-.808,4.612-2.861,0-1.952-1.448-2.693-4.275-2.693h-4.106c-3,0-4.309-1.245-4.309-3.3a3.994,3.994,0,0,1,2.255-3.534,6.186,6.186,0,0,1-1.683-4.376c0-3.5,2.356-6.294,7.1-6.294H550.4a.917.917,0,0,1,1.01,1.043A.942.942,0,0,1,550.4,339.216Zm-7.641,0c-1.75,0-3.871.943-3.871,4.174s2.121,4.174,3.871,4.174c1.717,0,3.871-.942,3.871-4.174S544.474,339.216,542.757,339.216Z" transform="translate(-216.861 -107.429)" fill="#3d5065"/>
  </g>
</svg>
