<svg id="Group_107" data-name="Group 107" xmlns="http://www.w3.org/2000/svg" xmlns:xlink="http://www.w3.org/1999/xlink" width="162.341" height="61.249" viewBox="0 0 162.341 61.249">
  <defs>
    <clipPath id="clip-path">
      <rect id="Rectangle_1706" data-name="Rectangle 1706" width="162.341" height="61.249" fill="#3d5065"/>
    </clipPath>
  </defs>
  <g id="Group_144" data-name="Group 144" clip-path="url(#clip-path)">
    <path id="Path_593" data-name="Path 593" d="M142.109,16.192a29.265,29.265,0,0,1,1.408-8.655,11.357,11.357,0,0,1,2.877-4.767A7,7,0,0,1,150.876.852a7.644,7.644,0,0,1,6.088,2.191,11.542,11.542,0,0,1,2.59,4.039,22.172,22.172,0,0,1,1.5,6.341c.13,1.413.193,2.828.282,4.243a47,47,0,0,1-.939,9.059,16.939,16.939,0,0,1-2.106,5.478,7.258,7.258,0,0,1-4.875,3.565,7.879,7.879,0,0,1-8.862-4.218,18.742,18.742,0,0,1-1.881-5.807,46.328,46.328,0,0,1-.563-9.55m-5.767,9.2a16.989,16.989,0,0,0,5.2,7.718,15.644,15.644,0,0,0,13.288,3.368,15.179,15.179,0,0,0,11.508-8.987,22.07,22.07,0,0,0,1.8-11.223,18.826,18.826,0,0,0-2.37-7.949A15.6,15.6,0,0,0,154.518.26c-.632-.114-1.269-.177-1.9-.26h-2.289c-.767.105-1.534.184-2.292.332a14.338,14.338,0,0,0-8.595,5.229,19.578,19.578,0,0,0-4.276,11.429,21.352,21.352,0,0,0,1.179,8.406" transform="translate(-96.341)" fill="#3d5065"/>
    <path id="Path_594" data-name="Path 594" d="M371.36,11.608a8.819,8.819,0,0,0,3.888,6.444,16.735,16.735,0,0,0,4.3,2.128c2.164.729,4.359,1.381,6.532,2.09a15.548,15.548,0,0,1,4.4,2.058,5.289,5.289,0,0,1,2.345,4.106,6.738,6.738,0,0,1-4.038,6.693,10.147,10.147,0,0,1-5.281.731,11,11,0,0,1-6.976-3.552,18.1,18.1,0,0,1-4.294-7.96c-.3-1.114-.5-2.26-.745-3.4h-.666V36.034h.783c.036-.22.056-.408.1-.59.278-1.3,1.04-2.449,2.928-2a11.6,11.6,0,0,1,2.928,1.283,14.564,14.564,0,0,0,8.063,2.022,11.652,11.652,0,0,0,5.516-1.538,11.035,11.035,0,0,0,5.5-9.445,8.728,8.728,0,0,0-3.6-7.718,16.865,16.865,0,0,0-4.61-2.451c-2.292-.814-4.6-1.554-6.9-2.339a17.462,17.462,0,0,1-4.462-2.085,4.894,4.894,0,0,1-2.334-4.215A6.12,6.12,0,0,1,379.015,1.2a9.7,9.7,0,0,1,6.583.435,11.816,11.816,0,0,1,5.991,5.648,19.28,19.28,0,0,1,1.962,5.922c.029.177.083.26.267.247.166-.009.339,0,.507,0V.708a2.061,2.061,0,0,1-.354,0c-.318-.047-.406.1-.419.406a3.412,3.412,0,0,1-.164.908A1.546,1.546,0,0,1,391.262,3.2a23.724,23.724,0,0,1-2.736-1.236A17.938,17.938,0,0,0,384.17.3c-.594-.126-1.2-.2-1.8-.3h-1.9c-.285.045-.576.083-.863.134a9.475,9.475,0,0,0-6.518,4.016,10.451,10.451,0,0,0-1.731,7.458" transform="translate(-264.395)" fill="#3d5065"/>
    <path id="Path_595" data-name="Path 595" d="M10.36,153.933a4.252,4.252,0,0,1-4.608-1.749,8.47,8.47,0,0,1-1.879-5.9,3.213,3.213,0,0,1,1.821-2.812,98.857,98.857,0,0,0,6.893,9.341,4.663,4.663,0,0,1-2.227,1.119m-3.146-19.2a2.222,2.222,0,0,1,2.013-1.455,2.4,2.4,0,0,1,2.424,1.3,4.8,4.8,0,0,1,.471,3,4.553,4.553,0,0,1-3.05,3.767,12.973,12.973,0,0,1-2.1-4.648,3.75,3.75,0,0,1,.238-1.96M22.34,148.305c-.009.121-.013.245-.027.365a6.2,6.2,0,0,1-1.022,2.978,2.461,2.461,0,0,1-3.55.74,23.372,23.372,0,0,1-1.866-1.742c.442-.657.856-1.213,1.2-1.814a19.164,19.164,0,0,0,.949-1.895c.282-.621.5-1.271.769-1.9a3.484,3.484,0,0,1,2.655-2.269c.372-.065.747-.1,1.126-.161v-.579h-7.46v.547c.5.081.98.128,1.442.249a1.472,1.472,0,0,1,1.193,1.1,2.97,2.97,0,0,1,.007,1.117,11.454,11.454,0,0,1-2.3,4.828.412.412,0,0,1-.112.076,92.9,92.9,0,0,1-5.828-7.924c.231-.106.417-.186.6-.276a6.964,6.964,0,0,0,3-2.494,4.144,4.144,0,0,0-1.96-6.364,6.783,6.783,0,0,0-3.962-.128,4.686,4.686,0,0,0-3.747,5.8,11.952,11.952,0,0,0,1.612,3.9c.056.1.115.2.164.292-.375.141-.72.247-1.045.4A6.705,6.705,0,0,0,.168,147.7c-.065.253-.112.514-.168.769v1.4a1.08,1.08,0,0,1,.061.182,5.99,5.99,0,0,0,2.449,4.159A8.321,8.321,0,0,0,9.155,155.5a8.312,8.312,0,0,0,4.036-2c.321.3.632.588.946.877a4.936,4.936,0,0,0,7.8-1.455,10.748,10.748,0,0,0,1.027-3.751c.036-.359.049-.718.074-1.076h-.664a1.98,1.98,0,0,0-.038.218" transform="translate(0 -94.488)" fill="#3d5065"/>
    <path id="Path_596" data-name="Path 596" d="M116.79,145.413H106.563v.635c.639.067,1.258.105,1.866.2a.989.989,0,0,1,.861.846,7.485,7.485,0,0,1,.152,1.049,13.618,13.618,0,0,1-.161,3.841,4.3,4.3,0,0,1-8.241.782,14.094,14.094,0,0,1-1.1-4.859A33.576,33.576,0,0,1,100,141.52a13.588,13.588,0,0,1,1.121-4.384,4.767,4.767,0,0,1,3.1-2.886,5.625,5.625,0,0,1,5.85,1.877,10.653,10.653,0,0,1,2.289,4.792c.142.605.139.605.767.565a.2.2,0,0,0,.061-.034v-7.991a1.828,1.828,0,0,1-.251,0c-.291-.043-.435.034-.48.383a2.994,2.994,0,0,1-.363,1.018.832.832,0,0,1-1.141.41,4.336,4.336,0,0,1-.473-.222c-.449-.247-.895-.5-1.348-.749a8.752,8.752,0,0,0-5.9-.8,9.006,9.006,0,0,0-6.539,4.462,13.354,13.354,0,0,0-.745,12.2,9.39,9.39,0,0,0,5.942,5.7,19.94,19.94,0,0,0,1.967.442h1.832a.839.839,0,0,1,.155-.054,5.773,5.773,0,0,0,2.812-1.15c.433-.318.839-.675,1.28-.978a1.776,1.776,0,0,1,2.433.231,9.974,9.974,0,0,1,.852,1.244c.063.09.152.2.24.215a4.765,4.765,0,0,0,.677.009v-.395c0-2.13-.013-4.265.009-6.4a11.4,11.4,0,0,1,.2-1.846,1.074,1.074,0,0,1,.957-.955c.493-.069.986-.115,1.493-.173Z" transform="translate(-67.603 -95.055)" fill="#3d5065"/>
    <path id="Path_597" data-name="Path 597" d="M558.886,144.921a.984.984,0,0,1,.027-1.969.985.985,0,0,1-.027,1.969m1-1.525a1.131,1.131,0,0,0-2.1.8,1.107,1.107,0,0,0,1.108.888,1.155,1.155,0,0,0,1.121-.892v-.529c-.042-.09-.083-.177-.13-.265" transform="translate(-397.68 -101.806)" fill="#3d5065"/>
    <path id="Path_598" data-name="Path 598" d="M18.85,37.119c-.144,0-.274,0-.4,0-.946-.036-1.9-.045-2.843-.117a1.92,1.92,0,0,1-1.966-1.879,18.444,18.444,0,0,1-.191-2.386c-.02-4.186-.011-8.373-.013-12.561v-.359H28.4v.37c0,3.895.011,7.8-.009,11.7,0,1.029-.076,2.063-.172,3.088a1.993,1.993,0,0,1-2.047,2.034c-.928.069-1.868.078-2.805.114-.123,0-.249,0-.37,0v.747H40.428v-.747c-.141,0-.274,0-.4,0-.957-.036-1.915-.045-2.872-.121a1.874,1.874,0,0,1-1.89-1.61,5.9,5.9,0,0,1-.164-1.153c-.051-1.386-.11-2.771-.11-4.157q0-10.931.032-21.856a24.964,24.964,0,0,1,.148-2.657c.141-1.343.655-2.045,1.994-2.157.942-.076,1.892-.081,2.839-.114.137-.007.276,0,.424,0V2.556H22.991v.738c.144,0,.26,0,.379,0,.848.02,1.7.022,2.547.065a2.087,2.087,0,0,1,2.305,2.177,28.907,28.907,0,0,1,.166,2.958c.02,3.31.009,6.617.009,9.929v.388H13.45c0-.123-.013-.229-.013-.339,0-3.374-.009-6.751,0-10.126a26.392,26.392,0,0,1,.139-2.7c.137-1.345.569-2.114,2.047-2.251.944-.083,1.895-.074,2.843-.105.123-.007.249,0,.383,0v-.74H1.411v.74c.191,0,.368-.011.538,0,.944.04,1.895.042,2.837.134A1.748,1.748,0,0,1,6.555,5.072a23.254,23.254,0,0,1,.256,3.343q.034,11.782,0,23.558a29.056,29.056,0,0,1-.193,3.119,1.866,1.866,0,0,1-1.727,1.861,12.053,12.053,0,0,1-1.756.132c-.574.02-1.148.007-1.731.007v.771H18.85Z" transform="translate(-1.003 -1.821)" fill="#3d5065"/>
    <path id="Path_599" data-name="Path 599" d="M462.882,3.294c.856.04,1.72.045,2.572.135a2.017,2.017,0,0,1,2.05,1.949,26.454,26.454,0,0,1,.238,3.444q.03,11.412,0,22.827c0,1.029-.076,2.061-.177,3.083a2.132,2.132,0,0,1-2.043,2.229,11.808,11.808,0,0,1-1.592.125c-.532.02-1.061.007-1.59.007v.774h29.231V24.428c-.171,0-.321.011-.469,0-.229-.025-.292.076-.305.3a17.077,17.077,0,0,1-.789,4.3,11.718,11.718,0,0,1-4.35,6.229,10.908,10.908,0,0,1-6.462,1.861c-1.482,0-2.965-.009-4.449.009-.323,0-.419-.072-.417-.417q.014-8.369.007-16.728v-.431c1.4.065,2.758.067,4.1.206a5.067,5.067,0,0,1,4.458,3.345,15.181,15.181,0,0,1,.879,3.808c.079.659.1.659.758.572.009,0,.016-.011.031-.022V10.911h-.677c-.184.933-.323,1.843-.549,2.729a5.859,5.859,0,0,1-4.6,4.606,17.613,17.613,0,0,1-4.325.291c-.016,0-.032-.022-.049-.038V3.314a1.688,1.688,0,0,1,.179-.02c1.962.018,3.924,0,5.888.067a9.141,9.141,0,0,1,4.229,1.227,9.865,9.865,0,0,1,4.561,6.041c.346,1.137.552,2.316.825,3.5h.662V2.554H462.344v.74c.193,0,.365-.011.538,0" transform="translate(-329.644 -1.821)" fill="#3d5065"/>
    <path id="Path_600" data-name="Path 600" d="M251.316,3.353A2.014,2.014,0,0,1,253.4,5.015a4.26,4.26,0,0,1,.159.917c.072,1.614.18,3.234.184,4.855.022,5.066,0,10.129.02,15.194a21.272,21.272,0,0,0,.265,3.245,9.951,9.951,0,0,0,6.819,8.321,19.422,19.422,0,0,0,5.866,1.02,15.675,15.675,0,0,0,4.951-.5,8.41,8.41,0,0,0,6.287-6.169,22.115,22.115,0,0,0,.6-5.642c.022-5.11-.009-10.218.029-15.326a20.213,20.213,0,0,1,.321-3.368,4.573,4.573,0,0,1,3.9-4.124c.415-.07.832-.119,1.242-.175V2.551H272.026v.718c.39.052.76.088,1.126.15A4.466,4.466,0,0,1,277,6.775a12.305,12.305,0,0,1,.5,3.48q.03,8.163.011,16.326a22.353,22.353,0,0,1-.327,4.341,7.522,7.522,0,0,1-3.911,5.509,9.589,9.589,0,0,1-6.911.856,6.847,6.847,0,0,1-4.89-4.121,13.169,13.169,0,0,1-1.083-5.2c-.052-3.254-.038-6.507-.029-9.763.009-3.529.022-7.059.074-10.59a14.86,14.86,0,0,1,.28-2.574,1.823,1.823,0,0,1,1.729-1.63c.964-.078,1.935-.085,2.9-.119.137,0,.278,0,.419,0v-.74H248.352v.8c1,0,1.987-.025,2.964.009" transform="translate(-177.071 -1.815)" fill="#3d5065"/>
    <path id="Path_601" data-name="Path 601" d="M260.513,145.483a29.026,29.026,0,0,1-4.7.11v-9.034c.229,0,.453-.007.677,0a30.992,30.992,0,0,1,3.453.1,4.015,4.015,0,0,1,3.494,4.117,9.144,9.144,0,0,1-.222,2.139,3.326,3.326,0,0,1-2.7,2.572m9.2,8.759a3.088,3.088,0,0,1-.686,1.8,1.109,1.109,0,0,1-1.273.359,1.008,1.008,0,0,1-.579-1.094c.013-.7.085-1.393.088-2.094a13.423,13.423,0,0,0-.076-2.251,5.372,5.372,0,0,0-2.52-3.682,10.847,10.847,0,0,0-2.747-1.226c.119-.007.238-.011.356-.02a9.161,9.161,0,0,0,2.947-.672,4.413,4.413,0,0,0,2.682-5.063,4.58,4.58,0,0,0-2.688-3.534,10.152,10.152,0,0,0-4.6-.922c-4.124-.016-8.243-.009-12.366-.009h-.359v.653c.688.049,1.352.076,2.011.155a1.091,1.091,0,0,1,1.1,1.108c.1,1.137.184,2.281.191,3.42q.034,5.55,0,11.1c0,1.016-.067,2.041-.128,3.056-.065,1.036-.39,1.386-1.381,1.511-.366.045-.738.045-1.108.065-.112.007-.227,0-.339,0v.688h10.532v-.657c-.531-.034-1.043-.047-1.552-.105a1.214,1.214,0,0,1-1.24-1.24,5.361,5.361,0,0,1-.061-.561c-.032-.823-.07-1.644-.079-2.464-.022-2.02-.031-4.038-.042-6.059,0-.022.016-.042.045-.11.148,0,.321,0,.493,0a19.2,19.2,0,0,1,3.747.177,2.838,2.838,0,0,1,2.476,2.587,14.47,14.47,0,0,1,0,2.157c-.022.982-.132,1.973-.079,2.953a3.558,3.558,0,0,0,1.538,2.805,4.914,4.914,0,0,0,3.561.771,2.836,2.836,0,0,0,2.543-2.108,6.724,6.724,0,0,0,.292-1.292c.083-.812.105-1.632.157-2.464H269.9c-.059.769-.094,1.52-.184,2.265" transform="translate(-176.742 -96.845)" fill="#3d5065"/>
    <path id="Path_602" data-name="Path 602" d="M345.152,150.538a8.954,8.954,0,0,1-1.794,4.292,5.446,5.446,0,0,1-3.935,1.973c-1.052.074-2.11.022-3.166.025-.074,0-.148-.016-.242-.025V136.609c.171-.009.332-.036.491-.031a29.332,29.332,0,0,1,3.325.09,5.671,5.671,0,0,1,4.467,3.485,12.764,12.764,0,0,1,1.108,4.552,22.6,22.6,0,0,1-.253,5.835M346.085,138a11.664,11.664,0,0,0-7.106-2.17c-3.511-.023-7.021-.007-10.532-.007h-.352v.691c.157,0,.294-.009.433,0,.534.032,1.07.047,1.592.115a1.1,1.1,0,0,1,1.094,1.119c.094,1.215.181,2.435.186,3.655q.027,5.778-.013,11.562c0,.915-.092,1.836-.175,2.753a1.07,1.07,0,0,1-.942,1.036,11.477,11.477,0,0,1-1.166.125c-.334.022-.67,0-1.018,0v.7c.121.009.218.018.314.018,3.7,0,7.393.031,11.09-.018a16,16,0,0,0,3.3-.39,8.759,8.759,0,0,0,5.886-4.225,12.1,12.1,0,0,0,1.428-8.31,10.129,10.129,0,0,0-4.016-6.66" transform="translate(-233.92 -96.835)" fill="#3d5065"/>
    <path id="Path_603" data-name="Path 603" d="M426.8,149.385a12.557,12.557,0,0,1-1.453,4.274,6.021,6.021,0,0,1-5.059,3.233c-1.337.072-2.682.034-4.025.038a.409.409,0,0,1-.11-.034V146.5c.433,0,.841-.011,1.256,0a3.531,3.531,0,0,1,3.639,2.913c.2.736.307,1.489.462,2.258h.619V140.711h-.63c-.13.643-.222,1.271-.383,1.875-.711,2.579-2.617,3.328-4.965,3.106v-9.03c.061-.007.1-.022.142-.022,1.179,0,2.357-.045,3.534.009a6.137,6.137,0,0,1,4.509,2.1,8.113,8.113,0,0,1,1.83,4.016c.112.626.11.628.7.576.018,0,.036-.022.054-.038v-7.377H408.2v.668c.166,0,.307-.009.446,0,.52.031,1.045.042,1.565.114a1.085,1.085,0,0,1,1.1,1.07,14.949,14.949,0,0,1,.172,2.148q.024,6.579.007,13.163c0,.926-.1,1.856-.188,2.785a1.031,1.031,0,0,1-.906.957,10.358,10.358,0,0,1-1.265.128c-.307.02-.621.007-.937.007v.693h19.3v-8.7c-.594-.119-.6-.108-.7.431" transform="translate(-291.037 -96.91)" fill="#3d5065"/>
    <path id="Path_604" data-name="Path 604" d="M506.091,136.513v-.662H498.4v.684l.377.029a2.893,2.893,0,0,1,2.852,2.5,11.35,11.35,0,0,1,.22,2.114c.022,3.276.009,6.554.007,9.83,0,.105-.007.213-.016.379-.1-.119-.166-.184-.224-.26q-5.805-7.524-11.615-15.053a.542.542,0,0,0-.489-.245c-2.081.009-4.166,0-6.247,0h-.314v.689a1.453,1.453,0,0,0,.166.029,3.179,3.179,0,0,1,2.7,1.442.994.994,0,0,1,.215.632c0,4.5.007,9-.013,13.5a12.37,12.37,0,0,1-.215,2.213,2.764,2.764,0,0,1-1.735,2.283,12.865,12.865,0,0,1-1.373.348v.628h7.559V156.9c-.09-.007-.164-.011-.238-.018a2.869,2.869,0,0,1-2.821-2.449,8.476,8.476,0,0,1-.249-1.906c-.022-4.267-.018-8.537-.018-12.8a2.11,2.11,0,0,1,.032-.269c.074.09.119.141.157.191q4.285,5.512,8.561,11.021,2.617,3.374,5.233,6.743c.063.076.164.182.247.184.531.018,1.061.009,1.614.009v-.478c0-5.319-.007-10.642.007-15.963a11,11,0,0,1,.191-1.951,2.889,2.889,0,0,1,2.242-2.556c.287-.061.579-.1.879-.148" transform="translate(-344.154 -96.842)" fill="#3d5065"/>
    <path id="Path_605" data-name="Path 605" d="M173.08,149.025c1.018-2.666,2.032-5.31,3.072-8.023,1.144,2.709,2.26,5.346,3.391,8.023Zm13.84,5.24a16.276,16.276,0,0,1-.8-1.563q-2.24-5.224-4.46-10.454-1.631-3.821-3.254-7.651a.363.363,0,0,0-.392-.255c-.276-.009-.276.213-.336.37q-3.2,8.3-6.4,16.6a28.741,28.741,0,0,1-1.356,2.975,2.859,2.859,0,0,1-2.094,1.449c-.309.061-.619.085-.942.128v.664h6.985v-.666c-.307-.036-.6-.061-.888-.105a1.614,1.614,0,0,1-1.572-1.886,2.035,2.035,0,0,1,.1-.52c.4-1.121.8-2.247,1.218-3.361a.338.338,0,0,1,.272-.15c2.226-.009,4.449-.013,6.673,0a.422.422,0,0,1,.3.206c.318.7.63,1.413.919,2.13a16.235,16.235,0,0,1,.749,2.011,1.124,1.124,0,0,1-1.052,1.572c-.375.063-.758.074-1.132.108v.659h10.191v-.682c-.088,0-.153-.013-.218-.018a2.932,2.932,0,0,1-2.5-1.563" transform="translate(-118.984 -95.784)" fill="#3d5065"/>
    <path id="Path_606" data-name="Path 606" d="M561.143,144.933c-.188.065-.388.112-.619.17v-.516c.22.049.417.088.61.146.025.007.029.195.009.2m.193-.179c-.058-.282-.282-.265-.487-.271-.148-.007-.294,0-.451,0v1.262h.094c.007-.17.016-.338.027-.527.466-.105.4.493.794.581-.13-.222-.233-.39-.336-.57.233-.081.419-.184.359-.473" transform="translate(-399.555 -103.011)" fill="#3d5065"/>
  </g>
</svg>
