<svg xmlns="http://www.w3.org/2000/svg" xmlns:xlink="http://www.w3.org/1999/xlink" width="296.637" height="58.802" viewBox="0 0 296.637 58.802">
  <defs>
    <clipPath id="clip-path">
      <rect id="Rectangle_1686" data-name="Rectangle 1686" width="296.637" height="58.802" fill="#3d5065"/>
    </clipPath>
  </defs>
  <g id="Group_106" data-name="Group 106" transform="translate(-785.682 37.886)">
    <g id="Group_91" data-name="Group 91" transform="translate(785.682 -37.886)" clip-path="url(#clip-path)">
      <path id="Path_426" data-name="Path 426" d="M237.376,53.986l-.492-.009-.009-1.474a.85.85,0,0,1,.794.239.838.838,0,0,1-.292,1.244m1.138-1.59a8.274,8.274,0,0,0-2.967-.291c0,.108-.025.212.029.291a1.537,1.537,0,0,1,.321.068v1.513a1.206,1.206,0,0,0-.321.035c0,.107-.029.212.025.29a10.172,10.172,0,0,0,2.7-.025,1.292,1.292,0,0,0,.608-1.085.935.935,0,0,0-.4-.8" transform="translate(-124.325 -27.502)" fill="#3d5065"/>
      <path id="Path_427" data-name="Path 427" d="M244.79,26.765l.292.106s-.116.226-.048.343c.081.144.222.293.365.213a.485.485,0,0,0,.266-.556h.211l.031.191c-.029.344-.133.591-.6.565-.427-.024-.581-.475-.518-.862m.924,1.282c0-.008.363.115.363.115l.114.15.176-2.029-.176-.142a1.071,1.071,0,0,1-.863.373c-.327,0-.676-.069-.962-.081.1.344-.046.749.168,1.149a1.142,1.142,0,0,0,1.18.465" transform="translate(-128.982 -13.798)" fill="#3d5065"/>
      <path id="Path_428" data-name="Path 428" d="M251.569,26.659h.211a.49.49,0,0,0,.263.559c.146.077.286-.072.369-.216.068-.117-.05-.343-.05-.343l.294-.1c.061.385-.093.836-.52.86-.464.026-.568-.222-.595-.566Zm.736,1.047c.672-.1.719-1.018.694-1.655a2.1,2.1,0,0,1-1.032.31,1.146,1.146,0,0,1-.778-.389l-.151.079.4,2.092a1.236,1.236,0,0,1,.869-.437" transform="translate(-132.504 -13.709)" fill="#3d5065"/>
      <path id="Path_429" data-name="Path 429" d="M245.874,31.736a1.035,1.035,0,0,0-.554-.953.757.757,0,0,0-.717.028c-.344.186-.319.555-.264.846.079.134.186.292.371.24.344-.211-.266-.608.238-.741.238-.027.373.265.452.424a.935.935,0,0,1-.479.927,1.468,1.468,0,0,1-1.059-.079,1.508,1.508,0,0,1-.635-1.086,1.535,1.535,0,0,1,.9-1.458c1.219-.582,2.094.505,2.965,1.272a1.589,1.589,0,0,0-1.217.581m-4.9-3.176A1.369,1.369,0,0,1,241,27.316a1.713,1.713,0,0,1,1.086-.849,2.027,2.027,0,0,1,1.669.5,20.681,20.681,0,0,1,1.694,2.436,2.145,2.145,0,0,0-2.173.451,2.734,2.734,0,0,0-.423.979,18.068,18.068,0,0,0-1.881-2.277M235.123,31a10.321,10.321,0,0,0-4.451.556,14.227,14.227,0,0,0,.108-2.808c.767-.979,2.092-.873,3.282-.951a24.5,24.5,0,0,1,5.959.766c.425,1.219,1.8,2.04,2.277,3.231-2.435.212-4.713-.662-7.175-.794m-.688,1.377a9.284,9.284,0,0,1-3.444-.319,6.914,6.914,0,0,1,3.23-.61l.264.028c-.077.291,0,.607-.05.9m-8.1,0-9.03-1.616a12.837,12.837,0,0,0-3.892.025,7.357,7.357,0,0,0,.211-2.516c.133-.449.662-.423,1.006-.634a12.826,12.826,0,0,1,4.5.161,90.27,90.27,0,0,0,11.122,1.746,20.161,20.161,0,0,1-.054,2.569c.267.424.742.4,1.14.5a26.255,26.255,0,0,1-5-.238m-9.374-.344a11.811,11.811,0,0,1-3.5-.451l-.131-.159a6.1,6.1,0,0,1,3.653-.186Zm-15.228.025a26.785,26.785,0,0,0,3.415-1.351,24.548,24.548,0,0,1-3.415-1.774,90.18,90.18,0,0,0,11.413.319c.027.847-.316,1.642-.236,2.408.423.53,1.057.477,1.613.638a68.68,68.68,0,0,1-12.791-.239m7.813-6.143a15.271,15.271,0,0,0,3.336-.688,16.665,16.665,0,0,0,3.073-.291c.051.528.344,1.032.131,1.588l-1.456.159a2.428,2.428,0,0,0-1.589,1.059c-.13-.185.106-.636-.29-.636a.309.309,0,0,0-.292.185c.025.107.1.239.054.345a.419.419,0,0,0-.264.662c-.054.053-.159.026-.212.026-.264-.185-.161-.556-.45-.715-.106-.211.186-.344,0-.5a.4.4,0,0,0-.477,0c-.158.292.079.715-.4.794l.106.478c-.344.158-.371-.266-.477-.424-.052-.264-.371-.423-.131-.688.079-.132-.106-.238-.212-.238a.3.3,0,0,0-.318.185c.187.319-.186.452-.4.53l.052.636c-.264,0-.344-.29-.423-.478.052-.264-.292-.211-.318-.45.185-.581.239-1.376.954-1.535m5.243-6.408c.266-1.8,2.119-2.7,3.2-3.946.027.766-.581,1.3-1.086,1.8Zm2.41-5.058c-.027,1.057-1.165,1.614-1.907,2.2a3.8,3.8,0,0,1,1.907-2.2m.554-.9a2.6,2.6,0,0,1,2.175.69c.062-.1.211-.16.263-.268a.16.16,0,0,0-.025-.1,7.111,7.111,0,0,1,1.611-.343,8.439,8.439,0,0,1,2.017.156c.027.107.131.265.264.265.344-.186.527-.582.9-.742a2.99,2.99,0,0,1,1.059-.157,2.215,2.215,0,0,1-.556,1.351c-.161.211-.5.078-.556.344a4.237,4.237,0,0,1,.317,3.178.981.981,0,0,1-.637.555,1.564,1.564,0,0,1-.388.054l-.033.158.533.338-.048.307-.508-.238-.073.268.521.338-.054.257L224,19.74l-.1.319.535.322-.107.474-1.619-.627s0-.718,0-.725a1.157,1.157,0,0,0,.608-.662c.027-.159.079-.424-.079-.557a1.876,1.876,0,0,1-.987.354,1.532,1.532,0,0,1-1-.221.662.662,0,0,0,.1.767,1.339,1.339,0,0,0,.574.34v.766l-1.526.721-.139-.417.489-.3-.108-.368-.506.295-.1-.247.551-.352-.124-.337-.562.3-.064-.195.55-.413s-.031-.2-.034-.213c-.452-.054-1.006-.158-1.165-.689a7.672,7.672,0,0,1-.239-2.7c.025-.132.344-.212.131-.344-.767.028-1.086-.847-1.325-1.376Zm1.114-2.065a.392.392,0,0,1-.259-.315,5.067,5.067,0,0,1,1.211-.718c.027.006-.027.532,0,.535-.044.12-.149.035-.319.253a.355.355,0,0,0,.264.528,2.681,2.681,0,0,1,.29-.018c.108.319-.126.465-.369.582-.346.168-.5-.291-.5-.291l.265-.132-.344-.661s-.116.283-.239.238m5.43,1.218a.6.6,0,0,1-.158.187,9.679,9.679,0,0,0-4.53.263.634.634,0,0,1-.212-.158,8.512,8.512,0,0,1,4.9-.291m-.981-2.516c-.008,0-.284.479-.292.5-.16.027-.424-.059-.45.2-.134.371.133.643.425.537a.508.508,0,0,1-.319.45.476.476,0,0,1-.589-.254l.006-.168.27.009-.006-.827-.289,0,.025-.319a1.607,1.607,0,0,0-.417-.057c-.147.017-.344.06-.344.06v.366h-.243l-.008.8.324-.006s.012.413-.238.476c-.409.1-.537.046-.616-.217l-.021-.179s.377.009.367-.3c-.006-.193-.026-.409-.251-.434-.154-.018-.186.068-.348.068-.021-.023-.159-.549-.164-.576a5.2,5.2,0,0,1,3.177-.132m.24,1.272a.367.367,0,0,0,.556-.293c.016-.225-.253-.36-.438-.386l-.039-.514,1.137.5-.079.347-.346-.16-.208.635.237.107a.52.52,0,0,1-.662.319c-.221-.05-.238-.345-.158-.556M229.4,18.2c-1.115-1.111-3.18-1.536-3.311-3.31.979,1.3,2.938,1.563,3.311,3.31m-.425-2.3c-.769-.53-2.2-.846-2.253-2.093a4.045,4.045,0,0,1,2.253,2.093m-1.615,8.422c-.662-.187-1.587-.187-2.041-.956a2.215,2.215,0,0,1-.209-2.036c.025,1.323,1.4,2.144,2.25,2.993m.954-.082c-.954-1.427-3.125-2.356-2.86-4.369.477,1.669,3.175,2.358,2.86,4.369M226.2,16.669c1,1.3,3.125,1.985,3.019,3.867-.9-1.351-3.019-2.04-3.019-3.867m2.673,5.773c-.927-1.483-3.31-2.2-2.912-4.183.687,1.536,2.966,2.277,2.912,4.183M221.4,23l.319-.025a1.767,1.767,0,0,0-.532,1.139l-.662.025c.186-.372.344-.981.875-1.139m1.748.928-1.114.1a1.456,1.456,0,0,1,.479-1.111c.45.134.556.61.635,1.007m1.588-.053-.767-.079a2.038,2.038,0,0,0-.556-.9c.636-.105,1.034.531,1.324.981m-1.086-1.749-2.383.132a.28.28,0,0,1-.131-.448,2.443,2.443,0,0,1,1.325-.689,2.369,2.369,0,0,1,1.4.634.279.279,0,0,1-.212.37m-5.4,3.761-.027.847-.479-.053a1.265,1.265,0,0,1,.506-.794M217.8,25.3c.319-1.165,2.121-2.011,1.96-3.523a1.926,1.926,0,0,1,.211,1.616c-.316.954-1.484,1.272-2.171,1.907m-.608,1.323-.5-.051a1.29,1.29,0,0,1,.264-.319c.159.026.159.239.238.37m-.292-1.693c-.448-1.429,1.14-2.358,1.748-3.522a4.426,4.426,0,0,0,.531-1.272c.634,2.013-1.538,3.178-2.279,4.794m-1.484-3.339c-.29-1.933,1.857-3.018,2.648-4.395-.079,1.8-1.931,2.888-2.648,4.395m3.046-2.807c.531,2.04-2.04,3.072-2.359,4.9-.344-2.065,1.642-3.23,2.359-4.9m12.076,3.974c.211-.292,0-.663-.052-.981l-.4-1.323c2.7.5,5.083,2.039,7.892,2.435a1.627,1.627,0,0,0,.979.9l.952.079a3.945,3.945,0,0,0,.9,2.276,6.751,6.751,0,0,0-.9,1.378,27.47,27.47,0,0,0-7.123-.637,2.568,2.568,0,0,0,0-2.119c-.4-.291-.531-.953-1.113-1.006-.4.451.425.795.425,1.3a2.2,2.2,0,0,1-.346,1.988c-.581.29-1.613.61-1.587,1.509a27.518,27.518,0,0,1-3.682-.4c-.554-.477-.927-1.272-1.747-1.139a.615.615,0,0,0-.527-.054c.1.476-.717.346-.374.848-.45.187-.289-.556-.608-.715.054-.238.344-.608-.054-.714-.184-.028-.319.157-.344.29.264.5-.661.424-.29.927-.159.079-.371-.132-.4-.29.052-.292-.4-.451-.159-.77a.2.2,0,0,0,0-.316c-.079-.187-.294-.053-.4,0-.212.237.186.821-.4.767l-.025.344c-.531.133-.264-.556-.662-.688.025-.264.45-.583.052-.768a.416.416,0,0,0-.4.292c0,.237-.108.5-.4.5l-.025.424c-.531.081-.239-.608-.636-.768a1.676,1.676,0,0,1,.821-1.351c2.169.212,4.473-1,6.407.319.873-.477,2.277.556,2.727-.742l.187-.795a8.851,8.851,0,0,0,.846.688c.237-.212,0-.449-.025-.66a8.065,8.065,0,0,1-.5-1.985c.4.185.583.713.979.952M238.8,21.3a1.76,1.76,0,0,1,1.377-.689,1.552,1.552,0,0,1,1.271.636c.767,1.087-.425,2.953,1.137,4.371-.371-.107-.661.1-1.006.079-.954-.849-.848-2.225-.715-3.416a.99.99,0,0,0-.477-.662.8.8,0,0,0-.925.344c-.027.211.025.556.288.609.108,0,.187-.106.239-.186a.458.458,0,0,1-.079-.319.357.357,0,0,1,.4-.051c.212.185.133.423.054.662a1.022,1.022,0,0,1-1.006.291,1.291,1.291,0,0,1-.636-.61A1.327,1.327,0,0,1,238.8,21.3m.079-3.2c-2.064.265-5.006,2.225-6.569-.212a2.471,2.471,0,0,1,.239-2.621c1.882-1.988,4.369.212,6.541-.4a1.329,1.329,0,0,0,.635-1.032l-.025-.53a1.524,1.524,0,0,1,.079,1.43,1.39,1.39,0,0,1-.821.766c-1.881.294-3.6-1.138-5.43-.29a1.879,1.879,0,0,0-.767,1.484,1.455,1.455,0,0,0,.4,1.084c1.562,1.326,3.39-.158,5.031-.317a2.4,2.4,0,0,1,2.332.8,2.319,2.319,0,0,1-.344.37,2.184,2.184,0,0,0-1.3-.529m-1.537-.793c-1.032.158-2.011.767-3.071.449-.292-.133-.265-.5-.159-.742.292-.395.794-.158,1.219-.183Zm2.489-1.14a2.235,2.235,0,0,1-1.748.345c-1.562.026-3.125-1.3-4.555-.212l-.159.238a.773.773,0,0,1,.449-.875c2.069-.979,5.773,2.3,6.411-1.376a1.662,1.662,0,0,1-.4,1.88m2.4,1.513a1.1,1.1,0,0,1,.952-.079,1.225,1.225,0,0,1,.767.953c-.025,1.617-.713,2.815-.609,4.635a9.825,9.825,0,0,0,.5,2.859c-1.509-1.082-1.6-2.212-1.562-4.211a1.87,1.87,0,0,0-1.047-1.455,2.2,2.2,0,0,0-1.23-.187,18.065,18.065,0,0,0,2.225-2.516m2.092-3.167a1.992,1.992,0,0,0,1.756,1.264c-.608.556-.794,1.59-1.723,1.748a1.342,1.342,0,0,1-1.323-.928c-.319-1.111.815-1.264,1.29-2.085m-.244,8.391a9.984,9.984,0,0,1,1.344-5.075,6.749,6.749,0,0,1,.917-1.206l-.008-1.276a1.931,1.931,0,0,1-1.366-.635,1.623,1.623,0,0,1-.462-1.268,1.588,1.588,0,0,1,1.1-1.468,1.635,1.635,0,0,1,1.709.4,1.517,1.517,0,0,1,.4,1.147.9.9,0,0,1-.811.977.809.809,0,0,1-.779-.4c-.135-.249-.145-.714.137-.714.382,0,.047.271.277.378a.273.273,0,0,0,.365-.091.451.451,0,0,0-.085-.5.622.622,0,0,0-.712-.159.785.785,0,0,0-.441.977,1.008,1.008,0,0,0,.948.819l1.605,0,.9-.61,1.116-.55a1.677,1.677,0,0,0-.291-.7l-1.375.733a3.066,3.066,0,0,0-.956-2.1,2.465,2.465,0,0,0-3.971,2.225c-.715.9-2.2,1.67-1.563,3.021-.635.026-.954.767-1.377,1.111l-.848-.688.687-.477a2.675,2.675,0,0,0,.558-2.674,2.917,2.917,0,0,0-2.175-2.067,1.442,1.442,0,0,0-1.269.291,1.132,1.132,0,0,0-.264.9.733.733,0,0,0,.713.556c.426-.132-.157-.345,0-.609.054-.212.318-.24.533-.212a.7.7,0,0,1,.423.793.922.922,0,0,1-.663.5c-1.881-.079-3.892-1.429-5.64-.185a3.038,3.038,0,0,0-1.589,2.489,3.216,3.216,0,0,0,1.112,2.621c1.827,1.509,4.369.344,6.3-.185.344-.081.8-.081.956.264-.821.769-1.721,1.59-1.777,2.7-2.7-.556-4.978-1.827-7.678-2.409-.319.026-.4-.372-.479-.557l1.008.345.052-.081c-.423-.794-.767-1.642-1.111-2.435.344.026.609.344.952.291v-.161c-1.217-1.323-1.694-3.574-3.709-3.918-.05-.4.187-.742.161-1.111h-.24l-1.959.555-.079-.079a5.35,5.35,0,0,1,.794-1.484c-.16-.239.24-.372.107-.662-.079-.344-.5-.318-.74-.265.052-.9-.875.079-1.009-.661a.52.52,0,0,0-.608.079l-.238-.319a.907.907,0,0,0-.609.079c-.081-.477-.662-.768-.452-1.3a2.263,2.263,0,0,1,.584.054,4.173,4.173,0,0,0,0-.821l-.688.025v-.74c-.294-.027-.533.077-.848.052,0,.239.132.531.132.8H220.4a3.994,3.994,0,0,0,.079.795c.237.026.45-.213.689-.053.158.557-.264.874-.344,1.324l-.054-.079c-.213-.025-.4-.079-.559.079-.05.716-.581-.212-.846.319.054.714-.635-.108-.821.423.133.635-.5.158-.688.53-.237.291.21.556.079.821a2.856,2.856,0,0,1,1.006,1.43,20.075,20.075,0,0,1-2.25-.319c.027.423.344.767.317,1.165A3.6,3.6,0,0,0,214.68,16.4c-.186.638-.769,1.14-.742,1.829.263.027.477-.345.714-.239a19.543,19.543,0,0,0-.875,2.756c.265.185.611-.4.954-.4a15.835,15.835,0,0,1-.317,2.993c.237.451.581-.37.9-.317a5.089,5.089,0,0,1,0,1.086c-2.25.1-4.265.847-6.434,1.163-.823.318-.849,1.3-1.139,1.987-.16.61.742.556.581,1.137a98.829,98.829,0,0,1-10.247-.793,33.337,33.337,0,0,0,4.767,2.993v.079a36.4,36.4,0,0,1-5.538,1.748,83.771,83.771,0,0,0,14.462.951,30.019,30.019,0,0,0,5.4-.528c.4-.264.109-.82.292-1.139,5.536.716,11.043,2.7,16.922,1.484.794,0,.344-.928.529-1.272,2.7.053,5.192,1.193,7.944.688a1.764,1.764,0,0,0,1.854.795c1.272-.186,1.959-2.093,3.469-1.376a11.12,11.12,0,0,0,5.167,1.74l-.767-.811A10.182,10.182,0,0,1,244.085,22.9" transform="translate(-104.143 -3.373)" fill="#3d5065"/>
      <path id="Path_430" data-name="Path 430" d="M258.009,55.787l0-.289-1.445-.239V55.6l.139.022.008,1.276c-.106.214-.357.214-.609.214-.544,0-.345-1.961-.345-1.961l-1.3-.185,0,.313a2.044,2.044,0,0,1,.239.085c.051.663-.158,1.43.45,1.853a1.717,1.717,0,0,0,1.624.127,1.347,1.347,0,0,1,.18.189l1,.135.008-.324-.191-.049.01-1.535Z" transform="translate(-134.309 -29.014)" fill="#3d5065"/>
      <path id="Path_431" data-name="Path 431" d="M249.814,55.739a2.723,2.723,0,0,1-.777-.012l0-.665a.7.7,0,0,1,.311.121c.116.131.2.3.431.224-.033,0,.009-.746-.009-.758-.079-.051-.284-.038-.309.1a.829.829,0,0,1-.448,0v-.576s.771-.017,1.008.319a1.363,1.363,0,0,1,.16.435l.367.024-.106-.812-2.667-.494v.3l.284.092-.009,1.537-.3-.046v.32l2.584.491.29-.793-.344-.132a.808.808,0,0,1-.469.332" transform="translate(-130.771 -28.313)" fill="#3d5065"/>
      <path id="Path_432" data-name="Path 432" d="M279.854,52.865l-.009.917.171-.013a1.137,1.137,0,0,1,.321-.355,1.29,1.29,0,0,1,.449,0v1.559l-.321,0v.265l1.509.265.006-.21-.271-.161-.006-1.563s.289.043.369.142a5.245,5.245,0,0,1,.319.505l.251,0-.006-.894Z" transform="translate(-147.71 -27.904)" fill="#3d5065"/>
      <path id="Path_433" data-name="Path 433" d="M275.271,54.522a1.162,1.162,0,0,1-.871.027l.009-.521s.481-.09.481.139l.224.012.006-.679h-.234a.441.441,0,0,1-.523.233v-.619a.8.8,0,0,1,.751.006,1.269,1.269,0,0,1,.373.475l.26,0-.158-.821-2.569-.006v.35l.294.053v1.482l-.266.107.009.247,2.56.018.21-.663-.348-.048a.907.907,0,0,1-.209.207" transform="translate(-144.108 -27.852)" fill="#3d5065"/>
      <path id="Path_434" data-name="Path 434" d="M243.381,53.088l.307.159-.009,1.514c-.079.054-.309-.021-.309-.021l-.035.275s1.607.32,1.607.3v-.3l-.247-.073V53.365l.291-.012v-.237l-1.6-.3Z" transform="translate(-128.439 -27.876)" fill="#3d5065"/>
      <path id="Path_435" data-name="Path 435" d="M282.845,45.79l-.186-.373-3.973-.715.161.238a28.925,28.925,0,0,0,4,.849" transform="translate(-147.098 -23.595)" fill="#3d5065"/>
      <path id="Path_436" data-name="Path 436" d="M281.891,47.261l.24-.319c-1.8-.29-3.6-.61-5.35-1.007l.161.212a30.96,30.96,0,0,0,4.95,1.114" transform="translate(-146.092 -24.246)" fill="#3d5065"/>
      <path id="Path_437" data-name="Path 437" d="M283.439,44.35c-.025-.13.029-.344-.129-.4-.981-.135-2.042-.239-2.942-.372l.133.16a18.73,18.73,0,0,0,2.938.607" transform="translate(-147.986 -23.004)" fill="#3d5065"/>
      <path id="Path_438" data-name="Path 438" d="M316.434,20.3a12.986,12.986,0,0,1-6.219.013l0-.565a9.936,9.936,0,0,1,6.216-.092Zm-6.786-1.147-.172.06c.477.423,0,1.111.557,1.483a12.335,12.335,0,0,0,6.435-.028c.715-.291.032-1.153.563-1.576a10.909,10.909,0,0,0-7.383.061" transform="translate(-163.35 -9.751)" fill="#3d5065"/>
      <path id="Path_439" data-name="Path 439" d="M308.766,5.531c-.352.2-.332.352-.352.49-.027.18.229.489.229.489s-.367-.094-.482.008c-.268.236-.181.43-.158.715.011.164.131.238.239.344.156-.151.232-.2.585-.212a.713.713,0,0,1-.475.9c-.489.153-.686-.092-.852-.426a.749.749,0,0,1,.469-.17l-.444-.941-.5.421-.168-.275-.062-.3a7.32,7.32,0,0,1,1.972-1.041m4.95,0c-.581.016-.643.458-.55.826-.132-.081-.414-.274-.634-.1-.3.229-.22.668-.116.959a.575.575,0,0,1,.628-.076.718.718,0,0,1-.763.719.579.579,0,0,1-.627-.7.918.918,0,0,1,.459.077,2.015,2.015,0,0,1,.015-1.132h-.459l.123-.594h-1.222l.107.611c-.194,0-.329-.006-.476,0a1.255,1.255,0,0,1,.107,1.094,1.688,1.688,0,0,0,.46-.055.66.66,0,1,1-1.309.108.518.518,0,0,1,.5-.015.425.425,0,0,0,.155-.336c-.042-.27-.031-.532-.307-.63a.667.667,0,0,0-.487.109,1.441,1.441,0,0,0-.033-.536.615.615,0,0,0-.489-.32,7.651,7.651,0,0,1,4.921,0m1.808.933L315.367,7a3.588,3.588,0,0,1-.4-.348l-.476.9c.145.028.361.038.465.2a.736.736,0,0,1-.916.427c-.457-.189-.4-.535-.323-.918.275,0,.385.062.476.2.139-.138.442-.414.3-.78-.071-.189-.438-.238-.6-.183a.613.613,0,0,0-.135-.932,6.916,6.916,0,0,1,1.759.9m-9.586.229-.108.115a5.984,5.984,0,0,1,1.458,2.225,12.11,12.11,0,0,1,7.918-.053,6.5,6.5,0,0,1,.662-1.376,6.709,6.709,0,0,1,.714-.874l-.143-.113a.712.712,0,0,0,.224-.339c.032-.32.106-.635-.107-.821a1.065,1.065,0,0,0-.848-.053.793.793,0,0,0-.21-.582c-.267-.291-.689-.053-.929.026a.691.691,0,0,0-.29-.556.789.789,0,0,0-.821.158,1.531,1.531,0,0,0-.344-.5c-.265-.212-.662-.028-.846.106l-.166-.516-.3-.7-.106-.688.936.229v-1.3l-.936.242L311.882,0h-1.421l.183,1.329-1.009-.242v1.3l1.009-.229-.114.764-.249.665-.134.524a.885.885,0,0,0-.637-.212c-.317,0-.423.344-.529.555a.81.81,0,0,0-.69-.211c-.317.081-.423.424-.527.662l-.185-.133c-.292-.054-.662-.054-.794.265-.16.107.1.584-.214.451a.63.63,0,0,0-.821.238.705.705,0,0,0,.187.971" transform="translate(-161.319 -0.001)" fill="#3d5065"/>
      <path id="Path_440" data-name="Path 440" d="M312.787,22.015l.873.129.161-.1a10.439,10.439,0,0,1,2.559-.019l.106.138.8-.155a8,8,0,0,0-4.5.01" transform="translate(-165.097 -11.447)" fill="#3d5065"/>
      <path id="Path_441" data-name="Path 441" d="M261.186,48.587a20.953,20.953,0,0,0,2.888-.184c.69-.318.661-1.324.5-1.96a.536.536,0,0,0-.211.078c-.159.5.079,1.219-.452,1.51l-2.673.318Z" transform="translate(-137.861 -24.514)" fill="#3d5065"/>
      <path id="Path_442" data-name="Path 442" d="M281.515,48.918c.108-.1.079-.265.133-.37a49.477,49.477,0,0,1-4.925-.927.268.268,0,0,0,.133.211,29.706,29.706,0,0,0,4.659,1.086" transform="translate(-146.062 -25.136)" fill="#3d5065"/>
      <path id="Path_443" data-name="Path 443" d="M361.19,54.536s.635.02.8,0v-.251h-.206V53.231l1.345,1.486.373,0V52.772h.184v-.3l-.733-.021v.275h.2l0,.595-.957-.908-1.3-.028.032.3h.458l.013,1.558-.2.022Z" transform="translate(-190.496 -27.651)" fill="#3d5065"/>
      <path id="Path_444" data-name="Path 444" d="M356.2,54.448c-.309.057-.492-.262-.537-.768-.048-.533-.284-1.069.3-1.112.435-.032.426.465.484.861.067.482.092.955-.244,1.019m-.079-2.117a1.615,1.615,0,0,0-1.139.449,1.041,1.041,0,0,0-.291,1.06,1.3,1.3,0,0,0,.635.768,2.1,2.1,0,0,0,1.509-.079,1.209,1.209,0,0,0,.531-1.536,1.289,1.289,0,0,0-1.244-.66" transform="translate(-187.196 -27.62)" fill="#3d5065"/>
      <path id="Path_445" data-name="Path 445" d="M371.237,49.7c-.131,0-.264,0-.291.13.1.425-.105,1.086.291,1.4a9.659,9.659,0,0,1,3.1.979c.079.053.347.135.319-.079a6.612,6.612,0,0,0-2.94-1.219c-.557-.159-.133-.9-.477-1.215" transform="translate(-195.795 -26.232)" fill="#3d5065"/>
      <path id="Path_446" data-name="Path 446" d="M363.451,33.93c.4-.132,1.061-.212,1.4-.661-.025-.795-.318-1.562-.291-2.384,2.224-.052,4.449-.264,6.645-.45a19.758,19.758,0,0,1-3.6,1.8,19.38,19.38,0,0,0,3.47,1.377,40.448,40.448,0,0,1-7.628.316m-2.594-.184c-.026-.319-.264-.77-.052-.953a8.388,8.388,0,0,1,3.467.238c-.079.344-.529.239-.766.4-.848.132-1.748.266-2.649.319m-7.838.238c0-.875,1.217-.449,1.484-1.244a1.551,1.551,0,0,0-.213-1.272c-.8-.847-1.961-.105-2.913-.079l-.478-.319c4.078-.477,7.706-2.223,12.049-1.906a1.558,1.558,0,0,1,1.086.636,15.166,15.166,0,0,0,.264,2.675c-4-.742-7.6.768-11.28,1.51m-.5-2.41a.8.8,0,0,1,.768.108c.372.317.557,1.216-.027,1.455,0,0-.712-1.555-.741-1.563m-1.43-1.457h.159v.028h-.159Zm.716,4.422c-.688.372-1.431-.025-2.145-.051a4.98,4.98,0,0,0-2.86.132,9.178,9.178,0,0,1-1.986-1.085c.317-.61,1.084-.637,1.747-.691.929.293,1.7,1.06,2.86.77a.573.573,0,0,0,.636-.319c-.316-.5-.952-.477-1.431-.635-1.825-.4-3.309-1.591-5.322-1.51-.61-.69-.158-1.748-.237-2.623.131-.185.555-.4.343-.662-.079-.158-.294-.1-.4-.051l-.873.556a3.993,3.993,0,0,1,.052.793,10.892,10.892,0,0,0-1.961-.317c-.183-.555.611-.107.559-.609l.158-2.014c-.027-.395-.663-.29-.343-.738.185.025.447.183.607,0l1.138-1.856a.457.457,0,0,0-.237-.476l.265-.29c.291.5.847.025,1.272.025.423-.29,1.457.054,1.349-.793v-.106l.478-.079c-.026.372-.056.9-.345,1.112-.687.247-1.75.059-2.4.383l-.565.995c1.455-.372,3.15-.346,4.581-.821a28.112,28.112,0,0,1,4.421,1.907c-.53.714-.239,1.588-.132,2.434a3.627,3.627,0,0,1-1.272,2.384c-.609-.581.424-1.006.476-1.588.133-.344.266-.928-.079-1.218-.528.025-.134.688-.373.952a9.694,9.694,0,0,0-.633,1.245,1.731,1.731,0,0,1-.821-.688c-.158-.345.45-.742-.027-.979a6.153,6.153,0,0,1-1.56,1.191c-.08.079-.133.186-.08.265.369.424.822-.186,1.189.291a22.719,22.719,0,0,0,4.211,3.02c.477.582-.025,1.218-.264,1.747m-8.632-2.276c0-.264.291-.319.476-.37a4.376,4.376,0,0,1,2.2.582,3.321,3.321,0,0,0-1.483.689,1.911,1.911,0,0,1-1.191-.9m-.69,2.3c.185-.132.5-.24.611-.5l-.027-.636a1.375,1.375,0,0,0,.952.423c0,.292.345.53.531.637Zm-3.229-.24-.106-.846a7.049,7.049,0,0,1,3.335.5l-.027.106a8.522,8.522,0,0,1-3.2.237m-8.4-.713a8.939,8.939,0,0,1,1.483-1.932,1.955,1.955,0,0,1,.216.221v1.033l-.2.024-.016.257.79-.006,0-.234-.209-.041,0-.619.8.848.766-1.145.113.733a1.507,1.507,0,0,1-.245.067.862.862,0,0,0,.015.3l1.446-.253-.048-.39a1.712,1.712,0,0,1-.248.051l-.209-1.4.253-.067-.044-.382-.926.159-.583,1.19-.969-1.036-.25,0,.161-.4c2.885-.315,5.932-1.324,8.923-.476a.9.9,0,0,1,.5.467c.289.653-.151,1.681.114,2.393a.954.954,0,0,1,.051.4c-3.944-1.4-7.68.927-11.676.239m-.61-.716a2.413,2.413,0,0,0-1.113-1.376,2.077,2.077,0,0,0-1.639.053c.872-1.218,1.536-3.548,3.574-2.992a1.489,1.489,0,0,1,.954,1.139c.29,1.43-1.484,2.011-1.775,3.176m-.769,1.326a1.2,1.2,0,0,1-1.165.4,1.124,1.124,0,0,1-.661-.69.538.538,0,0,1,.266-.635c.158-.026.343.026.37.187.051.186-.266.4.024.5.186.026.347-.187.372-.345a.729.729,0,0,0-.45-.795.81.81,0,0,0-.8.186c-.262.186-.238.5-.262.767a2.05,2.05,0,0,0-1.351-.5c.873-.768,1.748-1.7,2.992-1.4a1.5,1.5,0,0,1,.924,1.112,1.872,1.872,0,0,1-.264,1.219m-.7-13.145a1.414,1.414,0,0,1,.49-1.209,1.03,1.03,0,0,1,1.115-.238l2.594,2.674a1.932,1.932,0,0,0-2.038.715c-.929,1.167.185,3.046-.821,4.21l-.93.9a10.6,10.6,0,0,0-.41-7.053m-.331-1.553c-.767-.266-1.012-.863-1.623-1.627a1.969,1.969,0,0,0,1.491-1.128c0-.105.082-.159.082-.263.688.688,2.115,1.535,1.189,2.647a1.163,1.163,0,0,1-1.139.372m11.017.158a1.641,1.641,0,0,0,.663-1.616c.054-.528-.53-.873-.821-1.163-1.854-.744-3.6.66-5.509.344a1.234,1.234,0,0,1-.715-1.061V16.11a1.32,1.32,0,0,0,1.112.688c2.065-.133,4.979-1.828,6.489.424a2.37,2.37,0,0,1-.954,3.178c-2.489,1.219-4.875-1.668-7.2.159l-.318-.264c2.066-2.251,4.821.609,7.256-.609m-.29-.636c.026.239-.267.477-.477.5a9.286,9.286,0,0,1-3.31-.424,8.639,8.639,0,0,1,3.469-.476.544.544,0,0,1,.318.4m-7.283-1.325v-.079c2.173,1.67,4.554-.264,6.886-.051a1.07,1.07,0,0,1,.793,1.3,1.1,1.1,0,0,0-.765-.716c-2.332-.29-5.217,2.065-6.913-.45m1.667,5.218a1.842,1.842,0,0,1,.61.874,1.146,1.146,0,0,1-.4,1.032.893.893,0,0,1-.927.212.857.857,0,0,1-.476-.53.425.425,0,0,1,.264-.476c.5-.132.079.795.608.425a.672.672,0,0,0-.079-.662.726.726,0,0,0-.793-.158c-.848.581-.08,1.613-.266,2.488a2.373,2.373,0,0,1-.849,1.616,1.519,1.519,0,0,0-.977,0c.873-.953.794-2.412.741-3.682a1.834,1.834,0,0,1,.687-1.138,2.076,2.076,0,0,1,1.853,0m6.172,3.548.53.028-.109,1.349-.527-.051Zm.74-2.091c.265-.319.372-.716.636-1.034l.425.264a6.424,6.424,0,0,1-.663,1.165c-.134-.105-.584-.158-.4-.4m3.655-2.834c.16.054.106.317.16.477a5.193,5.193,0,0,1-1.3.344.931.931,0,0,1-.08-.531Zm3.947.821c.212.107.449.054.5-.186-.109-.8.609-1.43.766-2.2a1.542,1.542,0,0,0,1.405-2.092c-.079-.079-.215-.213-.294-.054-.078.451-.263,1.035-.792,1.167a5.287,5.287,0,0,1-2.569-.133c-.769.187-1.615.158-2.172.821a.679.679,0,0,1-.8-.053c-.131-.106-.291-.318-.079-.423.265-.187.741.025.953-.319a.6.6,0,0,0-.424-.635c-.529-.319-1.323.9-1.3-.213l.106-.74a1.043,1.043,0,0,0,.874.157c.161-.053.319-.237.239-.4-.239-.45-.556.027-.874,0,.053-.345.5-.37.768-.5a4.353,4.353,0,0,0,2.754-1.351c.69-.212,1.482.343,2.119-.133a2.786,2.786,0,0,1,1.269-1.377c.081.662.4,1.51-.157,2.065a.357.357,0,0,0,.475.107c.187-.107.187-.319.267-.5a4.914,4.914,0,0,1,2.171,5.244,10.818,10.818,0,0,1-1.058,2.835c-.027,0-.185-.291-.372-.265a.651.651,0,0,0-.106-.714c-.4,0-.528.581-.981.395a.6.6,0,0,0-.21.426c.079.1.21.051.289.184.027.239-.183.372-.368.424a.612.612,0,0,1-.663-.424c-.03-.132-.079-.37.027-.449.183.054.5.424.556,0,0-.265.5-.555.08-.742l-.32-.079c.054-.159.265-.238.239-.45a2.206,2.206,0,0,0-.9-.345c-.132.107-.08.265-.08.423-.186.079-.264-.211-.452-.157a5.126,5.126,0,0,0-.315.874l.475.158a.786.786,0,0,1-.794.372c-.158-.108-.4-.187-.45-.4a.253.253,0,0,1,.186-.318m1.27-9.72a3.888,3.888,0,0,1,1.509-1.136,2.857,2.857,0,0,1-1.562,2.2c-.262-.291-.052-.742.054-1.061m3.734-.608c0,1.007-1.085,1.563-1.378,2.462-.21-.051-.237-.316-.316-.476-.133-1.059.952-1.561,1.694-1.986m1.855,1.271c-.213,1.191-1.588,1.272-2.174,2.172-.237,0-.211-.264-.29-.4.211-1.191,1.563-1.377,2.464-1.775m1.693,2.011a6.621,6.621,0,0,1-3.15,1.114c-.159-.079-.08-.319-.054-.451.8-.793,2.066-.582,3.2-.663m.661,2.04c-.821.583-2.144.451-3.176.344-.212-.079-.158-.317,0-.45.98-.635,2.171-.053,3.176.106m.135,1.934c-.981.264-2.438.4-3.152-.4-.027-.186.16-.265.289-.344a8,8,0,0,1,2.863.742m-.426,1.827a2.55,2.55,0,0,1-2.778-.822.267.267,0,0,1,.237-.293,10.381,10.381,0,0,1,2.541,1.114m-3.019.792c-.052-.079,0-.212-.025-.316a.524.524,0,0,1,.557-.027l1.693,1.272a2.552,2.552,0,0,1-2.225-.928m-.5,1.431a.754.754,0,0,1-.027-.635.765.765,0,0,1,.346,0l1.3,1.669a2.516,2.516,0,0,1-1.614-1.034m-.717,1.324c-.079-.185-.025-.45.161-.476.609.186.821.954,1.323,1.323a1.594,1.594,0,0,1-1.484-.848m-1.059-.239c-.106-.051-.237-.051-.316-.185a.333.333,0,0,1,.185-.37c.13-.026.291,0,.291.159.053.16-.079.293-.161.4m3.521,4.158a1.516,1.516,0,0,1,1.14.293,38.075,38.075,0,0,1-5.007,1.137c1.273-.291,2.544-1,3.867-1.43m14.7,3.6a30.744,30.744,0,0,0,4.768-3.125,65.267,65.267,0,0,1-10.011.795c-.266-.079-.055-.5-.214-.688-.924-1.35-3.016-.953-4.554-.9-1.06-.107-2.33,1.111-3.071-.186a2.944,2.944,0,0,0-1.8-.4c-1.14.265-2.171.953-3.311,1.139a5.257,5.257,0,0,0,0-2.49c.027-.184.054-.4.239-.477a2.133,2.133,0,0,0,2.011,1.113c.027-.292-.422-.5-.476-.795.717.318,1.7.025,2.383.4-.025-.583-.794-1.085-1.111-1.483a10.95,10.95,0,0,1,1.692.107,4.2,4.2,0,0,0-1.162-1.748l1.219.025c.37-.053.821,0,1.164-.053a2.949,2.949,0,0,0-1.484-1.456l1.165-.158c.346-.158.876.025,1.191-.158a5.169,5.169,0,0,0-1.985-1.486l1.748-.475c.237,0,.584.052.714-.053a4.026,4.026,0,0,0-1.987-1.272v-.054c.4-.079.689-.422,1.036-.635.237-.157.606-.132.764-.369a5.077,5.077,0,0,0-2.327-.9v-.081c.527-.317.952-.821,1.482-1.137V15.1a5.21,5.21,0,0,0-2.94-.5,2.313,2.313,0,0,0,.5-1.034c.135-.344.425-.635.558-.925a4.532,4.532,0,0,0-2.517.4l.45-1.8-.08-.052a4.766,4.766,0,0,0-2.408.952,4.814,4.814,0,0,1,.291-1.589,4.889,4.889,0,0,0-1.933.637c-.8.424-1.641,1.137-1.538,2.119-.051.051-.21.025-.182.158a1.548,1.548,0,0,1,.449.9,1.122,1.122,0,0,1-.476-.689.768.768,0,0,0-.955-.424,1.468,1.468,0,0,1,.371.821c-.475-.238-.45-.766-.821-1.085a.66.66,0,0,0-.661-.053l.343.584-.055.079c-.5-.239-.422-.795-.872-1.06a.6.6,0,0,0-.663,0c.132.239.4.477.372.742-.609-.238-.794-1.535-1.642-1.086.185.185.423.372.423.609-.53-.134-.554-.715-.952-.979-.212-.079-.478-.187-.638-.054a.678.678,0,0,1,.265.531c-.369-.054-.344-.452-.634-.637a.67.67,0,0,0-.794-.291c.079.161.266.344.238.5-.344-.158-.317-.686-.769-.768a.327.327,0,0,0-.265.4.99.99,0,0,0,.45.423c.794-.13,1.166.77,1.987.583a1.577,1.577,0,0,0,1.3.531,1.621,1.621,0,0,0,1.247.449c.37.637,1.218.054,1.587.742.292.265.954-.053,1.035.4h-.08c-.979-.5-1.694.319-2.435.767-.9.4-2.068.345-2.755,1.139-.133.821-.531,1.8-.053,2.6.106.079.346.108.239.319l.9.979c.29.238.742.158,1.111.132a3.283,3.283,0,0,1,3.389-.476c-.079.372-.182.821-.633.954-.161.107-.082.476-.4.344-.292,0-.4.319-.4.555l.291.108a.254.254,0,0,1,0,.37.618.618,0,0,1-.634.132.545.545,0,0,1-.344-.662c.13-.026.211.187.344.107-.027-.316.158-.53.158-.794l-.372-.052c0-.186.24-.344.187-.53a1.839,1.839,0,0,0-.928-.027l-.1.61-.742.079c-.135-.106-.079-.344-.291-.4l-1.775.37c-.32.027-.74.265-.529.662-.346.291-.742,1.272-1.3.663-.45.5-.769,1.19-1.191,1.746a.451.451,0,0,0,.212.717,1.682,1.682,0,0,1-.265.795.489.489,0,0,0-.528.184l-.161,2.2c.079.237.346.184.5.291-.025.1.054.265-.05.344-2.3-.053-4.319.662-6.516.714a3.023,3.023,0,0,0-.874-1.43A3.733,3.733,0,0,0,333,25.881a1.988,1.988,0,0,0,1.827-.8,18.276,18.276,0,0,0,4.658-.13l-.079-.079c-.262-.24.054-.451.079-.663a24.907,24.907,0,0,1-4.448,0c.187-1.377-1.164-2.119-1.931-3.019a2.447,2.447,0,0,1,.527-.372c1.882-.158,3.419.928,5.351.689a3.209,3.209,0,0,0,2.727-2.144,3.292,3.292,0,0,0-.475-2.939c-1.243-1.43-3.417-1.3-5.083-.874-.8.1-1.961.714-2.569-.161a1.653,1.653,0,0,1-.029-1.323c-.369-.053-.581.292-.822.478a2.951,2.951,0,0,0-.129,2.7,1.972,1.972,0,0,1-1.087-1.3h-.053a2.514,2.514,0,0,0,.08,1.961,2.9,2.9,0,0,0,1.587,1.3,4.729,4.729,0,0,0-1.244.662c-.21-.132-.343-.451-.557-.662-.185-.29-.822-.184-.662-.555.4-1.219-.768-1.933-1.537-2.674a3.122,3.122,0,0,0-2.036-2.7,2.3,2.3,0,0,0-2.57.662,2.079,2.079,0,0,0-.477,1.7A7.092,7.092,0,0,0,322.486,15a1.014,1.014,0,0,0-.035.746,8.445,8.445,0,0,1,2.138,1.161H326a1.069,1.069,0,0,0,.755-.373.876.876,0,0,0,.158-.979.718.718,0,0,0-.77-.5c-.4,0-.475.3-.475.584,0,.249.121.291.267.265s.066-.228.158-.344c.06-.076.124-.176.211-.133a.5.5,0,0,1,.266.37.662.662,0,0,1-.451.716.847.847,0,0,1-.98-.239,1.112,1.112,0,0,1-.185-1.244,1.33,1.33,0,0,1,.821-.9,1.525,1.525,0,0,1,1.617.265,1.709,1.709,0,0,1,.581,2.2,1.545,1.545,0,0,1-1.51.9v1.191a9.533,9.533,0,0,1,2.395,6.405,10.105,10.105,0,0,1-8.7,10.116l-.734.8a11.021,11.021,0,0,0,5.527-1.876c1.747-.689,2.383,1.882,4.131,1.376a2.392,2.392,0,0,0,1.271-1.033,11.963,11.963,0,0,0,3.1.16c1.826-.081,3.5-.715,5.269-.662.026.369-.054.821.212,1.085a20.912,20.912,0,0,0,7.045.317,2.069,2.069,0,0,0,1.775-.026c1.214-.212,2.329.212,3.521.237a1.238,1.238,0,0,0,1.27-.528,73.906,73.906,0,0,1,7.6-1.722c.344.027.132.583.238.848.29.477.9.424,1.378.556a56.545,56.545,0,0,0,13.9-.741,52.062,52.062,0,0,1-5.747-1.774" transform="translate(-168.6 -5.568)" fill="#3d5065"/>
      <path id="Path_447" data-name="Path 447" d="M348.065,45.647l3.336-.688c.292-.158.821-.054.927-.424-1.323.237-2.621.53-3.973.661-.237.028-.185.293-.29.451" transform="translate(-183.718 -23.507)" fill="#3d5065"/>
      <path id="Path_448" data-name="Path 448" d="M347.769,47.119c1.536-.29,3.045-.555,4.5-.978.186-.081.474-.081.449-.373-1.666.53-3.523.637-5.215,1.035Z" transform="translate(-183.423 -24.158)" fill="#3d5065"/>
      <path id="Path_449" data-name="Path 449" d="M353.2,47.807l.106-.186c-1.563.344-3.259.583-4.848.874l.133.319a37.725,37.725,0,0,0,4.609-1.007" transform="translate(-183.924 -25.136)" fill="#3d5065"/>
      <path id="Path_450" data-name="Path 450" d="M348.762,43.836l-.025.316a20.2,20.2,0,0,0,2.861-.61l.106-.184Z" transform="translate(-184.073 -22.886)" fill="#3d5065"/>
      <path id="Path_451" data-name="Path 451" d="M409.511,51.094l.341.048v1.6l-.235.03.009.221,1.369.151,0-.241-.3-.093-.045-1.6a1.311,1.311,0,0,1,.273.138.322.322,0,0,1,.084.268l.216.077s0-.543,0-.55a5.057,5.057,0,0,0-2.017-.323l-.019.766.2-.031Z" transform="translate(-215.984 -26.822)" fill="#3d5065"/>
      <path id="Path_452" data-name="Path 452" d="M407.279,52.678l-.213-.008-.176-1.528.281-.033-.081-.294-1.428.161.026.265.212-.028.212,1.563-.212.079.027.265,1.375-.168Z" transform="translate(-214.12 -26.822)" fill="#3d5065"/>
      <path id="Path_453" data-name="Path 453" d="M395.018,53.909c.026.032-.177-.689-.177-.689a.39.39,0,0,1,.585.209c.121.321-.22.447-.408.48m1.169-.755c-.092-.45-.7-.442-1.285-.327.025.006-1.132.34-1.132.34l.057.217.161-.045.391,1.525-.136.193.083.2L395.44,55l-.124-.306-.091.023-.116-.55s.3-.026.393.067a3.244,3.244,0,0,1,.388.685l.848-.247-.684-.781s.276-.036.133-.732" transform="translate(-207.843 -27.849)" fill="#3d5065"/>
      <path id="Path_454" data-name="Path 454" d="M401.431,53.566c-.339.107-.426-.178-.587-.706-.148-.484-.34-.965.045-1.077s.563.432.673.83c.151.546.221.844-.131.953m.344-1.985a1.787,1.787,0,0,0-1.429.186c-.476.237-.531.741-.476,1.245a1.2,1.2,0,0,0,.636.767,1.9,1.9,0,0,0,1.375-.1,1.2,1.2,0,0,0-.1-2.093" transform="translate(-211.053 -27.189)" fill="#3d5065"/>
      <path id="Path_455" data-name="Path 455" d="M323.471,53.015l-.212-.054c.1-.133.4-.159.318-.4-.5-.426-1.14-.239-1.775-.293l-.106-.079c.265-.291.741-.133,1.086-.133.159.027.344-.133.239-.291a6.109,6.109,0,0,0-1.508.291c-.106.107-.055.239.025.344.557.079,1.323-.187,1.746.238l-.13.052c-.691-.291-1.483.186-2.145-.159l.106-.211a1.466,1.466,0,0,0-1.006-.238c-.133.159.1.4-.053.582-.319,0-.159-.319-.24-.476l-.369-.026c-.212.105-.026.291-.079.424.318.132.448.5.688.714-.1.135-.319.4-.451.135-.158.051-.371.1-.423.263.316.638.9.028,1.3-.051l.109.051c.237-.344.66-.344.951-.423.213.264-.24.237-.343.4-.134.132-.345-.133-.424.1,0,.107-.106.187,0,.292.424.159.742-.317,1.19-.292.318-.025,0-.317.237-.449.185-.159.452-.265.611,0l-.186.185c-.131-.026-.161-.237-.317-.159a.2.2,0,0,0-.079.186c-.029.291.289.238.423.319a2.824,2.824,0,0,0,.821-.848" transform="translate(-168.472 -27.326)" fill="#3d5065"/>
      <path id="Path_456" data-name="Path 456" d="M319.464,27.8h4.767v5.3h-4.767Zm-.4,5.72h5.67V27.374h-5.67Z" transform="translate(-168.412 -14.449)" fill="#3d5065"/>
      <path id="Path_457" data-name="Path 457" d="M320.156,49.261c.214-.026.427-.265.585-.186.106.027.079-.1.157-.133.507-.1.956-.449,1.537-.316-.025.053,0,.186-.1.186-.239.237-.821,0-.848.449.106.028.186.186.344.132.21-.264.555-.185.873-.211.556.159.106-.451.556-.5.292.051.716-.133.927.158A.153.153,0,0,1,324.1,49c-.079.079-.183.027-.237-.054a.166.166,0,0,0-.266.081c.028.317.32.266.5.369a1.363,1.363,0,0,0,.56-.9c-.214-.053-.424,0-.584-.157.16,0,.4-.133.343-.345-.528-.61-1.535-.186-2.3-.265l-.1-.081c.344-.345,1.086.028,1.269-.449-.025-.079-.13-.079-.183-.079-.4.317-1.113.026-1.351.528.556.636,1.43-.026,2.172.186.1-.025.291.132.213.212a15.347,15.347,0,0,1-2.916-.079,1.094,1.094,0,0,0,.134-.264,2.489,2.489,0,0,0-1.14-.265c0,.239.08.423-.054.609-.077.107-.184-.026-.236-.079-.108-.132,0-.212.028-.318-.055-.263-.295-.051-.452-.159-.158.053-.077.265-.158.4.449.078.371.687.769.795a.991.991,0,0,1-.319.263c-.1-.051-.079-.184-.185-.158-.159.107-.45.079-.423.345.21.583.583,0,.977.132" transform="translate(-168.47 -24.87)" fill="#3d5065"/>
      <path id="Path_458" data-name="Path 458" d="M319.357,44.779c.131.079.265-.025.4-.053.369.053.661-.37.979-.263a3.063,3.063,0,0,1,1.88-.477l-.131.263c-.294.107-.8-.052-.9.264,0,.265.29.161.448.24.294-.344.848,0,1.14-.29-.24-.24.183-.293.264-.451.317.186.821-.239.978.238-.131.293-.343-.212-.528.053-.053.319.266.344.477.451a.992.992,0,0,0,.529-.928c-.186-.053-.4,0-.529-.157.106-.16.425-.079.371-.345-.663-.662-1.722-.053-2.57-.318,0-.054,0-.079.026-.106.372-.292,1.085.238,1.221-.343-.057-.108-.161-.054-.239-.054-.344.345-1.14-.081-1.271.53.052.158.239.184.37.209.715.053,1.588-.342,2.171.107a10.464,10.464,0,0,1-3.283-.054l.052-.212a1.179,1.179,0,0,0-1.06-.236c-.025.132.081.236.053.37-.053.078-.025.265-.21.238-.238-.078-.131-.29-.106-.476-.052-.186-.264-.053-.371-.132-.238.025-.158.29-.238.448.317.187.477.558.767.821-.29.426-.634-.184-.874.318-.054.159.159.212.186.344" transform="translate(-168.462 -22.427)" fill="#3d5065"/>
      <path id="Path_459" data-name="Path 459" d="M307.762,41.6V32.389h6.567c.126,3.037.027,5.642-2.648,6.859-1.323.663-2.886,1.165-3.919,2.356m0-16.63h6.461v6.913h-6.461Zm-.5,6.913h-6.411V24.973h6.411s.023,4.634,0,6.913m0,9.691c-1.483-1.616-3.347-1.639-5.111-3.2-1.5-1.323-1.3-4.038-1.3-5.985h6.411Zm-7.231-5.429a8.43,8.43,0,0,1,0-8.262Zm15.123-8.315a8.269,8.269,0,0,1,1.071,4.193,8.523,8.523,0,0,1-1.071,4.188Zm-2.423,11.8a9.509,9.509,0,0,0,3.425-4.31,9.18,9.18,0,0,0,.152-6.2,7.9,7.9,0,0,0-1.234-2.415V24.073h-2.934l-1-.543-.582.181.644.362h-7.251l.714-.316-.645-.182a8.57,8.57,0,0,1-1.1.5h-2.965v2.781a9.509,9.509,0,0,0-1.128,7.892,9.375,9.375,0,0,0,3.637,4.891c1.907.873,3.786,1.639,5.136,3.546.948-1.835,2.872-2.508,5.134-3.546" transform="translate(-157.504 -12.42)" fill="#3d5065"/>
      <path id="Path_460" data-name="Path 460" d="M304.564,29.257a2.014,2.014,0,0,0,1.192-.451c.1.239.184-.025.319-.051.555-.081,1.032-.5,1.615-.293l-.029.027c-.079.371-.634.291-.953.343-.106.319.161.4.4.4.344-.263.927-.026,1.217-.317-.237-.212.16-.212.214-.424.317.184.821-.238.979.238l-.079.054a.745.745,0,0,1-.319-.107.129.129,0,0,0-.079.159c-.106.319.265.346.448.4.4-.158.451-.582.506-.952-.187-.106-.373.052-.506-.132.133-.053.425-.133.319-.373-.475-.5-1.4-.264-2.038-.237-.133.026-.318.026-.318-.159.106-.159.346-.055.531-.079.263.025.608-.026.5-.319l-.16-.051c-.29.315-.792.078-1.111.315-.029.134-.054.319.079.4.69.158,1.509-.238,2.225.081a.1.1,0,0,1-.029.158,14.14,14.14,0,0,1-3.175-.108l.079-.211c-.317-.159-.716-.451-1.137-.24-.027.187.21.5-.106.611-.4-.134,0-.372-.187-.583-.106.026-.344-.053-.475.052-.292.557.475.742.663,1.165l-.079.079c-.108.079-.267.159-.294-.027-.211-.077-.29.161-.448.186-.16.213.158.372.237.451" transform="translate(-160.608 -14.213)" fill="#3d5065"/>
      <path id="Path_461" data-name="Path 461" d="M307.176,45.961l2.015,1.27-.079.5-2.384-1.483-.185-.37c.131-.265.45-.054.633.079m.135-.953c.661.424,1.349.8,1.959,1.27l-.052.451a10.741,10.741,0,0,1-2.092-1.323Zm.5-.662,1.536.9-.052.451a13.322,13.322,0,0,1-1.749-1.033Zm1.615-.29-.052.688a4.05,4.05,0,0,1-1.114-.688Zm-.4,4.741c-.742-.4-1.775-.928-2.015-1.856.717.4,1.4.848,2.065,1.3-.079.161,0,.4-.05.559m-.532.5c.532.29.927.847,1.511.979a70.5,70.5,0,0,0,.211-7.1h-3.1c-.69.053-.267.953-.742,1.271-.108.079-.373.159-.452-.053a.613.613,0,0,1,.294-.53c.079-.211.185-.53,0-.714a.952.952,0,0,0-.8-.16.825.825,0,0,0-.371.477.781.781,0,0,0,.264.874.9.9,0,0,1-.344.583.459.459,0,0,0,.131.582A4.875,4.875,0,0,0,308.5,49.3" transform="translate(-160.945 -22.681)" fill="#3d5065"/>
      <path id="Path_462" data-name="Path 462" d="M324.545,29.274a.366.366,0,0,0-.448-.239,1.736,1.736,0,0,0-.319,1.881c0,.4.954.794.37,1.059a3.353,3.353,0,0,1-1.008-.821,1.557,1.557,0,0,1,.161-1.191c.133-.319-.052-.609.186-.874-.159-.053-.238-.186-.371-.265a1.129,1.129,0,0,0-1.006.291c-.054.265.211.212.371.239.028.211-.371.026-.289.29l.289.133a1.09,1.09,0,0,1-.608.344,1.135,1.135,0,0,1-.769-.662l.161-.133c.025-.317-.347-.212-.5-.317-.026.185-.317.212-.292.45.4.344.663.927,1.111,1.219a2.1,2.1,0,0,1-.265.186c-.129.079-.4.079-.4-.161-.343-.13-.185.293-.45.318.082.212-.054.293.025.5l.24.027c.371-.4.846-.237,1.3-.5l.29.5-.4.107c-.317.237.291.449,0,.688-.185.184-.4-.053-.45-.211-.319-.107-.161.315-.423.315-.186.239.213.213.1.477a.428.428,0,0,0,.24.133c.184-.37.635-.265.955-.424.185-.026.447-.318.237-.476.158.025.289-.107.4.025-.158.583.663.424.634.874-.08-.025-.1-.158-.238-.1-.185.238-.239.474,0,.689.291-.134.69-.4.769-.742.027-.318-.266-.373-.45-.53a2.024,2.024,0,0,1,.08-.4c.158.107.291.264.5.24a.374.374,0,0,0,.265-.53,1.973,1.973,0,0,1-.634-2.04c.05-.132.106-.423.343-.344.29.291-.158.528-.133.821,0,.212.212.291.345.423.1.028.315.108.344-.079-.373-.264-.318-.766-.266-1.19" transform="translate(-169.15 -15.209)" fill="#3d5065"/>
      <path id="Path_463" data-name="Path 463" d="M309.164,33.1c-.106,0-.079.135-.079.212.052.239.319.214.477.293a1.251,1.251,0,0,0,.527-.928c-.159-.079-.424.054-.527-.132.131-.026.316-.159.316-.317-.529-.741-1.562-.161-2.357-.372.213-.4.846-.025,1.14-.318.079-.079,0-.211-.079-.237-.4.212-.9.132-1.273.318a.274.274,0,0,0,.107.449c.741.161,1.615-.315,2.2.161l-.079.105c-1-.266-2.065.161-3.017-.078-.292-.053.052-.187,0-.344h-.159c-.237-.319-.69-.158-.954-.239-.211.185.158.293,0,.5a.161.161,0,0,1-.29.079c-.185-.133.025-.265,0-.424-.108-.212-.266.025-.425-.107-.131.053-.158.212-.187.319-.026.159.16.212.266.264.079.291.475.449.4.715-.079.053-.265.239-.344,0-.211-.079-.289.186-.448.239-.029.212.1.265.237.4a4.155,4.155,0,0,0,1.271-.372c.134.107.134-.079.24-.133a5.12,5.12,0,0,1,1.667-.345c-.081.054.027.24-.131.24-.239.026-.427.263-.662.132-.159-.027-.24.131-.212.265-.027.238.239.13.371.184.292-.29.875-.212,1.271-.184-.292.291-.821.051-1.165.315a.293.293,0,0,0,.1.373c.716.184,1.51-.212,2.225.1.055.028.025.132-.025.159-1.086-.238-2.146.186-3.2-.13a.2.2,0,0,0,.052-.266h-.131c-.214-.344-.662-.132-.956-.185-.05.239.161.451-.05.61-.344-.055-.159-.345-.266-.53-.132.026-.29-.106-.448.026a1.234,1.234,0,0,0,0,.449c.316.108.4.5.714.663l-.133.159c-.107.132-.292.025-.371-.079-.159.1-.475.158-.371.424.133.293.423.132.635.132.371.025.636-.345.927-.238a4.144,4.144,0,0,1,1.746-.557c.215,0,.029.185.029.292a5.792,5.792,0,0,1-.9.1c0,.107-.16.239,0,.318.369.186.821-.132,1.269-.028.583.054.027-.474.559-.606.316.1.66-.081.924.157,0,.37-.264,0-.423.079-.079.025-.053.107-.053.186-.053.29.294.211.452.316a1.363,1.363,0,0,0,.5-.953c-.186.028-.371.054-.5-.1.131-.054.422-.158.316-.4-.581-.53-1.51-.184-2.223-.238l-.134-.106.1-.079c.294-.187.9.132,1.008-.319,0-.158-.212-.079-.267-.079,0-.107.029-.212-.025-.265.212-.528.794-.184,1.19-.184.054.079.133.158.029.238-.186.079-.24-.132-.4-.107" transform="translate(-160.653 -16.521)" fill="#3d5065"/>
      <path id="Path_464" data-name="Path 464" d="M388.244,29.07c0,.107.132.133.209.161a4.987,4.987,0,0,0,.772-3.018,2.972,2.972,0,0,0-.9-2.146c-.109,0-.161.1-.161.212.981,1.376.608,3.363.08,4.792" transform="translate(-204.883 -12.703)" fill="#3d5065"/>
      <path id="Path_465" data-name="Path 465" d="M378.743,21.609l.371.265c-.109.159-.319.159-.5.186,0-.107.133-.265.133-.451m-.9.265c.053-.133.079-.291.24-.372l.052.425Zm.24-.8c-.451,0-.53.476-.794.688a1,1,0,0,0,.794.477,1.6,1.6,0,0,0,1.614-.37c-.531-.265-.929-.9-1.614-.8" transform="translate(-199.142 -11.12)" fill="#3d5065"/>
      <path id="Path_466" data-name="Path 466" d="M16.193,99.445v-.919c-2.193,0-3.563-.507-3.563-2.816V80.139c4.333,0,5.362.779,5.766,4.2h1.019V78.113H0v6.221H1.016c.4-3.417,1.433-4.2,5.766-4.2v15.57c0,2.309-1.369,2.816-3.562,2.816v.919Z" transform="translate(0 -41.23)" fill="#3d5065"/>
      <path id="Path_467" data-name="Path 467" d="M56.428,89.208v6.5c0,2.068-1.117,2.758-2.916,2.817v.923H64.891v-.923c-2.067,0-2.876-.509-2.876-2.817V81.851c0-2.308.809-2.817,2.876-2.817v-.921H53.513v.921c1.8.06,2.916.747,2.916,2.817v5.638H49.1V81.851c0-2.07,1.117-2.757,2.916-2.817v-.921h-10.5v.921c1.414.3,1.994.508,1.994,2.817V95.705c0,2.308-.808,2.817-2.876,2.817v.923h11.38v-.923c-1.8-.058-2.916-.749-2.916-2.817v-6.5Z" transform="translate(-21.449 -41.23)" fill="#3d5065"/>
      <path id="Path_468" data-name="Path 468" d="M112.115,99.445V93.113h-.747c-1.2,4.555-2.636,4.831-4.615,4.831h-2.636c-1.259,0-1.5-.421-1.5-1.559V89.175c3.188.052,5.409-.353,5.612,2.679h.806v-6.8h-.806c-.2,2.659-2.554,2.4-5.612,2.4V79.612h3.356c3.417,0,4.885,1.319,5.215,4.555h.658V78.113H94.231v.921c2.069,0,2.877.509,2.877,2.817V95.705c0,2.308-.808,2.817-2.877,2.817v.923Z" transform="translate(-49.738 -41.23)" fill="#3d5065"/>
      <path id="Path_469" data-name="Path 469" d="M154.728,98.95l.6.013a1.281,1.281,0,0,1,1.178-1.031c1.2,0,2.206,1.435,6.8,1.435a6.782,6.782,0,0,0,6.714-7.219c0-7.321-11.713-6.059-11.713-11,0-1.826,1.686-2.7,3.566-2.7,2.795,0,4.765,2.13,5.634,4.855h.647V77.5h-.911c-.149.46-.252.764-.705.764-1.06,0-1.918-1.313-4.989-1.313-3.745,0-7.633,1.615-7.633,6.313,0,7.847,11.865,6.764,11.865,11.68,0,1.6-1.839,2.928-4.039,2.928a6.759,6.759,0,0,1-6.413-5.422h-.846Z" transform="translate(-81.243 -40.617)" fill="#3d5065"/>
      <path id="Path_470" data-name="Path 470" d="M475.138,99.445v-.863c-1.77,0-2.47-1.114-2.47-3.42V82.274c0-2.306.492-3.22,2.159-3.22v-.941h-9.966v.941c1.69,0,2.187.914,2.187,3.22V95.161c0,2.306-.7,3.42-2.5,3.42v.863Z" transform="translate(-245.203 -41.23)" fill="#3d5065"/>
      <path id="Path_471" data-name="Path 471" d="M503.119,99.445l6.616-17.137V95.161c0,2.549-.456,3.152-2.879,3.42v.863h11.227v-.863c-2.695-.268-2.878-1.114-2.878-3.42V82.475c0-2.861.487-3.012,2.878-3.421v-.941h-8.753L504.079,92l-5.16-13.889h-8.727v.941c2.038,0,2.846,1.114,2.846,3.421V95.489c0,2.306-.418,2.723-2.846,3.092v.863h7.627v-.863c-2.778-.42-2.88-.786-2.88-3.092V83.22l6.515,16.225Z" transform="translate(-258.737 -41.23)" fill="#3d5065"/>
      <path id="Path_472" data-name="Path 472" d="M570.286,99.445V93.113h-.747c-1.2,4.555-2.637,4.831-4.615,4.831h-2.636c-1.259,0-1.5-.421-1.5-1.559V89.175c3.188.052,5.406-.353,5.611,2.679h.805v-6.8H566.4c-.2,2.659-2.556,2.4-5.611,2.4V79.612h3.355c3.417,0,4.885,1.319,5.214,4.555h.661V78.113H552.4v.921c2.067,0,2.879.509,2.879,2.817V95.786c0,2.307-.812,2.817-2.879,2.817v.842Z" transform="translate(-291.573 -41.23)" fill="#3d5065"/>
      <path id="Path_473" data-name="Path 473" d="M594.94,98.95h.605a1.264,1.264,0,0,1,1.176-1.018c.62,0,3.43,1.435,6.8,1.435a6.783,6.783,0,0,0,6.713-7.219c0-7.321-11.713-6.059-11.713-11,0-1.826,1.687-2.7,3.564-2.7,2.8,0,4.766,2.13,5.634,4.855h.649V77.5h-.909c-.154.46-.254.764-.708.764-1.061,0-1.92-1.313-4.99-1.313-3.744,0-7.631,1.615-7.631,6.313,0,7.847,11.864,6.764,11.864,11.68,0,1.6-1.837,2.928-4.041,2.928a6.755,6.755,0,0,1-6.41-5.422H594.7Z" transform="translate(-313.599 -40.617)" fill="#3d5065"/>
      <path id="Path_474" data-name="Path 474" d="M438.225,99.445v-.919c-2.193,0-3.563-.507-3.563-2.816V80.139c4.336,0,5.363.779,5.766,4.2h1.018V78.113H422.032v6.221h1.015c.4-3.417,1.433-4.2,5.766-4.2v15.57c0,2.309-1.366,2.816-3.562,2.816v.919Z" transform="translate(-222.76 -41.23)" fill="#3d5065"/>
      <path id="Path_475" data-name="Path 475" d="M211.435,79.054c1.2,0,1.6.3,2.65,1.557V95.686c0,2.306-1.058,2.816-3.255,2.816v.943h8.605V98.5c-2.37,0-3.415-.51-3.415-2.816V83.776h.06l12.066,15.669h2.525v-17.1c0-2.308.757-3.131,2.876-3.288v-.941h-7.371v.941c2.121.409,2.575.979,2.575,3.288V91.3h-.058l-9.837-13.184H203.471v.941c1.918.06,2.837.959,2.837,2.816V92.307c0,3.954-1.287,5.451-4.516,5.451-2.038,0-4.493-.956-4.493-4.134V81.87c0-2.308.81-2.816,2.876-2.816v-.941H188.948v.941c2.068,0,2.876.508,2.876,2.816V93.225c0,5.093,3.535,6.807,8.389,6.807,5.316,0,8.127-1.864,8.127-6.869V81.87c0-2.308.976-2.816,3.095-2.816" transform="translate(-99.732 -41.23)" fill="#3d5065"/>
      <path id="Path_476" data-name="Path 476" d="M294.085,79.635c5.605-.656,7.875,3.751,7.875,8.6,0,7.046-1.864,9.573-5.907,9.573-1.325,0-1.968-.477-1.968-2.213Zm-5.553,16.052c0,2.306-.807,2.816-2.874,2.816v.942H296.3c6.71,0,11.265-2.8,11.265-10.639,0-7.908-4.555-10.693-11.265-10.693H285.658v.941c2.067,0,2.874.508,2.874,2.816Z" transform="translate(-150.778 -41.23)" fill="#3d5065"/>
      <path id="Path_477" data-name="Path 477" d="M339.375,90.236h-5.25l2.625-7.752Zm10.6,7.5a2.813,2.813,0,0,1-2.778-1.984l-6.816-19.126-3.888,1.01-6.039,17.253a3.772,3.772,0,0,1-3.856,2.847v.923h8.484v-.923c-1.828,0-3.034-.568-3.034-1.348a4.656,4.656,0,0,1,.39-1.677l1.091-2.634h6.349l1.388,3.113a4.532,4.532,0,0,1,.329,1.437,1.1,1.1,0,0,1-1.229,1.109h-1.65v.923h22.87v-.942c-2.065,0-3.282-.51-3.282-2.816V88.594l5.049-8.047a4.053,4.053,0,0,1,3.838-2.277v-.941h-7.727v.941c1.2,0,2.044.328,2.044,1.168a4.144,4.144,0,0,1-.63,1.887l-3.432,5.148L354.422,81.3a5.97,5.97,0,0,1-.841-2.1c0-.539.479-.929,1.678-.929v-.941H343.92v.941c1.168.21,2.524.056,3.531,1.616l5.424,8.708V94.9c0,2.306-1.317,2.827-2.9,2.835" transform="translate(-172.389 -40.446)" fill="#3d5065"/>
    </g>
  </g>
</svg>
