<svg id="Layer_1-2" xmlns="http://www.w3.org/2000/svg" width="289.74" height="289.74" viewBox="0 0 289.74 289.74">
  <circle id="Ellipse_94" data-name="Ellipse 94" cx="144.87" cy="144.87" r="144.87" transform="translate(0 0)" fill="#e0fbfd"/>
  <g id="Group_606" data-name="Group 606" transform="translate(43.37 56.254)">
    <path id="Path_761" data-name="Path 761" d="M218.248,134.272c-1.6,3.712-4.454,4.968-8.394,4.8-4.682-.228-9.365-.057-14.3-.057,1.171,3.826,2.284,7.48,3.4,11.135,2.627,8.565-1.228,15.161-9.936,17.1-4.711,1.028-9.393,2.141-14.1,3.169a2.154,2.154,0,0,0-1.913,1.884c-1.028,4.768-2.141,9.536-3.169,14.3-1.856,8.394-8.594,12.334-16.874,9.822-4.682-1.428-9.365-2.8-13.99-4.311a2.225,2.225,0,0,0-2.741.742c-3.455,3.826-7,7.566-10.535,11.335a11.944,11.944,0,0,1-17.788.228c-3.569-3.655-7.024-7.366-10.393-11.192a3.013,3.013,0,0,0-3.74-.971c-4.711,1.542-9.451,2.969-14.19,4.368-7.309,2.113-13.99-1.713-15.817-9.136q-1.842-7.409-3.341-14.875a2.568,2.568,0,0,0-2.4-2.313c-4.711-.942-9.422-2.084-14.1-3.141-8.109-1.827-12.077-8.68-9.65-16.674,1.142-3.712,2.284-7.423,3.512-11.335-.771-.057-1.4-.114-2.027-.114H22.071c-4.34,0-6.881-2.541-6.881-6.938V95.985c0-3.512,1.456-5.453,4.825-6.652a4.587,4.587,0,0,0,1.085-.457c4.6-3,9.165-6,13.847-9.051-.286-1-.542-1.941-.828-2.884-2.141-7.48,1.827-14.276,9.393-16.017,4.882-1.114,9.793-2.227,14.7-3.255a2.371,2.371,0,0,0,2.17-2.084c.971-4.8,2.113-9.536,3.169-14.3,1.827-8.166,8.594-12.163,16.588-9.765,4.74,1.428,9.479,2.855,14.19,4.4a2.187,2.187,0,0,0,2.712-.742c3.341-3.683,6.738-7.281,10.107-10.907,5.71-6.081,13.391-6.081,19.1,0,3.312,3.512,6.624,7.024,9.85,10.621a2.769,2.769,0,0,0,3.4.971c4.768-1.57,9.565-3.026,14.39-4.425,7.48-2.2,14.247,1.8,15.989,9.393q1.67,7.238,3.226,14.5a2.62,2.62,0,0,0,2.341,2.4c4.711.971,9.393,2.084,14.1,3.141,8.223,1.827,12.22,8.565,9.679,16.56-.6,1.913-.314,2.912,1.428,3.94,3.312,1.941,6.424,4.2,9.65,6.224a21.193,21.193,0,0,0,3.854,1.941c2.084.8,3.112,2.513,4.111,4.283V134.3Zm-101.5-41.228H23.3c-3.74,0-4.169.428-4.169,4.254v33.748c0,3.369.571,3.969,3.883,3.969,12.506,0,25.011-.057,37.488-.057q74.99,0,149.981.057c3.112,0,3.74-.6,3.74-3.683V97.013c0-3.426-.485-3.94-3.854-3.94H116.719Zm68.809-4.111c1.57,0,2.8-.086,4.054,0,1.313.114,1.827-.428,2.2-1.656,1.085-3.8,2.37-7.538,3.512-11.335,1.627-5.4-.971-9.793-6.481-11.049-5.282-1.2-10.535-2.455-15.846-3.569a4.125,4.125,0,0,1-3.626-3.6C168.254,52.415,167,47.162,165.8,41.88c-1.285-5.625-5.653-8.166-11.192-6.481-5.253,1.6-10.478,3.169-15.7,4.882a3.857,3.857,0,0,1-4.568-1.256C130.624,34.913,126.826,30.83,123,26.8c-3.769-3.969-8.822-3.912-12.534.057-3.8,4.054-7.595,8.109-11.335,12.22a3.858,3.858,0,0,1-4.6,1.2c-5.2-1.713-10.45-3.312-15.7-4.882-5.339-1.627-9.707.8-11.021,6.224q-1.927,7.88-3.6,15.846a4.464,4.464,0,0,1-3.969,3.94c-5.51,1.114-10.964,2.37-16.417,3.74a7.928,7.928,0,0,0-5.939,9.736c1.142,4.34,2.513,8.594,3.883,12.877.143.457.714,1.056,1.114,1.085,1.542.143,3.112.057,4.939.057-1.485-4.768-2.884-9.251-4.254-13.7-1.056-3.455-.428-4.483,3.141-5.282,4.968-1.114,9.907-2.313,14.875-3.341,4.4-.914,6.881-3.455,7.766-7.88,1.028-5.168,2.313-10.307,3.512-15.446.657-2.8,1.8-3.426,4.568-2.57,5.054,1.57,10.136,3.026,15.132,4.711,4.283,1.456,7.68.457,10.65-2.912,3.369-3.826,6.909-7.48,10.364-11.221,2.484-2.655,3.626-2.627,6.139.086,3.455,3.74,7,7.423,10.336,11.249,2.969,3.4,6.453,4.254,10.678,2.827,4.882-1.627,9.822-3.084,14.761-4.6,3.2-.971,4.254-.428,5,2.741,1.171,5.025,2.4,10.022,3.4,15.075.914,4.568,3.512,7.138,8.08,8.051,5.253,1.056,10.421,2.313,15.646,3.54,2.313.542,3.026,1.827,2.341,4.083-.542,1.827-1.171,3.655-1.742,5.482-.914,2.941-1.8,5.882-2.741,9.079ZM47.881,139.126c-1.542,0-2.741.086-3.883,0-1.456-.143-2.084.428-2.484,1.827-1.028,3.626-2.227,7.195-3.312,10.792-1.742,5.767.828,10.107,6.681,11.421,5.282,1.2,10.535,2.427,15.846,3.569a3.786,3.786,0,0,1,3.255,3.226c1.142,5.225,2.37,10.421,3.54,15.646,1.4,6.253,5.653,8.737,11.792,6.852,4.74-1.456,9.508-2.827,14.162-4.454,2.6-.914,4.425-.542,6.281,1.6,3.312,3.854,6.881,7.509,10.364,11.221,4.111,4.4,9.165,4.425,13.248,0,3.655-3.912,7.338-7.823,10.907-11.792a3.955,3.955,0,0,1,4.74-1.285c5.2,1.713,10.45,3.283,15.7,4.882,5.425,1.627,9.822-.971,11.078-6.481,1.2-5.282,2.455-10.535,3.569-15.846a4.068,4.068,0,0,1,3.6-3.6c5.311-1.085,10.564-2.341,15.846-3.569s8.08-5.453,6.681-10.45c-1.142-4.14-2.513-8.194-3.854-12.277-.143-.457-.657-1.114-1.056-1.171-1.542-.143-3.112-.057-4.854-.057.2.885.314,1.456.485,2,1.171,3.854,2.37,7.68,3.569,11.535,1.142,3.712.6,4.6-3.283,5.482-5.139,1.171-10.279,2.37-15.446,3.54a8.29,8.29,0,0,0-6.738,6.71c-1.256,5.539-2.513,11.078-3.826,16.588-.628,2.6-1.8,3.226-4.34,2.427-5.225-1.627-10.478-3.226-15.675-4.911a8.647,8.647,0,0,0-9.85,2.627c-3.6,3.969-7.281,7.88-10.935,11.792-2.141,2.284-3.626,2.284-5.8,0-3.626-3.854-7.281-7.68-10.792-11.649-2.912-3.255-6.31-4.054-10.364-2.712-4.711,1.542-9.451,2.969-14.162,4.425-4.2,1.313-5.025.8-6-3.512-1.171-5.139-2.313-10.307-3.54-15.446a7.942,7.942,0,0,0-6.367-6.31q-7.795-1.8-15.646-3.569c-4.026-.914-4.511-1.742-3.312-5.6,1.342-4.34,2.684-8.68,4.169-13.391ZM36.033,83.936c-2.541,1.685-4.8,3.141-7.48,4.911h8.937C37,87.219,36.546,85.735,36,83.936Zm159.945,4.8H204.8c-2.655-1.742-4.939-3.226-7.366-4.8-.514,1.742-.971,3.169-1.456,4.8Z" transform="translate(-15.19 -19.703)" fill="#3d5065"/>
    <path id="Path_762" data-name="Path 762" d="M36.927,55.058c-1.171,4.169-2.341,8.337-3.483,12.534-.114.371-.114.885-.343,1.114-.714.657-1.57,1.685-2.313,1.627a3.052,3.052,0,0,1-2.141-1.827c-1.085-3.883-1.913-7.823-2.855-11.735-.114-.485-.257-1-.4-1.485h-.685v12.82c0,1.485-.457,2.77-2.113,2.77-1.827,0-2.141-1.37-2.056-2.941.314-5.139.542-10.307.885-15.446a3.384,3.384,0,0,1,2.969-3.455c1.941-.314,3.369.628,4,2.712.571,1.827,1,3.683,1.456,5.539s.857,3.74,1.37,5.967c.942-3.626,1.827-6.909,2.684-10.221.143-.514.286-1,.457-1.513a3.318,3.318,0,0,1,3.712-2.6,3.4,3.4,0,0,1,3.2,3.455c.2,2.912.314,5.8.457,8.708.114,2.113.2,4.226.314,6.338.086,1.57-.086,3-2.027,3.255-1.513.2-2.37-.742-2.4-2.855-.086-4.226,0-8.451,0-12.677-.2-.029-.428-.086-.628-.114Z" transform="translate(-5.292 34.472)" fill="#3d5065"/>
    <path id="Path_763" data-name="Path 763" d="M48.723,62.836V51.93c0-1.513.228-2.912,2.113-2.941,1.827,0,2.256,1.342,2.256,2.855V67.49c0,1.685-.657,3.026-2.427,3.369-1.685.343-2.712-.657-3.426-2.084-2.027-4.111-4.054-8.251-6.31-12.82V68.147c0,1.513-.571,2.712-2.2,2.712s-2.17-1.256-2.17-2.741V53.243c0-2.684.685-3.883,2.37-4.226,2.027-.428,3.2.257,4.425,2.741,1.8,3.626,3.569,7.281,5.368,10.992Z" transform="translate(24.454 34.46)" fill="#3d5065"/>
    <path id="Path_764" data-name="Path 764" d="M68.692,59.186c2.627,1.57,3.94,3.769,3.169,6.8-.8,3.084-3.141,4.454-6.139,4.8a34.249,34.249,0,0,1-5.139.257,3.058,3.058,0,0,1-3.312-3.4c-.029-5.139-.057-10.307,0-15.446,0-2.17,1.142-3.341,3.312-3.341a36.387,36.387,0,0,1,6.11.343,5.261,5.261,0,0,1,2.427,9.536c-.143.114-.228.286-.428.485Zm-6.767,5.225c.171,1.228-.457,2.969,1.77,3a3.179,3.179,0,0,0,3.483-2.969c.029-1.8-1.313-2.941-3.4-2.969-2.256-.029-1.713,1.656-1.856,2.941ZM61.868,55.1c.171.971-.257,2.6,1.856,2.541,1.8-.029,3.084-1.142,3.055-2.655-.057-1.428-1.285-2.313-3.084-2.313-1.513,0-1.913.857-1.8,2.4Z" transform="translate(62.816 34.37)" fill="#3d5065"/>
    <path id="Path_765" data-name="Path 765" d="M48.353,60.08c-.343,6.139-3.369,10.307-8.366,11.221a8.462,8.462,0,0,1-9.451-4.54,13.718,13.718,0,0,1,.143-13.276,8.517,8.517,0,0,1,8.508-4.654,8.162,8.162,0,0,1,7.595,5.4,49.359,49.359,0,0,1,1.542,5.882Zm-4.854,0a28.5,28.5,0,0,0-1.513-4.939c-1.513-3-5.168-3.169-6.824-.257a10.128,10.128,0,0,0,0,10.393,3.7,3.7,0,0,0,6.71-.114A30.241,30.241,0,0,0,43.5,60.08Z" transform="translate(10.234 34.303)" fill="#3d5065"/>
    <path id="Path_766" data-name="Path 766" d="M81.336,56.657c.628-.971,1.256-1.913,1.884-2.884.771-1.228,1.485-2.513,2.284-3.683a2.236,2.236,0,0,1,3.283-.742c1.285.8,1.37,2,.514,3.255a41.3,41.3,0,0,1-2.741,3.883,2.832,2.832,0,0,0-.171,3.74c1.313,2.2,2.513,4.483,3.712,6.767.942,1.77.657,3.055-.771,3.683-1.6.714-2.655-.057-3.4-1.428-.885-1.685-1.656-3.455-2.627-5.082a2.332,2.332,0,0,0-1.8-1c-.371,0-.942,1-1.028,1.6-.171,1.313,0,2.627-.086,3.969a2.241,2.241,0,0,1-4.483.029c-.057-5.8-.029-11.62,0-17.416a2.078,2.078,0,0,1,2.2-2.284,2.121,2.121,0,0,1,2.313,2.37c.029,1.685,0,3.369,0,5.025.314.086.628.143.942.228Z" transform="translate(97.396 34.501)" fill="#3d5065"/>
    <path id="Path_767" data-name="Path 767" d="M79.8,68.972c-.4.4-.971,1.456-1.713,1.57a4.376,4.376,0,0,1-2.712-.914C75,69.4,74.944,68.572,74.8,68c-.8-2.884-.828-2.77-3.769-2.912-1.884-.086-2.884.6-3.112,2.455-.057.4-.171.771-.257,1.142-.428,1.456-1.313,2.4-2.912,1.913-1.542-.457-1.856-1.685-1.428-3.169,1.428-5.139,2.8-10.307,4.254-15.446A3.835,3.835,0,0,1,71.432,48.9a3.552,3.552,0,0,1,3.683,2.741c1.57,5.368,3.055,10.792,4.568,16.16a10.029,10.029,0,0,1,.143,1.114ZM69.234,61.149h3.912c-.628-2.427-1.2-4.6-1.742-6.738a2.771,2.771,0,0,0-.485.029c-.542,2.2-1.085,4.4-1.685,6.71Z" transform="translate(73.78 34.463)" fill="#3d5065"/>
    <path id="Path_768" data-name="Path 768" d="M43.62,60.028V52.29c0-2.256,1-3.255,3.255-3.312,2.113-.029,4.226,0,6.338,0,1.428,0,2.541.514,2.513,2.113,0,1.627-1.142,2.056-2.57,2.027-.857,0-1.713.029-2.57,0-1.627-.086-2.455.542-2.427,2.284.029,1.77,1.028,2.056,2.484,2a5.857,5.857,0,0,1,2.741.114,3.231,3.231,0,0,1,1.77,2.113c.057.571-1.028,1.6-1.77,1.827a10.834,10.834,0,0,1-3.341.143c-1.827,0-1.856,1.256-1.856,2.6s.257,2.37,1.941,2.313c1.2-.057,2.37,0,3.569,0,1.456,0,2.455.657,2.484,2.227s-.942,2.2-2.427,2.2c-2.37,0-4.768.029-7.138,0a2.7,2.7,0,0,1-2.969-2.941c-.057-2.627,0-5.282,0-7.937Z" transform="translate(37.552 34.585)" fill="#3d5065"/>
    <path id="Path_769" data-name="Path 769" d="M81.447,52.962c-4.568-.171-7.195,2.513-7.081,7.224.114,4.768,2.741,7.224,7.423,6.852,1.485-.114,2.741,0,2.912,1.8.171,1.713-1,2.256-2.484,2.4-4.54.485-8.623-.228-11.164-4.568a13.333,13.333,0,0,1,.914-14.047c2.884-3.6,6.8-4.34,11.049-3.54a2.973,2.973,0,0,1,1.742,2.141c.086,1.285-.971,1.884-2.313,1.77-.343,0-.657-.057-1-.057Z" transform="translate(85.521 34.255)" fill="#3d5065"/>
    <path id="Path_770" data-name="Path 770" d="M63.9,50.915c-.343.885-.514,1.4-.742,1.856a30.949,30.949,0,0,1-1.742,3.341,18.056,18.056,0,0,0-2.941,12.02c.2,2.027-1.342,3.369-2.855,2.6a3.125,3.125,0,0,1-1.57-2.341c.657-5.111-1.313-9.422-3.626-13.7-.428-.8-.8-1.656-1.2-2.513a2.016,2.016,0,0,1,.971-3,2.164,2.164,0,0,1,3.141,1.142c.714,1.57,1.256,3.2,1.941,4.768a7.776,7.776,0,0,0,1.171,1.428A8.732,8.732,0,0,0,57.538,55c.628-1.513,1.114-3.112,1.742-4.625a1.966,1.966,0,0,1,2.741-1.228c.771.343,1.313,1.2,1.884,1.77Z" transform="translate(47.389 34.446)" fill="#3d5065"/>
  </g>
</svg>
