<svg xmlns="http://www.w3.org/2000/svg" xmlns:xlink="http://www.w3.org/1999/xlink" width="290" height="290" viewBox="0 0 290 290">
  <defs>
    <clipPath id="clip-path">
      <circle id="Ellipse_97" data-name="Ellipse 97" cx="145" cy="145" r="145" transform="translate(1353 6422)" fill="#fff"/>
    </clipPath>
  </defs>
  <g id="Mask_Group_42" data-name="Mask Group 42" transform="translate(-1353 -6422)" clip-path="url(#clip-path)">
    <g id="Layer_1-2" transform="translate(1353 6422)">
      <circle id="Ellipse_100" data-name="Ellipse 100" cx="145" cy="145" r="145" transform="translate(0 0)" fill="#e0fbfd"/>
      <g id="Group_609" data-name="Group 609">
        <path id="Path_778" data-name="Path 778" d="M140.713,217.9c-2.658-.371-5.344-.657-8-1.086A71.007,71.007,0,0,1,98.648,201.1c-.572-.486-1.143-.972-1.915-1.6-1.486,1.572-2.915,3.058-4.344,4.572a4.522,4.522,0,0,1-5.287,1.315c-2.058-.829-2.858-2.458-2.829-4.63.029-4.8,0-9.573,0-14.374,0-3.115,1.829-4.887,5-4.915h14.231a4.55,4.55,0,0,1,4.658,2.829,4.471,4.471,0,0,1-1.286,5.287l-3.6,3.515a60.939,60.939,0,0,0,14.06,9.373,62.613,62.613,0,0,0,34.292,6,63.818,63.818,0,0,0,54.839-46.495,62.979,62.979,0,0,0-.086-34.292,8.338,8.338,0,0,1-.257-3.744,4.492,4.492,0,0,1,8.63.086c1.057,4.887,1.915,9.831,2.858,14.774.114.629.2,1.286.286,1.943v8.83a7.353,7.353,0,0,0-.229,1.086,68.428,68.428,0,0,1-6.573,25c-11,22.49-28.806,36.264-53.382,41.122-2.686.543-5.43.772-8.144,1.143h-8.83Z" fill="#3d5065"/>
        <path id="Path_779" data-name="Path 779" d="M193.238,90.475c1.486-1.543,2.915-2.972,4.315-4.458a4.527,4.527,0,0,1,5.4-1.372c2.058.829,2.829,2.515,2.8,4.658-.029,4.744,0,9.488,0,14.231,0,3.229-1.8,5-5.058,5H186.608c-2.429,0-4.058-.943-4.772-2.858a4.534,4.534,0,0,1,1.372-5.287c1.172-1.115,2.343-2.229,3.658-3.486-1.686-1.343-3.143-2.6-4.715-3.715A61.911,61.911,0,0,0,140.2,81.416a63.78,63.78,0,0,0-56.525,80.959,8.532,8.532,0,0,1,.314,3.486,4.487,4.487,0,0,1-8.659.143,98.416,98.416,0,0,1-2.458-11.374c-2.343-18.032,1.343-34.807,11.517-49.867,12.231-18.175,29.32-29.091,51.067-31.978,21.347-2.829,40.379,2.972,56.868,16.86.257.2.514.429,1,.829Z" fill="#3d5065"/>
      </g>
    </g>
  </g>
</svg>
