<svg xmlns="http://www.w3.org/2000/svg" xmlns:xlink="http://www.w3.org/1999/xlink" width="290" height="290" viewBox="0 0 290 290">
  <defs>
    <clipPath id="clip-path">
      <circle id="Ellipse_40" data-name="Ellipse 40" cx="145" cy="145" r="145" transform="translate(1074)" fill="#eaeaea"/>
    </clipPath>
  </defs>
  <g id="Mask_Group_37" data-name="Mask Group 37" transform="translate(-1074)" clip-path="url(#clip-path)">
    <g id="Layer_1-2" transform="translate(1074)">
      <g id="Group_592" data-name="Group 592">
        <circle id="Ellipse_91" data-name="Ellipse 91" cx="145" cy="145" r="145" transform="translate(0 0)" fill="#e0fbfd"/>
        <g id="Group_591" data-name="Group 591">
          <path id="Path_747" data-name="Path 747" d="M200.811,168.576c2.286.572,4.344,1.086,6.4,1.629a22.306,22.306,0,0,1,17.146,22.09c.057,11.488,0,22.947,0,34.435,0,3.829-.886,4.744-4.687,4.744H84.359c-1.343,0-2.658.029-4,0a3.145,3.145,0,0,1-3.344-3.429V190.809a2.067,2.067,0,0,1,.029-.6c1.486-3.686-.057-6.544-2.372-9.316a50.694,50.694,0,0,1-3.143-4.629c-1.543-2.343-1.315-3.744.886-5.487,6.858-5.43,13.688-10.859,20.6-16.232a3.246,3.246,0,0,0,1.257-2.829c.286-5.915.572-11.831,1.257-17.718,1.572-13.517,3.515-26.977,5-40.494,2.515-23,21.49-42.008,44.494-44.323,26.662-2.658,49.981,14.46,55.068,40.751,1.4,7.316,2.029,14.8,2.943,22.2,1.286,10.116,2.429,20.261,3.772,30.377a35.4,35.4,0,0,1-5.544,25.176c-.143.229-.257.457-.514.914Zm-27.691-6.887c6.63,1.657,13.145,3.315,19.69,4.858a2.583,2.583,0,0,0,2.058-.943,28.1,28.1,0,0,0,5.773-21.433c-2.029-16.546-4.229-33.092-6.23-49.638-2.972-24.662-24.176-41.58-48.952-38.951-19.69,2.086-36.036,18.346-38.408,38.036-1.915,15.832-3.972,31.635-5.915,47.466-.286,2.343-.457,4.687-.714,7.659,4.8-3.8,9.03-7.2,13.374-10.516,1.086-.829,1.172-1.486.857-2.8-.943-4.144-2.086-8.316-2.286-12.517-.372-7.6-.143-15.2-.086-22.833a24.615,24.615,0,0,1,5.23-15.26c10-12.974,24.548-11.059,31.863-1.772a18.43,18.43,0,0,0,13.088,7.03c5.23.457,10.516.343,15.775.4,7.116.057,10.916,3.8,10.916,10.831,0,6.487-.057,12.945,0,19.432.171,13.2-4.715,24-15.06,32.292a2.755,2.755,0,0,0-.914,1.8c-.114,2.2-.057,4.4-.057,6.858Zm-15.8-8a3.438,3.438,0,0,0,.543,0c12.431-2.658,23.147-13.6,24.348-26.148.857-9.145.429-18.4.486-27.605,0-1.829-1.372-2.943-3.315-3.029-1.8-.057-3.6.029-5.4,0-4.458-.143-8.973.057-13.374-.6-6.973-1.057-12.545-4.858-17.232-10.145a11.728,11.728,0,0,0-15.26-2.372c-5.83,3.544-9.173,8.8-9.373,15.6-.257,8.259-.171,16.546,0,24.833.057,2.829.886,5.658,1.429,8.83,2.972-2.315,5.372-4.344,7.944-6.115,6.516-4.458,13.46-5,20.433-1.372,6.887,3.6,10.574,9.573,10.459,17.375-.057,3.544-1.086,7.059-1.715,10.774ZM78.13,174.463c.972,1.457,1.829,2.8,2.743,4.115,4.372,6.43,10.974,8.716,18.346,6.287,9.573-3.143,17.718-.886,24.462,6.544,3.772,4.144,7.459,8.373,11.174,12.574a11.922,11.922,0,0,1,1.057,1.6,27.788,27.788,0,0,0,1.657-4.344,2.261,2.261,0,0,0-.8-2.915,12.931,12.931,0,0,1-4.858-8.716c-.4-5.115-.4-10.259-.4-15.374,0-9.516,6.83-16.346,16.4-16.4,1.143,0,1.457-.429,1.715-1.429.829-3.286,1.829-6.544,2.629-9.831,1.457-5.915-.657-11.574-5.487-14.717-4.887-3.2-10.945-2.858-15.832.943q-6.858,5.358-13.66,10.774c-12.974,10.259-25.948,20.49-39.122,30.892Zm89.332,10.916q12.345,16.418,24.519,32.578a69.73,69.73,0,0,0,.371-8.344c0-2.343,1.286-3.772,3.229-3.772s3.172,1.457,3.172,3.8V224.93h19.232V193.038c0-8.859-4.572-14.746-13.174-16.889-6.858-1.715-13.688-3.429-20.547-5.144-3.658-.914-7.316-1.8-11.145-2.743a23.3,23.3,0,0,1-5.658,17.061ZM83.616,224.9h19.032v-1.515c0-4.744-.029-9.488,0-14.231a3.119,3.119,0,0,1,3.258-3.315,3.192,3.192,0,0,1,3.115,3.258c.057.743,0,1.457,0,2.2v13.66h45.809c-3.8-6.944-7.487-13.717-11.431-20.947-.829,3.058-1.486,5.43-2.086,7.8-.4,1.6-.943,3.115-2.8,3.544-1.772.4-2.829-.714-3.886-1.915-5.315-6-10.6-12-15.975-17.946-4.715-5.23-10.488-6.859-17.2-4.6a21.7,21.7,0,0,1-12.2.829c-1.858-.429-3.629-1.143-5.658-1.8V224.9Zm66.327-22.49c.372.743.657,1.343.972,1.915,3.429,6.316,6.916,12.631,10.316,18.975a2.809,2.809,0,0,0,2.915,1.772c7.687-.086,15.346-.029,23.033-.029h2.143c-8.83-11.745-17.375-23.119-26.148-34.75-2.143,6.658-6.373,10.688-13.2,12.117Zm7.144-22.119c0-2.2.029-4.4,0-6.6a9.588,9.588,0,0,0-19.175-.057c-.057,4.344-.057,8.659,0,13a9.6,9.6,0,0,0,19.2.057c.057-2.143,0-4.258,0-6.4Zm6.573-.829c4.83-6.83,2.343-14.489,3.143-21.833-3.486,1.057-6.658,2-10.116,3.029,6.658,4.715,7.259,11.545,6.973,18.775Z" fill="#3d5065"/>
          <path id="Path_748" data-name="Path 748" d="M83.388,145.6c-.371.457-.914,1.657-1.829,2.172-4.2,2.258-8.516,4.372-12.831,6.43a3.144,3.144,0,1,1-2.743-5.658c4.258-2.2,8.516-4.344,12.831-6.4,2.2-1.029,4.515.486,4.544,3.486Z" fill="#3d5065"/>
          <path id="Path_749" data-name="Path 749" d="M70.471,135.341c-2,0-4,.029-6,0-2.058-.057-3.429-1.315-3.458-3.115-.057-1.886,1.343-3.229,3.515-3.258,4.058-.029,8.144-.029,12.2,0a3.179,3.179,0,0,1,3.458,3.115c.057,1.886-1.372,3.172-3.515,3.286h-6.2Z" fill="#3d5065"/>
          <path id="Path_750" data-name="Path 750" d="M130.6,111.279c-1.457-.743-2.6-1.286-3.686-1.915a3.123,3.123,0,0,1-1.543-4.2,3.078,3.078,0,0,1,4.372-1.457c3.172,1.515,6.344,3.058,9.459,4.744a3.108,3.108,0,0,1,0,5.715c-3.115,1.686-6.287,3.229-9.459,4.744a3.078,3.078,0,0,1-4.372-1.457,3.126,3.126,0,0,1,1.515-4.2c.572-.343,1.2-.6,1.772-.914.514-.286,1.029-.572,1.886-1.029Z" fill="#3d5065"/>
          <path id="Path_751" data-name="Path 751" d="M170.805,111.336c1.486.772,2.629,1.315,3.715,1.943a3.1,3.1,0,0,1,1.4,4.258,3.029,3.029,0,0,1-4.229,1.4c-3.258-1.543-6.487-3.115-9.63-4.83a3.064,3.064,0,0,1-.029-5.6c3.2-1.743,6.516-3.344,9.8-4.887a2.985,2.985,0,0,1,4.058,1.429,3.08,3.08,0,0,1-1.172,4.172,20.7,20.7,0,0,1-1.943,1c-.572.314-1.115.629-2,1.115Z" fill="#3d5065"/>
          <path id="Path_752" data-name="Path 752" d="M105.478,174.206c-.914-.886-2.229-1.572-2.515-2.572a4.274,4.274,0,0,1,.8-3.372,26.277,26.277,0,0,1,3.886-3.429c5.915-5.087,11.859-10.173,17.775-15.232.143-.143.286-.257.457-.4,1.715-1.4,3.572-1.4,4.8,0,1.286,1.429,1.057,3.4-.686,4.915-5.658,4.887-11.345,9.716-17,14.574-1.572,1.343-3.115,2.743-4.715,4.029a19.171,19.171,0,0,1-2.772,1.515Z" fill="#3d5065"/>
        </g>
      </g>
    </g>
  </g>
</svg>
