<svg xmlns="http://www.w3.org/2000/svg" xmlns:xlink="http://www.w3.org/1999/xlink" width="289" height="290" viewBox="0 0 289 290">
  <defs>
    <clipPath id="clip-path">
      <ellipse id="Ellipse_39" data-name="Ellipse 39" cx="144.5" cy="145" rx="144.5" ry="145" transform="translate(716)" fill="#eaeaea"/>
    </clipPath>
  </defs>
  <g id="Mask_Group_38" data-name="Mask Group 38" transform="translate(-716)" clip-path="url(#clip-path)">
    <g id="Layer_1-2" transform="translate(716 0.5)">
      <g id="Group_594" data-name="Group 594">
        <path id="Path_790" data-name="Path 790" d="M144.5,0A144.5,144.5,0,1,1,0,144.5,144.5,144.5,0,0,1,144.5,0Z" transform="translate(0 0)" fill="#e0fbfd"/>
        <g id="Group_593" data-name="Group 593">
          <path id="Path_753" data-name="Path 753" d="M226.774,169.447c-.627,3.247-1,6.55-1.937,9.711a101.247,101.247,0,0,1-4.1,10.566c-.883,2.022-2.705,2.677-4.386,1.851-1.737-.826-2.278-2.705-1.225-4.727a48.531,48.531,0,0,0,5.354-23.609c-.085-5.269,0-10.537-.028-15.806a4.458,4.458,0,0,0-8.629-1.652,8,8,0,0,0-.313,2.478c0,6.066-.057,12.1,0,18.169a24.789,24.789,0,0,1-7.718,18.71c-5.753,5.639-11.42,11.391-17.116,17.087a6.467,6.467,0,0,1-1.88,1.4,2.763,2.763,0,0,1-3.417-.883,2.844,2.844,0,0,1-.4-3.5,7.511,7.511,0,0,1,1.31-1.566c5.667-5.667,11.334-11.306,16.973-17a5.385,5.385,0,1,0-7.746-7.461c-4.386,4.414-8.8,8.771-13.157,13.214a5.466,5.466,0,0,1-3.987,1.823c-10.338.513-16.888,6.493-21.53,15.094A33.248,33.248,0,0,0,149,218.8a3.205,3.205,0,0,1-3.218,3.389,3.259,3.259,0,0,1-3.1-3.332c-.085-1.253-.114-2.535-.256-3.788a33.077,33.077,0,0,0-9.341-19.736,22.438,22.438,0,0,0-15.863-7.091,5.246,5.246,0,0,1-3.731-1.68c-4.471-4.528-9-9.028-13.527-13.527a5.184,5.184,0,0,0-5.81-1.31A5.093,5.093,0,0,0,90.7,176.4a5.578,5.578,0,0,0,1.88,4.5q8.415,8.373,16.774,16.745a12.47,12.47,0,0,1,1.168,1.282,3.055,3.055,0,0,1-.4,4.044,3.015,3.015,0,0,1-4.044.256,11.162,11.162,0,0,1-1.054-.968c-5.781-5.781-11.534-11.562-17.343-17.315A24.488,24.488,0,0,1,80.167,166.8c0-6.379.028-12.758,0-19.109,0-3.5-3.047-5.667-6.094-4.443a3.94,3.94,0,0,0-2.791,3.7c.114,8.572-.142,17.2.655,25.716.883,9.312,5.24,17.4,11.733,24.15,6.237,6.493,12.7,12.787,19.052,19.166a8.324,8.324,0,0,1,1.168,1.282,3.185,3.185,0,0,1-.342,4.044,3.139,3.139,0,0,1-3.93.4,5.242,5.242,0,0,1-.627-.484c-7.291-7.376-14.866-14.5-21.786-22.213-8.116-9.056-11.989-20.049-12.3-32.209-.171-6.436-.085-12.844-.028-19.28a10.78,10.78,0,0,1,21.558-.256c.057,1.88,0,3.759.171,5.724a69.695,69.695,0,0,1,15.919-20.846c-1.88-2.392-3.7-4.67-5.411-6.892a60.187,60.187,0,0,1-6.18,1.623,18.62,18.62,0,0,1-20.789-13.954,6.763,6.763,0,0,0-1.424-2.677,15.08,15.08,0,0,1,21.5-21.1,5.015,5.015,0,0,0,2.136,1.139,18.643,18.643,0,0,1,10.395,29.845c-.57.74-.769,1.2-.085,1.993,1.623,1.937,3.161,3.93,4.784,6.009a65.849,65.849,0,0,1,35.086-12.331v-8.4c-1.965.6-3.9,1.4-5.9,1.794A18.913,18.913,0,0,1,114.968,96.03a19.107,19.107,0,0,1,10.651-22.954,4.6,4.6,0,0,0,1.965-1.794,20.947,20.947,0,0,1,15.151-10.537c.285-.057.57-.2.854-.285H148a3.03,3.03,0,0,0,.712.256,20.7,20.7,0,0,1,15.521,10.993,3.676,3.676,0,0,0,1.595,1.338,19,19,0,1,1-15.521,34.687c-.4-.2-.826-.342-1.282-.541v8.572A66.129,66.129,0,0,1,184.114,128.1c1.623-2.05,3.133-4.044,4.756-5.98a1.311,1.311,0,0,0,0-1.993,18.634,18.634,0,0,1,10.309-29.874,5.658,5.658,0,0,0,2.278-1.2,15.086,15.086,0,0,1,24.492,6.322c.285.883.541,1.794.8,2.677v4.1a18.793,18.793,0,0,1-3.816,8,6.821,6.821,0,0,0-1.452,2.677,18.62,18.62,0,0,1-20.9,13.983,62.359,62.359,0,0,1-6.066-1.623c-1.709,2.164-3.531,4.471-5.439,6.863A70.755,70.755,0,0,1,204.988,152.9c.171-2.022.114-3.987.2-5.952a10.692,10.692,0,0,1,9.54-10.309,10.813,10.813,0,0,1,11.534,7.632c.142.513.313,1,.484,1.481v23.694Zm-80.993,33.548c1.225-2.136,2.25-4.186,3.5-6.094,5.639-8.544,13.186-14.068,23.666-14.923a1.968,1.968,0,0,0,1.168-.37c1.737-1.652,3.417-3.36,5.3-5.24-1.025-.826-1.823-1.566-2.734-2.164-2.278-1.538-4.67-2.876-6.863-4.5-7.177-5.3-10.395-12.474-9.113-21.33,1.225-8.4,6.123-14.1,13.926-17.4.4-.171.8-.313,1.31-.513-10.679-6.806-25.915-10.423-41.294-7.376A57.008,57.008,0,0,0,104.573,139.2a28.382,28.382,0,0,0,3.788.2,13.441,13.441,0,0,1,9.768,4.5,13.988,13.988,0,0,1-1.481,20.476c-3.1,2.506-5.183,5.525-5.354,9.6a3.415,3.415,0,0,0,.826,2.164,56.276,56.276,0,0,0,4.7,4.7,6.372,6.372,0,0,0,2.592,1.2c2.221.57,4.585.769,6.749,1.538,8.971,3.1,14.695,9.711,18.853,17.885.256.484.513.968.8,1.566ZM149.541,99.5a24.259,24.259,0,0,0,2.022,1.595c4.5,2.734,9.113,2.876,13.584.114a12.618,12.618,0,0,0-2.705-22.726A5.385,5.385,0,0,1,159,75.354c-2.592-5.582-7.091-8.6-13.243-8.572-6.066.028-10.509,3.076-13.072,8.6a5.21,5.21,0,0,1-3.446,3.1,12.647,12.647,0,0,0,.313,24.121,12.217,12.217,0,0,0,10.708-1.652c-.37-.4-.6-.655-.854-.911-2.05-2.05-4.129-4.072-6.123-6.151a3.1,3.1,0,0,1-.085-4.528,3.2,3.2,0,0,1,4.528.085c.6.541,1.111,1.111,1.68,1.68,1.025,1,2.022,1.993,3.275,3.19V81.107c0-2.307,1.225-3.7,3.19-3.674,1.908,0,3.1,1.4,3.1,3.588v8.686c0,.37.085.74.171,1.595a19.544,19.544,0,0,1,1.4-1.68c1.538-1.481,3.474-1.595,4.756-.285,1.339,1.338,1.225,3.161-.342,4.756-1.737,1.766-3.531,3.474-5.468,5.382Zm34.63,72.193c5.1-6.237,11.135-9.312,19.052-4.044-.085-.484-.114-.8-.2-1.111a58.43,58.43,0,0,0-18.653-30.1,2.133,2.133,0,0,0-1.538-.541c-2.307.4-4.784.513-6.863,1.452a14.875,14.875,0,0,0-9.17,13.157,15.042,15.042,0,0,0,6.92,14.182c3.36,2.335,6.806,4.557,10.452,6.977Zm-83.556-63.308a12.256,12.256,0,0,0-10.366-12.1,6.357,6.357,0,0,1-3.987-2.193A8.623,8.623,0,0,0,73.93,93.78a8.507,8.507,0,0,0-.085,12.417,7.642,7.642,0,0,1,2.421,4.557,12.284,12.284,0,0,0,24.349-2.364Zm90.419.057a12.28,12.28,0,0,0,24.321,2.449,8,8,0,0,1,2.478-4.727,8.665,8.665,0,1,0-12.559-11.933,5.5,5.5,0,0,1-3.588,1.993A12.346,12.346,0,0,0,191.034,108.446ZM105.57,169.59a20.51,20.51,0,0,1,7.177-10.224,7.518,7.518,0,0,0,2.335-8.572,7.754,7.754,0,0,0-7.262-5.126q-4.1-.085-8.2,0a2.264,2.264,0,0,0-1.623.911c-1.452,2.136-2.876,4.272-4.129,6.522a53.919,53.919,0,0,0-5.5,14.553c6.294-4.158,11.932-3.417,17.173,1.937Z" fill="#3d5065"/>
          <path id="Path_754" data-name="Path 754" d="M187.189,218.43a6.716,6.716,0,0,1,1-1.709q4.229-4.357,8.6-8.629a3.148,3.148,0,1,1,4.443,4.443c-2.848,2.9-5.724,5.753-8.6,8.6a3,3,0,0,1-3.617.712c-1.2-.57-1.823-1.538-1.794-3.417Z" fill="#3d5065"/>
          <path id="Path_755" data-name="Path 755" d="M212.307,200.09a3.077,3.077,0,0,1-3.047,3.161,3.147,3.147,0,1,1-.085-6.294,3.1,3.1,0,0,1,3.1,3.133Z" fill="#3d5065"/>
          <path id="Path_756" data-name="Path 756" d="M127.669,169.39c-.285-4.528.484-8.657,3.446-12.075,3.759-4.3,8.487-6.265,14.125-4.9,5.3,1.282,8.657,4.813,9.939,10.138a12.711,12.711,0,0,1-1.225,9.17c-1.025,1.965-2.079,3.873-3.19,5.81a12.253,12.253,0,0,1-23.1-5.126c-.085-1.054,0-2.107,0-3.047Zm6.208-.228h.142c0,1.111-.085,2.221,0,3.3a5.9,5.9,0,0,0,10.964,2.421c1.225-2.079,2.421-4.186,3.474-6.351a7.053,7.053,0,0,0-4.67-9.967c-4.186-1.111-8.885,2.107-9.626,6.664-.2,1.282-.2,2.62-.285,3.93Z" fill="#3d5065"/>
        </g>
      </g>
    </g>
  </g>
</svg>
