<svg xmlns="http://www.w3.org/2000/svg" xmlns:xlink="http://www.w3.org/1999/xlink" width="290" height="290" viewBox="0 0 290 290">
  <defs>
    <clipPath id="clip-path">
      <circle id="Ellipse_96" data-name="Ellipse 96" cx="145" cy="145" r="145" transform="translate(995 6422)" fill="#fff"/>
    </clipPath>
  </defs>
  <g id="Mask_Group_41" data-name="Mask Group 41" transform="translate(-995 -6422)" clip-path="url(#clip-path)">
    <g id="Layer_1-2" transform="translate(995 6422)">
      <circle id="Ellipse_99" data-name="Ellipse 99" cx="145" cy="145" r="145" transform="translate(0 0)" fill="#e0fbfd"/>
      <g id="Group_608" data-name="Group 608">
        <path id="Path_775" data-name="Path 775" d="M62.5,144.914c-.057-45.18,36.95-82.359,82.016-82.445,45.838-.086,82.988,36.693,83.016,82.216a82.5,82.5,0,1,1-165,.229Zm82.588,76.272c42.065-.2,76.186-34.407,76.1-76.244A76.354,76.354,0,0,0,145,68.814c-41.98,0-76.444,34.55-76.186,76.329.286,42.094,34.521,76.244,76.272,76.044Z" fill="#3d5065"/>
        <path id="Path_776" data-name="Path 776" d="M74.986,144.857a69.883,69.883,0,0,1,58.583-68.842c19.2-3.086,36.75,1.172,52.61,12.431l1.286.857c2.2,1.572,2.372,3.658.457,5.544-4.515,4.515-9.059,9-13.574,13.517q-27.863,27.863-55.7,55.782-11.917,11.917-23.833,23.8c-1.829,1.829-3.858,1.657-5.43-.429a70.611,70.611,0,0,1-14.4-42.694Zm102.02-48.61c1.229-1.2,2.515-2.429,3.772-3.658-21-15.46-56.668-16.746-80.873,7.6-24.348,24.491-22.49,60.126-7.2,80.73.457-.429.943-.857,1.4-1.315,5.858-5.83,11.659-11.717,17.546-17.518a4.739,4.739,0,0,0,1.515-3.744q-.086-30.52,0-61.012c0-3.344.943-4.287,4.229-4.287h14.917c3.286,0,4.258.943,4.258,4.258V130.4c1.715,0,3.2-.086,4.658,0a4.176,4.176,0,0,0,3.715-1.572c2.343-2.486,4.772-4.887,7.259-7.259a4.039,4.039,0,0,0,1.343-3.229c-.057-6.916-.029-13.8,0-20.718,0-3.744.857-4.6,4.487-4.6h14.517c3,0,3.715.514,4.515,3.172Zm-57.44,3.229V153.23c5.372-5.372,10.945-10.945,16.4-16.432H134.6c-3.4.057-4.4-.914-4.372-4.258V101.363c0-.629-.057-1.229-.114-1.886Zm40.265,14.489c3.2-3.229,5.944-6.2,8.916-8.916,1.8-1.629,2.029-3.372,1.629-5.515H159.831Z" fill="#3d5065"/>
        <path id="Path_777" data-name="Path 777" d="M215.014,145.171a69.792,69.792,0,0,1-58.783,68.842c-20.918,3.344-39.608-2.058-56.1-15.26-2-1.6-2.086-3.486-.286-5.287q22.119-22.119,44.266-44.209,24.648-24.648,49.267-49.324c1.886-1.886,3.686-1.772,5.43.286a70.784,70.784,0,0,1,16.232,44.952Zm-19.4-38.465c-5.744,5.744-11.374,11.431-17.089,17.061a5.159,5.159,0,0,0-1.715,4.058q.086,27.777,0,55.582c0,8.03-5.544,13.517-13.517,13.517-12.26,0-24.519.114-36.807-.086a13.981,13.981,0,0,1-6.944-1.886c-2.343-1.486-4.115-3.886-5.83-5.63-2,1.972-4.344,4.315-6.658,6.6,22.319,17.461,58.812,18.375,83.159-6.287,24.633-24.976,22.519-61.384,5.372-82.931ZM170.548,131.94c-.543.429-.743.572-.914.743q-24.648,24.648-49.267,49.324a3.669,3.669,0,0,0-.857,2.543c.314,3.686,3.258,6.03,7.459,6.03H162.8c5.087,0,7.744-2.658,7.744-7.773v-50.9Z" fill="#3d5065"/>
      </g>
    </g>
  </g>
</svg>
