<svg xmlns="http://www.w3.org/2000/svg" xmlns:xlink="http://www.w3.org/1999/xlink" width="290" height="290" viewBox="0 0 290 290">
  <defs>
    <clipPath id="clip-path">
      <circle id="Ellipse_37" data-name="Ellipse 37" cx="145" cy="145" r="145" fill="#e0fbfd"/>
    </clipPath>
  </defs>
  <g id="Mask_Group_39" data-name="Mask Group 39" clip-path="url(#clip-path)">
    <g id="Layer_1-2">
      <g id="Group_596" data-name="Group 596">
        <circle id="Ellipse_93" data-name="Ellipse 93" cx="145" cy="145" r="145" transform="translate(0 0)" fill="#e0fbfd"/>
        <g id="Group_595" data-name="Group 595">
          <path id="Path_757" data-name="Path 757" d="M240.962,143.4a4.972,4.972,0,0,1-3.686,2.886,16.4,16.4,0,0,0-12.288,12.26,6.2,6.2,0,0,1-1.686,2.943,3.376,3.376,0,0,1-5.172-1.343,19.625,19.625,0,0,1-.772-2.515A16.256,16.256,0,0,0,206.3,146.515c-.4-.114-.8-.229-1.172-.343-2.315-.657-3.458-1.829-3.486-3.629-.029-1.829,1.2-3,3.572-3.772a24.013,24.013,0,0,0,5-2.086,15.585,15.585,0,0,0,7.287-9.745c.143-.514.286-1.029.457-1.515a3.38,3.38,0,0,1,3.4-2.543,3.426,3.426,0,0,1,3.4,2.543,40.045,40.045,0,0,0,2.343,5.83,15.3,15.3,0,0,0,10.031,7.43,5.194,5.194,0,0,1,3.944,2.886v1.772Zm-25-.886c1.543,1.6,3.686,3.8,5.258,5.43,1.657-1.657,3.858-3.829,5.4-5.372-1.572-1.6-3.715-3.8-5.315-5.458-1.657,1.686-3.829,3.858-5.344,5.4Z" fill="#3d5065"/>
          <path id="Path_758" data-name="Path 758" d="M178.921,161.632H193.41a15.131,15.131,0,0,1,2.286.114,3.463,3.463,0,0,1,.371,6.773,8.539,8.539,0,0,1-2.258.229h-15.26c-1.115,2.258-2.172,4.458-3.372,6.887h34.464a14.023,14.023,0,0,1,2.458.171,3.385,3.385,0,0,1,2.743,3.229,3.424,3.424,0,0,1-2.6,3.515,11.561,11.561,0,0,1-2.629.257H163.547c-.286,1.143-.543,2.2-.857,3.258a20.9,20.9,0,0,1-8.43,11.574,1.893,1.893,0,0,0-.857,2.458c1.2,4.487,2.286,8.973,3.4,13.488.686,2.772-.257,4.458-3.029,5.144q-21.733,5.53-43.494,11c-2.772.686-4.344-.286-5.087-3.115-1.229-4.772-2.429-9.516-3.6-14.06-2.743-.572-5.43-.8-7.859-1.715-6.287-2.315-10.116-7-11.8-13.431-1.143-4.429-2.315-8.859-3.372-13.288a1.715,1.715,0,0,0-1.743-1.543A18.739,18.739,0,0,1,60.5,164.432q-.129-34.378,0-68.728c.057-10.459,8.659-18.4,19.6-18.432q28.12-.043,56.211,0c7.687,0,15.4-.029,23.09,0,10.2.057,17.746,6.516,19.318,16.46a22.608,22.608,0,0,1,.171,3.686v64.213Zm-29.72,50.9c-1.229-4.858-2.4-9.516-3.572-14.174-.657-2.686-.114-3.944,2.258-5.2,7.03-3.772,9.916-9.773,8.059-17.461-3.058-12.6-6.316-25.148-9.545-37.693-.714-2.772-2.829-4.144-5.2-3.515-2.515.657-3.658,2.8-2.943,5.658,1.029,4.144,2.086,8.316,3.143,12.46s2.115,8.287,3.115,12.46a3.523,3.523,0,1,1-6.8,1.829c-.143-.429-.257-.914-.372-1.372l-12.088-47.752c-.543-2.143-1.057-4.344-1.8-6.43a3.631,3.631,0,0,0-3.744-2.4,3.547,3.547,0,0,0-3.629,2.543,6.965,6.965,0,0,0,0,3.429c2.058,8.43,4.258,16.832,6.373,25.234.8,3.229,1.657,6.487,2.286,9.745a3.251,3.251,0,0,1-2.658,3.772,3.424,3.424,0,0,1-4.058-2.286,25.787,25.787,0,0,1-.714-2.543c-3.572-14.088-7.116-28.206-10.745-42.294a7.95,7.95,0,0,0-1.886-3.429,3.642,3.642,0,0,0-4.572-.257c-1.657,1.029-2.229,2.772-1.629,5.115q5.615,22.247,11.259,44.523c.629,2.458-.372,4.372-2.429,4.915-2.029.543-3.829-.686-4.458-3.143-.714-2.715-1.4-5.458-2.086-8.173-2.2-8.687-4.4-17.4-6.63-26.091-.714-2.8-2.772-4.058-5.23-3.4-2.229.572-3.344,2.8-2.686,5.487.772,3.2,1.6,6.373,2.4,9.545,2.086,8.259,4.144,16.489,6.258,24.719a3.726,3.726,0,0,1-.772,3.772c-2,2.143-5.2,1.315-6.03-1.686-1.257-4.572-2.372-9.2-3.544-13.8-1.086-4.258-2.143-8.545-3.229-12.8-.829-3.229-3.429-4.687-6.03-3.4-2,.972-2.6,2.858-1.886,5.773q5.23,20.7,10.488,41.437c1.829,7.173,3.544,14.346,5.6,21.433a11.437,11.437,0,0,0,11.688,7.859c5.858-.457,5.915-.4,7.316,5.287.972,3.886,1.972,7.8,3,11.774,12.631-3.2,25.091-6.344,37.779-9.573Zm-13.717-83.3c8.03-4.744,16.489-.486,18.2,8.23,1.372,7,3.429,13.888,5.2,20.833q2.143,8.4,4.287,16.832c5.372-1.4,8.63-5.915,8.63-11.945V97.1c0-7.687-4.858-12.6-12.517-12.631q-39.565-.043-79.13,0c-7.687,0-12.545,4.915-12.545,12.574-.029,9.059,0,18.089,0,27.148a14.69,14.69,0,0,0,.171,1.543,12.1,12.1,0,0,1,10.831-4.858c.743-7.8,5.144-11.459,12.6-11.717-.2-7.687,2.172-11.831,7.659-13.517a10.948,10.948,0,0,1,7.087.114c3.8,1.343,6.058,4.172,7.316,7.973.4-.171.6-.286.8-.372,6.83-3.658,14.317-.6,16.575,6.83.572,1.858.972,3.744,1.457,5.63,1.115,4.429,2.258,8.83,3.429,13.431Zm-67.5,13h-.371c0,7.259-.029,14.517,0,21.776a12.261,12.261,0,0,0,.629,3.629c1.172,3.772,4.8,7.059,7.973,7.259-2.772-10.916-5.515-21.776-8.259-32.664Z" fill="#3d5065"/>
          <path id="Path_759" data-name="Path 759" d="M205.212,109.822c-1.715.057-2.972-1.143-3.686-3.172a22.947,22.947,0,0,0-2.143-4.744,11.074,11.074,0,0,0-7-4.658c-1.543-.372-2.858-1.029-3.315-2.743-.572-2.143.572-3.886,3.229-4.544a11.988,11.988,0,0,0,7.916-5.944,20.037,20.037,0,0,0,1.372-3.572c.657-2,1.858-3.086,3.572-3.086s3,1,3.544,3.086a12.545,12.545,0,0,0,9.659,9.63c2.058.514,3.058,1.829,3.029,3.572,0,1.715-1.057,3-3.115,3.515a12.39,12.39,0,0,0-9.545,9.516c-.543,2.086-1.8,3.143-3.486,3.2Zm.114-19.575c-1.257,1.086-2.629,2.229-3.658,3.115,1.2,1.286,2.429,2.6,3.315,3.515,1.2-1.115,2.486-2.315,3.658-3.4C207.527,92.39,206.269,91.161,205.326,90.246Z" fill="#3d5065"/>
          <path id="Path_760" data-name="Path 760" d="M221.186,182.922a3.361,3.361,0,0,1-3.344-3.544,3.434,3.434,0,0,1,3.429-3.486,3.5,3.5,0,0,1,3.429,3.686,3.375,3.375,0,0,1-3.515,3.372Z" fill="#3d5065"/>
        </g>
      </g>
    </g>
  </g>
</svg>
