<svg xmlns="http://www.w3.org/2000/svg" xmlns:xlink="http://www.w3.org/1999/xlink" width="290" height="290" viewBox="0 0 290 290">
  <defs>
    <clipPath id="clip-path">
      <circle id="Ellipse_38" data-name="Ellipse 38" cx="145" cy="145" r="145" transform="translate(358)" fill="#eaeaea"/>
    </clipPath>
  </defs>
  <g id="Mask_Group_36" data-name="Mask Group 36" transform="translate(-358)" clip-path="url(#clip-path)">
    <g id="Layer_1-2" transform="translate(358)">
      <g id="Group_590" data-name="Group 590">
        <circle id="Ellipse_90" data-name="Ellipse 90" cx="145" cy="145" r="145" transform="translate(0 0)" fill="#e0fbfd"/>
        <path id="Path_746" data-name="Path 746" d="M57.011,141.142c1.343-3.515,3.629-5.915,7.516-6.344,1.143-6,4.572-9.545,10.574-10.516.486-.086,1-.829,1.257-1.372a17.229,17.229,0,0,1,26.577-6.287c2.058,1.686,3.486,4.172,4.972,6.43a2.486,2.486,0,0,0,1.943,1.315c1.886.286,3.686.914,5.687,1.429,3.944-3.744,8.745-4.944,14-2.772,5,2.058,7.459,6.144,7.859,11.631h74.586V78.3c0-4.715-2.258-6.973-7-6.973h-12.26c-3.886,0-6.316,2.486-6.316,6.4V88.846c.229.143.343.286.429.257,3.229-.6,5,1.286,6.687,3.658a31.022,31.022,0,0,1,5.944,14.574,1.848,1.848,0,0,0,1.6,1.858,7.882,7.882,0,0,1,6,7.516c.057,1.457.029,2.915,0,4.372,0,2.429-.829,3.229-3.286,3.229H152.944c-2.543,0-3.286-.8-3.315-3.372V117.08a7.9,7.9,0,0,1,6.144-7.916,1.632,1.632,0,0,0,1.429-1.629,31.622,31.622,0,0,1,7.144-16.289c1.2-1.515,2.486-2.372,4.458-2.086a12.622,12.622,0,0,0,1.486,0V87.046c.086-4.258-.229-8.573.314-12.774,1.286-9.831,8.459-16.975,18.175-18.775a4.639,4.639,0,0,0,.8-.314h19.29a1.449,1.449,0,0,0,.457.257c9.6,1.172,19.089,10.059,18.918,23.176-.257,18-.057,36.007-.057,53.982v2.029c4.887.686,7.659,2.972,8.287,6.916a24.766,24.766,0,0,1,.114,3.858c0,6.2-2.258,8.887-8.4,9.888v1.858c0,8.945.114,17.889-.057,26.834a34.3,34.3,0,0,1-10.574,24.633c-2.772,2.715-6.058,4.858-9.23,7.344.686,1.6,1.515,3.458,2.258,5.372a9.506,9.506,0,0,1-5.03,12.574c-4.887,2.058-10.231-.2-12.46-5.258-1.115-2.515-2.229-5.03-3.172-7.573a2.372,2.372,0,0,0-2.658-1.772q-40.422.086-80.816.029h-1.972c-1.315,3.058-2.572,6.087-3.858,9.059-2.315,5.372-7.573,7.716-12.574,5.63-5.058-2.086-7.116-7.6-4.858-13.031.743-1.8,1.515-3.6,2.258-5.372a5.7,5.7,0,0,0-.572-.429c-12.917-7.259-19.318-18.346-19.4-33.121-.029-8.287,0-16.6,0-24.891v-1.858c-4.772-.686-6.115-1.743-8.4-6.458v-7.716Zm166.2,14.146H70.328c0,9.516-.086,18.918,0,28.32a31.078,31.078,0,0,0,30.92,30.777c30.377.086,60.783.171,91.161-.057,12.088-.086,21.118-5.944,27.062-16.46a28.535,28.535,0,0,0,3.686-13.917c.086-9.516,0-19.032,0-28.663Zm-76.615-5.03h78.873c5.915,0,6.23-.286,6.115-6.258a4.965,4.965,0,0,0-1.057-3.315,5.263,5.263,0,0,0-3.372-.914q-79.644-.043-159.317-.029c-5.573,0-5.915.372-5.915,5.973,0,3.629.914,4.544,4.572,4.544h80.1Zm76.644-15.489V114.994c0-12.545.057-25.119,0-37.665-.057-8.545-6-15.8-14.4-16.775-5.6-.657-11.317-.4-16.975-.343-7.744.114-14.86,5.687-16.117,13.317-.829,5.058-.543,10.316-.743,15.546h6.516V77.587A10.834,10.834,0,0,1,192.609,66.5c4.087-.029,8.173,0,12.26,0,7.687,0,12.06,4.372,12.06,12.06v56.268h6.316Zm-153.516,0H132.34a7.6,7.6,0,0,0-5.2-7.373,7.8,7.8,0,0,0-8.945,3.029c-1.515,2.115-2.658,2.258-4.572.6a6.531,6.531,0,0,0-5.315-1.715c-3,.372-3.372.143-4.229-2.686a12.423,12.423,0,0,0-23.776-.2c-.914,2.829-1.029,2.915-3.915,2.858a6.4,6.4,0,0,0-6.658,5.515Zm92.247-25.919H194.7a25.333,25.333,0,0,0-6-14.146,2.145,2.145,0,0,0-1.515-.543c-5.887-.029-11.774-.057-17.689,0a2.551,2.551,0,0,0-1.715.857,25.192,25.192,0,0,0-5.8,13.831Zm-7.43,10.488H202.1c.286-4.544-.6-5.515-4.887-5.515H158.488c-2.8,0-3.915,1.143-3.915,3.972v1.543ZM89.932,217.671c-.886,2.086-1.858,4.144-2.6,6.287a4.487,4.487,0,0,0,2.486,5.544,4.364,4.364,0,0,0,5.744-1.886c1.315-2.629,2.372-5.372,3.544-8.116-3.086-.629-6-1.2-9.145-1.829ZM194.553,219.5c.943,2.286,1.886,4.487,2.8,6.658.171.371.314.743.514,1.115a4.493,4.493,0,0,0,5.744,2.286,4.373,4.373,0,0,0,2.715-5.4c-.743-2.258-1.772-4.4-2.658-6.487-3.115.629-6.03,1.2-9.145,1.829Z" fill="#3d5065"/>
      </g>
    </g>
  </g>
</svg>
