<svg xmlns="http://www.w3.org/2000/svg" xmlns:xlink="http://www.w3.org/1999/xlink" width="290" height="290" viewBox="0 0 290 290">
  <defs>
    <clipPath id="clip-path">
      <circle id="Ellipse_95" data-name="Ellipse 95" cx="145" cy="145" r="145" transform="translate(637 6422)" fill="#e0fbfd"/>
    </clipPath>
  </defs>
  <g id="Mask_Group_40" data-name="Mask Group 40" transform="translate(-637 -6422)" clip-path="url(#clip-path)">
    <g id="Layer_1-2" transform="translate(637 6422)">
      <path id="Path_789" data-name="Path 789" d="M145,0A145,145,0,1,1,0,145,145,145,0,0,1,145,0Z" transform="translate(0 0)" fill="#e0fbfd"/>
      <g id="Group_607" data-name="Group 607">
        <path id="Path_771" data-name="Path 771" d="M230.817,187.408c-1.172,3.172-3.515,4.287-6.8,4.2-4.144-.114-8.316,0-12.46-.057a1.651,1.651,0,0,0-1.858,1.315,21.14,21.14,0,0,1-40.036,0,1.635,1.635,0,0,0-1.858-1.315c-9.516.029-19.032.057-28.548,0a1.826,1.826,0,0,0-2.029,1.515,21.007,21.007,0,0,1-19.261,14.146,20.439,20.439,0,0,1-19.861-12.431c-1.143-2.8-2.543-3.429-5.23-3.258-3.143.229-6.344.114-9.516.029-3.2-.086-5.43-2.058-5.6-4.858-.2-3.286,1.972-5.63,5.515-5.744,2.572-.086,5.144,0,7.716,0h5.03c1.886-3.143,3.258-6.258,5.372-8.716a21.021,21.021,0,0,1,35.778,6.83,2.367,2.367,0,0,0,2.743,1.915c9.145-.057,18.261-.057,27.405,0a2,2,0,0,0,2.315-1.6,21.1,21.1,0,0,1,40.122.143,1.768,1.768,0,0,0,2.058,1.457c2.715-.086,5.458,0,8.43,0v-1.715c0-8.03,0-16.089-.029-24.119a4.441,4.441,0,0,0-.857-2.515c-1.886-2.6-3.972-5.087-5.887-7.687a2.689,2.689,0,0,0-2.458-1.2c-12.8.029-25.605,0-38.408,0-4.687,0-6.573-1.886-6.573-6.544V101.391H84.388a12.458,12.458,0,0,1-2.915-.286A5.238,5.238,0,0,1,82.3,90.9a17.683,17.683,0,0,1,2.115-.086h85.331c5.03,0,6.859,1.8,6.859,6.773v3.829h1.858c6.516,0,13.031.086,19.518-.029a6.427,6.427,0,0,1,6.487,3.972c4.258,8.63,8.659,17.175,12.888,25.805a46.3,46.3,0,0,0,5.858,9.23c1.858,2.229,3.629,4.544,5.315,6.887.857,1.172,1.486,2.515,2.229,3.772v36.436Zm-54.1-54.439h29.806c-3.458-6.887-6.8-13.574-10.2-20.233a2.1,2.1,0,0,0-1.515-.8c-3.115-.086-6.23-.029-9.345-.029h-8.716v21.061Zm13.031,42.58A10.546,10.546,0,1,0,200.3,186.094,10.574,10.574,0,0,0,189.752,175.549Zm-61.9,10.545a10.565,10.565,0,1,0,0,.029Z" fill="#3d5065"/>
        <path id="Path_772" data-name="Path 772" d="M90.561,143.857H69.214a11.283,11.283,0,0,1-2.6-.2,5.252,5.252,0,0,1-.229-10.059,8.587,8.587,0,0,1,2.429-.314h43.666a8.722,8.722,0,0,1,2.429.314,5.242,5.242,0,0,1-1,10.2,17.921,17.921,0,0,1-2.143.086H90.589Z" fill="#3d5065"/>
        <path id="Path_773" data-name="Path 773" d="M99.305,112.479h22.147c3,0,5.172,1.715,5.6,4.258A5.3,5.3,0,0,1,122.281,123a10.1,10.1,0,0,1-1.315.029H77.472c-2.172,0-4-.572-5.23-2.458a5.267,5.267,0,0,1,4.4-8.144H99.277Z" fill="#3d5065"/>
        <path id="Path_774" data-name="Path 774" d="M88.817,154.173c4.144,0,8.316-.114,12.46.029a5.247,5.247,0,0,1-.314,10.488c-8.087.057-16.2.057-24.29,0a5.292,5.292,0,0,1-5.315-5.344,5.215,5.215,0,0,1,5.287-5.172c4.058-.086,8.087,0,12.145,0h0Z" fill="#3d5065"/>
      </g>
    </g>
  </g>
</svg>
